<svg width="64px" height="62px" viewBox="0 0 64 63" version="1.1" xmlns="http://www.w3.org/2000/svg" xmlns:xlink="http://www.w3.org/1999/xlink">
    <title>Shape</title>
    <desc></desc>
    <g id="Page-1" stroke="none" stroke-width="1" fill="none" fill-rule="evenodd">
        <g id="Homepage3" transform="translate(-150.000000, -1314.000000)" fill="#FFFFFF" fill-rule="nonzero">
            <g id="Choose-Bitfex" transform="translate(0.000000, 920.000000)">
                <g id="Group-21" transform="translate(150.000000, 385.000000)">
                    <path d="M42.08,44.9 L32.252,41.924 C32.088,41.872 31.908,41.872 31.744,41.924 L21.916,44.9 C21.548,45.016 21.296,45.356 21.296,45.744 C21.296,51.524 21.448,56.604 23.3,60.204 C25.136,63.772 28.164,64.904 30.836,65.896 C31.116,66 31.404,66.104 31.684,66.216 C31.784,66.256 31.896,66.272 32.004,66.272 C32.108,66.272 32.216,66.256 32.316,66.216 C32.596,66.104 32.884,66 33.164,65.896 C35.836,64.904 38.86,63.772 40.692,60.204 C42.556,56.604 42.708,51.524 42.708,45.744 C42.708,45.356 42.452,45.016 42.08,44.9 Z M39.132,59.396 C37.6,62.356 35.148,63.276 32.548,64.24 C32.364,64.308 32.18,64.38 32,64.444 C31.816,64.376 31.632,64.308 31.448,64.236 C28.848,63.272 26.388,62.352 24.864,59.392 C23.256,56.276 23.064,51.668 23.052,46.396 L32,43.692 L40.94,46.4 C40.924,51.672 40.744,56.276 39.132,59.396 Z M26.532,53.668 C26.156,53.364 25.6,53.424 25.292,53.804 C24.988,54.184 25.048,54.736 25.428,55.044 L29.984,58.708 C30.148,58.832 30.344,58.9 30.536,58.9 C30.776,58.9 31.024,58.8 31.196,58.604 L39.04,49.784 C39.364,49.424 39.328,48.868 38.968,48.54 C38.592,48.216 38.044,48.248 37.72,48.608 L30.436,56.8 L26.532,53.668 Z M60.476,13.46 L58.824,13.46 L58.824,10.76 C58.824,9.788 58.032,9 57.06,9 L6.5,9 C5.528,9 4.74,9.788 4.74,10.76 L4.74,13.46 L3.528,13.46 C1.584,13.46 0,15.04 0,16.984 L0,56.028 C0,57.976 1.584,59.564 3.528,59.564 L15.056,59.564 C17.412,66.668 24.112,71.808 32,71.808 C39.888,71.808 46.584,66.668 48.944,59.56 L60.476,59.56 C62.412,59.56 64,57.976 64,56.032 L64,16.984 C64,15.04 62.416,13.46 60.476,13.46 Z M6.5,10.76 L57.06,10.76 L57.06,13.46 L6.5,13.46 L6.5,10.76 Z M32,70.052 C23.124,70.052 15.904,62.832 15.904,53.956 C15.904,53.284 15.948,52.612 16.024,51.956 C17.024,43.916 23.888,37.86 32,37.86 C34.076,37.86 36.096,38.252 38.004,39.016 C44.128,41.48 48.088,47.344 48.088,53.956 C48.096,62.824 40.872,70.052 32,70.052 Z M62.236,32.78 L48.76,32.78 C46.544,32.78 44.74,30.976 44.74,28.756 C44.74,26.544 46.544,24.74 48.76,24.74 L62.236,24.74 L62.236,32.78 Z M62.236,22.976 L48.76,22.976 C45.572,22.976 42.972,25.568 42.972,28.764 C42.972,31.952 45.564,34.544 48.76,34.544 L62.236,34.544 L62.236,56.032 C62.236,57.004 61.452,57.792 60.48,57.792 L49.432,57.792 C49.704,56.552 49.856,55.272 49.856,53.952 C49.856,46.616 45.46,40.112 38.664,37.376 C36.548,36.528 34.304,36.092 32,36.092 C23,36.092 15.384,42.82 14.28,51.732 C14.188,52.46 14.14,53.208 14.14,53.952 C14.14,55.268 14.296,56.552 14.568,57.796 L3.528,57.796 C2.556,57.796 1.764,57.008 1.764,56.028 L1.764,16.984 C1.764,16.016 2.556,15.224 3.528,15.224 L60.476,15.224 C61.448,15.224 62.232,16.016 62.232,16.984 L62.232,22.976 L62.236,22.976 Z M45.804,28.756 C45.804,30.38 47.124,31.704 48.752,31.704 C50.376,31.704 51.696,30.38 51.696,28.756 C51.696,27.136 50.376,25.812 48.752,25.812 C47.124,25.812 45.804,27.136 45.804,28.756 Z M49.936,28.756 C49.936,29.412 49.4,29.944 48.752,29.944 C48.096,29.944 47.564,29.412 47.564,28.756 C47.564,28.108 48.096,27.576 48.752,27.576 C49.404,27.58 49.936,28.108 49.936,28.756 Z" id="Shape"></path>
                </g>
            </g>
        </g>
    </g>
</svg>