<svg version="1.1" id="Layer_1" xmlns="http://www.w3.org/2000/svg" xmlns:xlink="http://www.w3.org/1999/xlink" x="0px" y="0px"
	 width="100%" height="100%" viewBox="272.64 395.945 50 50" enable-background="new 272.64 395.945 50 50" xml:space="preserve">
<path fill="#999999" d="M310.64,420.945c0,7.18-5.82,13-13,13c-7.179,0-13-5.82-13-13c0-7.18,5.821-13,13-13
	c3.457,0,6.591,1.358,8.919,3.56l8.339-7.198c-4.368-4.53-10.483-7.362-17.258-7.362c-13.234,0-24,10.766-24,24
	c0,13.234,10.765,24,24,24s24-10.767,24-24H310.64z"/>
<circle id="XMLID_1331_" fill="#808080" cx="297.64" cy="420.945" r="24"/>
<path fill="#999999" d="M311.64,420.945c0,7.732-6.268,14-14,14c-7.732,0-14-6.269-14-14s6.268-14,14-14
	c3.76,0,7.166,1.49,9.682,3.901l7.576-6.54c-4.368-4.53-10.483-7.362-17.258-7.362c-13.234,0-24,10.766-24,24
	c0,13.234,10.765,24,24,24s24-10.767,24-24H311.64z"/>
<circle fill="#B3B3B3" cx="297.64" cy="401.945" r="2"/>
<circle fill="#B3B3B3" cx="297.64" cy="439.945" r="2"/>
<circle fill="#B3B3B3" cx="278.64" cy="420.945" r="2"/>
<ellipse fill="#B3B3B3" cx="284.205" cy="434.379" rx="2" ry="2"/>
<ellipse fill="#B3B3B3" cx="311.074" cy="434.379" rx="1.999" ry="1.999"/>
<ellipse fill="#B3B3B3" cx="284.205" cy="407.51" rx="2" ry="2"/>
<circle id="XMLID_1329_" fill="#808080" cx="297.64" cy="420.945" r="12"/>
<circle id="XMLID_1330_" fill="#808080" cx="297.64" cy="420.945" r="14"/>
<path opacity="0.2" fill="#FFFFFF" enable-background="new    " d="M311.64,421.445c0-0.084-0.011-0.166-0.013-0.25
	c-0.135,7.616-6.34,13.75-13.987,13.75c-7.647,0-13.865-6.135-14-13.75c-0.001,0.084,0,0.166,0,0.25c0,7.732,6.268,14,14,14
	C305.372,435.445,311.64,429.177,311.64,421.445z"/>
<path fill="#4D4D4D" d="M311.48,422.944h-6.123c0.167-0.643,0.283-1.305,0.283-2c0-4.418-3.582-8-8-8c-4.418,0-8,3.582-8,8
	c0,2.209,0.895,4.209,2.343,5.657c2.029,2.028,8.114,8.113,8.114,8.113C306.007,433.668,310.624,428.919,311.48,422.944z"/>
<path fill="#B3B3B3" d="M317.64,422.944h-20c-1.105,0-2-0.896-2-2c0-1.104,0.895-2,2-2h20c1.105,0,1.999,0.896,1.999,2
	C319.639,422.049,318.745,422.944,317.64,422.944z"/>
<path opacity="0.2" fill="#FFFFFF" enable-background="new    " d="M297.535,419.445h20.209c0.815,0,1.552,0.495,1.869,1.184
	c-0.16-0.943-0.985-1.684-1.974-1.684h-20c-0.99,0-1.799,0.659-1.96,1.602C295.999,419.857,296.719,419.445,297.535,419.445z"/>
<path opacity="0.5" fill="#666666" enable-background="new    " d="M319.639,420.945c0,1.104-0.894,2-1.999,2h-6.16
	c-0.856,5.977-5.475,10.726-11.387,11.771l7.87,7.894c8.08-3.863,13.677-12.111,13.677-21.665H319.639z"/>
<path opacity="0.1" enable-background="new    " d="M297.64,406.945c-7.732,0-14,6.268-14,14c0,0.084-0.001,0.138,0,0.222
	c0.134-7.615,6.353-13.722,14-13.722c5.656,0,9.682,3.402,9.682,3.402C304.809,408.45,301.387,406.945,297.64,406.945z"/>
<linearGradient id="XMLID_2_" gradientUnits="userSpaceOnUse" x1="11.594" y1="830.8418" x2="13.3482" y2="830.0238" gradientTransform="matrix(24.8033 0 0 -24.8033 -11.6954 21018.4648)">
	<stop  offset="0" style="stop-color:#FFFFFF;stop-opacity:0.2"/>
	<stop  offset="1" style="stop-color:#FFFFFF;stop-opacity:0"/>
</linearGradient>
<circle id="XMLID_4_" fill="url(#XMLID_2_)" cx="297.64" cy="420.945" r="24"/>
</svg>
