<svg version="1.1" id="Layer_1" xmlns="http://www.w3.org/2000/svg" xmlns:xlink="http://www.w3.org/1999/xlink" x="0px" y="0px"
	 width="53.541px" height="53.54px" viewBox="0 0 53.541 53.54" enable-background="new 0 0 53.541 53.54" xml:space="preserve">
<path fill="#32C24D" d="M26.792,1.77c-0.225-0.006-0.448,0.062-0.629,0.196c-6.175,4.529-13.824,6.081-21.008,4.64
	c-0.544-0.109-1.075,0.245-1.187,0.79C3.958,7.46,3.952,7.527,3.951,7.593v21.409c0,12.597,10.195,22.768,22.819,22.768
	s22.82-10.171,22.82-22.768V7.593c-0.003-0.556-0.451-1.008-1.008-1.008c-0.066,0-0.134,0.007-0.198,0.021
	c-7.191,1.443-14.85-0.102-21.029-4.64C27.191,1.845,26.996,1.777,26.792,1.77z M26.77,7.288c0.203,0.003,0.399,0.065,0.566,0.18
	c4.776,3.334,10.529,4.537,16.056,3.669c0.549-0.086,1.065,0.291,1.151,0.839c0.009,0.052,0.012,0.104,0.012,0.157V28.51
	c0,9.822-7.938,17.741-17.785,17.741c-9.849,0-17.786-7.919-17.786-17.741V12.133c0-0.556,0.451-1.007,1.008-1.008
	c0.052,0,0.104,0.004,0.155,0.012c5.522,0.866,11.265-0.341,16.038-3.669C26.357,7.35,26.56,7.286,26.77,7.288z M26.761,9.441
	c-4.759,3.124-10.319,4.346-15.763,3.758V28.51c0,8.742,6.997,15.729,15.771,15.729c8.773,0,15.771-6.987,15.771-15.729V13.199
	C37.094,13.79,31.524,12.572,26.761,9.441z"/>
<path fill="#FFFFFF" d="M35.579,23.158l-13.44,10.46l-4.59-7.177c-0.538-0.844-0.292-1.959,0.549-2.5
	c0.843-0.537,1.962-0.289,2.499,0.552l2.452,3.833l10.308-8.023c0.786-0.614,1.926-0.474,2.538,0.316
	C36.51,21.408,36.366,22.546,35.579,23.158z"/>
</svg>
