<svg version="1.1" id="Layer_1" xmlns="http://www.w3.org/2000/svg" xmlns:xlink="http://www.w3.org/1999/xlink" x="0px" y="0px"
	 width="24px" height="24px" viewBox="0 0 24 24" enable-background="new 0 0 24 24" xml:space="preserve" style="fill:#32c24d;">
<g>
	<path d="M21.333,4.615l-10.578,9.656l-3.842-4.191C6.539,9.68,5.915,9.655,5.491,10.004c-0.399,0.374-0.424,0.998-0.075,1.422
		l4.516,4.94c0.2,0.225,0.474,0.324,0.749,0.324c0.249,0,0.473-0.075,0.673-0.249L22.681,6.087c0.399-0.375,0.424-0.998,0.075-1.422
		C22.382,4.266,21.758,4.241,21.333,4.615z"/>
	<path d="M11.479,22.479c5.788,0,10.478-4.691,10.478-10.479c0-0.499-0.025-0.973-0.1-1.447c-0.075-0.549-0.573-0.924-1.123-0.849
		c-0.549,0.075-0.923,0.574-0.848,1.123c0.05,0.399,0.074,0.799,0.074,1.173c0,4.666-3.817,8.482-8.482,8.482
		c-4.666,0-8.483-3.816-8.483-8.482c0-4.666,3.817-8.483,8.483-8.483c1.996,0,3.942,0.698,5.463,1.997
		c0.424,0.349,1.048,0.299,1.397-0.125c0.349-0.423,0.299-1.047-0.125-1.396c-1.871-1.597-4.266-2.471-6.736-2.471
		C5.691,1.521,1,6.212,1,12S5.691,22.479,11.479,22.479z"/>
</g>
</svg>
