<svg version="1.1" id="Layer_1" xmlns="http://www.w3.org/2000/svg" xmlns:xlink="http://www.w3.org/1999/xlink" x="0px" y="0px"
	 width="24px" height="24px" viewBox="0 0 24 24" enable-background="new 0 0 24 24" xml:space="preserve">
<g>
	<path fill="#999999" d="M9.397,17.122c-0.272,0.21-0.626,0.331-0.973,0.331c-0.874,0-1.584-0.7-1.584-1.56
		c0-0.875,0.663-1.56,1.51-1.56c0.314,0,0.512,0.092,0.766,0.262c0.181,0.121,0.428,0.074,0.549-0.109
		c0.122-0.181,0.073-0.428-0.109-0.549c-0.308-0.205-0.667-0.396-1.207-0.396c-1.29,0-2.301,1.033-2.301,2.353
		c0,1.296,1.066,2.352,2.375,2.352c0.525,0,1.043-0.178,1.457-0.497c0.172-0.133,0.206-0.38,0.072-0.555
		C9.82,17.022,9.572,16.989,9.397,17.122L9.397,17.122z"/>
	<path fill="#999999" d="M17.952,15.894c0-1.316-1.009-2.35-2.302-2.35c-0.54,0-0.897,0.189-1.204,0.395
		c-0.182,0.123-0.23,0.369-0.109,0.549c0.119,0.183,0.369,0.231,0.548,0.111c0.256-0.173,0.452-0.263,0.768-0.263
		c0.846,0,1.509,0.684,1.509,1.558c0,0.859-0.71,1.561-1.585,1.561c-0.346,0-0.699-0.12-0.973-0.33
		c-0.174-0.134-0.422-0.102-0.555,0.07c-0.134,0.175-0.101,0.423,0.071,0.555c0.413,0.319,0.932,0.497,1.458,0.497
		C16.887,18.245,17.952,17.189,17.952,15.894L17.952,15.894z"/>
	<path fill="#999999" d="M8.977,15.853c0,0.218,0.177,0.395,0.396,0.395h4.75c0.218,0,0.396-0.177,0.396-0.395
		c0-0.219-0.179-0.396-0.396-0.396h-4.75C9.153,15.456,8.977,15.634,8.977,15.853z"/>
	<path fill="#999999" d="M15.706,13.092c0.077,0.002,0.147,0.019,0.222,0.027c-0.713-0.584-1.301-1.427-1.704-2.337
		c-0.709,0.743-1.283,1.532-1.688,2.299h3.171V13.092z"/>
	<path fill="#999999" d="M17.939,13.125c1.955,0,3.544-3.021,3.544-4.996c0-1.954-1.59-3.544-3.544-3.544
		c-1.955,0-3.544,1.589-3.544,3.544C14.396,10.102,15.983,13.125,17.939,13.125z"/>
	<path fill="#999999" d="M21.649,10.786c-0.737,1.667-2.076,3.13-3.711,3.13c-0.139,0-0.27-0.022-0.403-0.045
		c0.501,0.501,0.81,1.2,0.81,1.992c0,1.487-1.173,2.695-2.642,2.765v-0.005h-1.457c1.055,0.545,2.33,0.791,3.688,0.791h0.004
		c3.343,0,6.062-1.797,6.062-4.131C24.002,13.94,23.101,12.29,21.649,10.786z"/>
	<path fill="#999999" d="M7.789,18.627c-1.467-0.068-2.642-1.278-2.642-2.764c0-0.775,0.295-1.464,0.775-1.962
		C4.35,13.819,3.064,12.4,2.347,10.782C0.9,12.3,0,14.003,0,15.346c0,1.161,0.65,2.19,1.831,2.987
		c1.136,0.769,2.636,1.081,4.229,1.081h0.001c1.342,0,2.58-0.292,3.585-0.791H7.785v0.004H7.789L7.789,18.627z"/>
	<path fill="#999999" d="M8.122,13.081h3.363c-0.407-0.764-0.99-1.547-1.71-2.295C9.382,11.676,8.813,12.5,8.122,13.081z"/>
	<path fill="#999999" d="M6.063,13.125c1.955,0,3.542-3.021,3.542-4.996c0-1.954-1.588-3.544-3.542-3.544S2.519,6.174,2.519,8.129
		C2.52,10.102,4.107,13.125,6.063,13.125z"/>
</g>
</svg>
