<svg version="1.1" id="Layer_1" xmlns="http://www.w3.org/2000/svg" xmlns:xlink="http://www.w3.org/1999/xlink" x="0px" y="0px"
	 width="53.541px" height="53.54px" viewBox="0 0 53.541 53.54" enable-background="new 0 0 53.541 53.54" xml:space="preserve">
<g>
	<path fill="#666666" d="M38.916,22.045h-1.411l-1.521,1.064h2.479c0.118,0,0.234,0.015,0.344,0.042
		c0.683,0.159,1.188,0.775,1.188,1.511v13.58c0.646-0.38,1.085-1.086,1.085-1.897V24.238C41.079,23.026,40.109,22.045,38.916,22.045
		z"/>
	<path fill="#666666" d="M38.524,24.022H14.373c-0.252,0-0.456-0.204-0.456-0.455c0-0.253,0.204-0.458,0.456-0.458h1.859
		l0.618-0.445l0.856-0.618h-3.062c-1.206,0-2.185,0.98-2.185,2.19v0.425v14.046c0,1.211,0.979,2.192,2.185,2.192h22.331
		c1.206,0,2.185-0.981,2.185-2.192V24.661C39.16,24.308,38.875,24.022,38.524,24.022z"/>
	<g>
		<path fill="#666666" d="M26.837,19.488c-1.744-0.091-3.23,1.242-3.316,2.979c-0.012,0.235,0.005,0.464,0.042,0.687h6.239
			c0.02-0.115,0.034-0.233,0.04-0.354C29.927,21.062,28.583,19.579,26.837,19.488z"/>
		<path fill="#666666" d="M23.521,22.466c0.086-1.735,1.572-3.069,3.316-2.979c1.745,0.091,3.09,1.573,3.005,3.312
			c-0.006,0.119-0.021,0.238-0.04,0.353h4.909l3.095-2.297l-6.223-8.215L17.428,23.153h6.135
			C23.526,22.93,23.509,22.702,23.521,22.466z"/>
	</g>
	<polygon fill="#666666" points="24.042,12.782 18.157,21.726 27.341,14.957 	"/>
</g>
<path fill="#F64747" d="M12.104,42.999c3.879,3.51,9.023,5.646,14.667,5.646c12.082,0,21.875-9.793,21.875-21.874
	c0-5.644-2.137-10.787-5.646-14.668L12.104,42.999z M10.541,41.438l30.896-30.897c-3.879-3.509-9.023-5.646-14.667-5.646
	c-12.081,0-21.875,9.794-21.875,21.875C4.896,32.413,7.033,37.557,10.541,41.438z M26.771,51.77c-13.807,0-25-11.193-25-25
	s11.193-25,25-25c13.806,0,25,11.193,25,25S40.577,51.77,26.771,51.77z"/>
</svg>
