<svg version="1.1" id="Layer_1" xmlns="http://www.w3.org/2000/svg" xmlns:xlink="http://www.w3.org/1999/xlink" x="0px" y="0px"
	 width="53.541px" height="53.54px" viewBox="0 0 53.541 53.54" enable-background="new 0 0 53.541 53.54" xml:space="preserve">
<path fill="#666666" d="M41.38,32.042c2.426,0,4.168-1.923,4.168-4.167c0-2.243-1.742-4.167-4.168-4.167
	c-0.947,0-2.176,0.43-3.24,1.048v-7.53c0-0.512-0.415-0.926-0.927-0.926h-7.531c0.619-1.065,1.049-2.292,1.049-3.241
	c0-2.426-1.923-4.167-4.167-4.167c-2.243,0-4.167,1.741-4.167,4.167c0,0.948,0.43,2.175,1.048,3.241h-8.457
	c-0.511,0-0.927,0.415-0.925,0.926l0.002,7.119c0,0.769,0.883,1.202,1.492,0.733c0.732-0.564,1.76-0.907,2.673-0.907
	c1.715,0,3.24,1.414,3.24,3.241s-1.525,3.241-3.24,3.241c-0.913,0-1.94-0.342-2.673-0.906c-0.609-0.469-1.491-0.034-1.491,0.734
	l0.002,8.969c0,0.512,0.416,0.926,0.927,0.926h8.966c0.769,0,1.203-0.883,0.733-1.491c-0.566-0.734-0.908-1.762-0.908-2.676
	c0-1.715,1.413-3.24,3.241-3.24c1.827,0,3.241,1.525,3.241,3.24c0,0.914-0.343,1.941-0.908,2.676
	c-0.471,0.608-0.036,1.491,0.732,1.491h7.12c0.512,0,0.927-0.414,0.927-0.926v-8.457C39.205,31.612,40.433,32.042,41.38,32.042z"/>
<g>
	<path fill="#EF4849" d="M12.104,42.999c3.879,3.51,9.023,5.646,14.667,5.646c12.081,0,21.875-9.793,21.875-21.874
		c0-5.644-2.137-10.787-5.646-14.667L12.104,42.999z M10.541,41.438L41.437,10.54c-3.879-3.508-9.023-5.645-14.667-5.645
		c-12.081,0-21.875,9.793-21.875,21.875C4.896,32.413,7.032,37.557,10.541,41.438z M26.77,51.77c-13.807,0-25-11.193-25-25
		c0-13.807,11.193-25,25-25s25,11.193,25,25C51.77,40.577,40.577,51.77,26.77,51.77z"/>
</g>
</svg>
