<svg xmlns="http://www.w3.org/2000/svg" xmlns:xlink="http://www.w3.org/1999/xlink" version="1.1" x="0px" y="0px" viewBox="0 0 100 100"  width="100%" height="100%" style="enable-background:new 0 0 100 100; fill:#f00;" xml:space="preserve"><g><g><path d="M69,31c-1.2-1.2-3.2-1.2-4.4,0L50,45.6L35.5,31c-1.2-1.2-3.2-1.2-4.4,0c-1.2,1.2-1.2,3.2,0,4.4L45.6,50L31,64.5    c-1.2,1.2-1.2,3.2,0,4.4c0.6,0.6,1.4,0.9,2.2,0.9c0.8,0,1.6-0.3,2.2-0.9L50,54.4L64.5,69c0.6,0.6,1.4,0.9,2.2,0.9s1.6-0.3,2.2-0.9    c1.2-1.2,1.2-3.2,0-4.4L54.4,50L69,35.5C70.2,34.2,70.2,32.3,69,31z"/><path d="M50,5C25.1,5,5,25.1,5,50s20.1,45,45,45s45-20.1,45-45S74.9,5,50,5z M77.4,77.4c-7.3,7.3-17,11.3-27.4,11.3    c-10.3,0-20.1-4-27.4-11.3c-7.3-7.3-11.3-17-11.3-27.4c0-10.3,4-20.1,11.3-27.4c7.3-7.3,17-11.3,27.4-11.3    c10.3,0,20.1,4,27.4,11.3c7.3,7.3,11.3,17,11.3,27.4C88.7,60.3,84.7,70.1,77.4,77.4z"/></g></g></svg>