<svg version="1.1" id="Layer_1" xmlns="http://www.w3.org/2000/svg" xmlns:xlink="http://www.w3.org/1999/xlink" x="0px" y="0px"
	 width="53.541px" height="53.54px" viewBox="0 0 53.541 53.54" enable-background="new 0 0 53.541 53.54" xml:space="preserve">
<path fill="#666666" d="M37.104,25.489h-0.828v-3.772c0-5.241-4.265-9.505-9.506-9.505c-5.241,0-9.505,4.264-9.505,9.505v3.772
	h-0.829c-1.109,0-2.009,0.9-2.009,2.01V39.32c0,1.108,0.9,2.008,2.009,2.008h20.668c1.11,0,2.01-0.899,2.01-2.008V27.499
	C39.114,26.389,38.214,25.489,37.104,25.489z M32.256,25.489H21.284v-3.772c0-3.026,2.461-5.487,5.485-5.487
	c3.025,0,5.487,2.461,5.487,5.487V25.489z"/>
<path fill="#F64747" d="M12.103,43c3.88,3.508,9.024,5.646,14.668,5.646c12.081,0,21.874-9.794,21.874-21.875
	c0-5.644-2.136-10.787-5.645-14.668L12.103,43z M10.542,41.437L41.437,10.54c-3.879-3.508-9.022-5.645-14.666-5.645
	c-12.082,0-21.875,9.793-21.875,21.875C4.896,32.414,7.033,37.557,10.542,41.437z M26.771,51.77c-13.808,0-25.001-11.193-25.001-25
	c0-13.808,11.193-25.001,25.001-25.001c13.807,0,24.999,11.193,24.999,25.001C51.77,40.577,40.578,51.77,26.771,51.77z"/>
</svg>
