<svg version="1.1" id="Layer_1" xmlns="http://www.w3.org/2000/svg" xmlns:xlink="http://www.w3.org/1999/xlink" x="0px" y="0px"
	 width="53.541px" height="53.54px" viewBox="0 0 53.541 53.54" enable-background="new 0 0 53.541 53.54" xml:space="preserve">
<path fill="#666666" d="M39.33,38.59l-3.614-5.206c-0.435-0.724-1.447-0.868-2.17-0.434l-2.747,1.734c0,0-2.458,1.88-7.375-5.206
	c-4.628-7.228-2.024-8.82-2.024-8.82l2.748-1.735c0.723-0.434,0.867-1.445,0.434-2.168l-3.471-5.352c0,0-1.591-1.301-4.627,0.868
	c-2.459,3.615-2.314,7.664-2.314,7.664c1.012,5.061,3.472,9.253,5.206,11.711l0,0c0,0.146,0.145,0.29,0.29,0.29
	c0,0.145,0.144,0.289,0.288,0.289l0,0c1.737,2.458,4.628,6.363,8.822,9.255c0,0,3.761,1.735,8.098,0.723
	C39.909,40.614,39.33,38.59,39.33,38.59z"/>
<path fill="#F64747" d="M12.104,42.999c3.879,3.51,9.023,5.646,14.667,5.646c12.083,0,21.874-9.793,21.874-21.874
	c0-5.644-2.135-10.787-5.645-14.668L12.104,42.999z M10.541,41.438l30.896-30.897c-3.879-3.509-9.023-5.646-14.667-5.646
	c-12.082,0-21.874,9.794-21.874,21.875C4.896,32.413,7.032,37.557,10.541,41.438z M26.771,51.77c-13.807,0-25-11.193-25-25
	s11.194-25,25-25c13.807,0,25,11.193,25,25S40.578,51.77,26.771,51.77z"/>
</svg>
