<svg version="1.1" id="Layer_1" xmlns="http://www.w3.org/2000/svg" xmlns:xlink="http://www.w3.org/1999/xlink" x="0px" y="0px"
	 width="914.12px" height="195.006px" viewBox="0 0 914.12 195.006" enable-background="new 0 0 914.12 195.006"
	 xml:space="preserve">
<path fill="#FFFFFF" d="M266.608,25.211c0-6.19,2.981-8.542,8.114-8.542c5.123,0,8.108,2.348,8.108,8.542
	c0,5.114-2.985,8.104-8.108,8.104S266.608,30.325,266.608,25.211z M281.556,146.941c0,3.848-2.99,6.838-6.833,6.838
	c-3.847,0-6.837-2.99-6.837-6.838V60.235c0-3.842,2.99-6.836,6.837-6.836c3.842,0,6.833,2.994,6.833,6.836V146.941z"/>
<path fill="#FFFFFF" d="M374.878,65.993V6.842c0-3.847,2.99-6.837,6.837-6.837c3.847,0,6.833,2.99,6.833,6.837v105.936
	c0,28.179-17.508,42.063-41.848,42.063c-27.554,0-43.781-16.44-43.781-51.467c0-35.034,15.37-51.26,42.914-51.26
	C359.513,52.122,369.974,59.155,374.878,65.993z M374.878,83.295c0,0-8.109-18.793-28.178-18.793
	c-19.441,0-30.116,12.603-30.116,38.872c0,26.706,10.47,39.091,30.116,39.091c16.441,0,28.178-9.391,28.178-29.679V83.295
	L374.878,83.295z"/>
<path fill="#FFFFFF" d="M427.214,75.815c-2.129,2.348-3.628,2.994-5.551,2.994c-3.415,0-6.188-2.775-6.188-6.193
	c0-1.491,0.421-2.553,1.065-3.629c5.98-9.395,17.504-16.865,35.444-16.865c24.771,0,38.435,14.513,38.435,36.305v58.737
	c0,3.628-2.984,6.617-6.614,6.617c-3.624,0-6.618-2.989-6.618-6.617v-7.693c-5.342,10.041-17.728,15.379-30.533,15.379
	c-22.637,0-36.944-10.886-36.944-30.539c0-18.795,14.31-30.112,37.364-30.112h30.113v-5.771c0-14.518-9.611-23.492-25.2-23.492
	C440.666,64.929,433.828,68.354,427.214,75.815z M477.186,115.129v-8.971H447.07c-13.869,0-23.487,5.762-23.487,18.148
	c0,11.108,7.685,18.155,24.345,18.155C462.881,142.459,477.186,133.275,477.186,115.129z"/>
<path fill="#FFFFFF" d="M529.74,60.235v6.836c4.061-7.273,14.729-14.949,29.041-14.949c27.762,0,44.637,16.23,44.637,51.251
	c0,35.033-16.879,51.477-44.637,51.477c-14.311,0-24.556-7.683-29.041-14.951v48.271c0,3.628-3.209,6.837-6.842,6.837
	c-3.624,0-6.823-3.209-6.823-6.837V60.235c0-3.842,3.199-6.836,6.823-6.836C526.531,53.399,529.74,56.388,529.74,60.235z
	 M558.78,142.459c19.645,0,30.758-12.38,30.758-39.086c0-26.697-11.537-38.872-31.182-38.872c-15.805,0-29.041,11.108-29.041,38.872
	C529.311,130.934,542.121,142.459,558.78,142.459z"/>
<path fill="#FFFFFF" d="M129.85,129.234c17.53-17.524,17.53-46.053,0-63.583c-17.521-17.512-46.043-17.512-63.578,0
	c-17.521,17.529-17.521,46.057,0,63.583C83.806,146.757,112.328,146.757,129.85,129.234z M72.059,71.446
	c14.34-14.344,37.671-14.344,52.015,0c14.334,14.334,14.334,37.667-0.005,52.01c-14.339,14.34-37.67,14.34-52.01,0
	C57.72,109.113,57.72,85.78,72.059,71.446z"/>
<g>
	<path fill="#FFFFFF" d="M114.203,190.046l-1.393-8.051c-19.521,3.396-39.425-0.095-56.554-9.681
		c-21.654-12.586-31.347-29.938-33.065-33.053C5.08,106.982,9.646,67.178,34.616,39.772l8.671,8.681
		c2.03,2.017,4.908,2.776,7.721,2.034c1.409-0.383,2.673-1.125,3.668-2.133c1.008-1,1.759-2.275,2.142-3.699l6.712-25.346
		c1.107-4.158-0.026-8.443-3.03-11.447c-3-2.994-7.279-4.127-11.448-3.021l-25.339,6.712c-2.839,0.736-5.075,2.981-5.833,5.807
		c-0.754,2.812,0.009,5.689,2.039,7.721l8.917,8.921c-27.335,29.759-32.53,73-13.228,108.301c-4.771,4.779-8.042,8.063-10.157,10.17
		c2.928-2.938,7.229-7.225,10.157-10.167l0,0c-2.481,2.501-6.578,6.589-12.853,12.867c-7.489,7.483,1.865,16.843,9.345,9.372
		c0.174-0.184,0.394-0.402,0.661-0.665c-0.254,0.259-0.482,0.481-0.661,0.665c0.005-0.014,0.009-0.014,0.009-0.014
		c4.829-4.834,8.354-8.358,10.862-10.866c4.888,6.448,10.707,12.366,18.459,18.312c-7.926,7.936-11.068,11.071-11.435,11.446
		c0.059-0.075,0.233-0.241,0.496-0.499c-7.484,7.487,1.826,16.784,9.305,9.305c6.123-6.127,10.175-10.172,12.674-12.68
		C71.199,189.957,92.905,193.736,114.203,190.046z M25.807,19.459l25.336-6.718c1.906-0.5,3.138,0.465,3.575,0.902
		c0.441,0.446,1.415,1.67,0.906,3.57l-6.73,25.286L25.807,19.459z M14.806,161.837c1.812-1.804,4.463-4.463,8.167-8.171l0,0
		C20.304,156.339,17.13,159.518,14.806,161.837z"/>
	<path fill="#FFFFFF" d="M4.809,153.111c-0.535,0.545-1.013,1.015-1.401,1.406C3.777,154.152,4.236,153.684,4.809,153.111z"/>
	<path fill="#FFFFFF" d="M3.408,154.52c-0.321,0.313-0.571,0.563-0.758,0.754C2.845,155.076,3.1,154.816,3.408,154.52z"/>
	<path fill="#FFFFFF" d="M2.274,155.646C2.203,155.727,2.197,155.727,2.274,155.646L2.274,155.646z"/>
	<path fill="#FFFFFF" d="M2.648,155.273c-0.197,0.19-0.313,0.309-0.375,0.373C2.34,155.58,2.475,155.455,2.648,155.273z"/>
	<path fill="#FFFFFF" d="M11.638,165.014C11.562,165.081,11.562,165.091,11.638,165.014L11.638,165.014z"/>
	<path fill="#FFFFFF" d="M12.006,164.635c-0.191,0.201-0.308,0.317-0.37,0.379C11.7,164.941,11.825,164.816,12.006,164.635z"/>
	<path fill="#FFFFFF" d="M12.006,164.635c0.031-0.025,0.067-0.064,0.094-0.089l0,0C12.075,164.566,12.038,164.618,12.006,164.635z"
		/>
</g>
<g>
	<path fill="#FFFFFF" d="M81.984,4.95l1.397,8.051c19.525-3.396,39.424,0.094,56.552,9.686C161.583,35.271,171.276,52.62,173,55.73
		c18.11,32.284,13.536,72.098-11.43,99.49l-8.667-8.661c-2.036-2.035-4.909-2.799-7.721-2.045c-1.41,0.381-2.669,1.125-3.668,2.125
		c-1.018,1.014-1.763,2.28-2.143,3.708l-6.712,25.341c-1.107,4.172,0.027,8.447,3.026,11.447c2.999,3.003,7.284,4.137,11.451,3.034
		l25.341-6.722c2.834-0.75,5.069-2.98,5.828-5.812c0.759-2.808-0.003-5.688-2.039-7.726l-8.912-8.903
		c27.331-29.763,32.526-73.018,13.228-108.324c4.771-4.774,8.042-8.046,10.158-10.161c-2.933,2.932-7.23,7.233-10.158,10.161l0,0
		c2.481-2.489,6.573-6.573,12.854-12.853c7.489-7.489-1.866-16.844-9.346-9.373c-0.174,0.174-0.393,0.384-0.66,0.652
		c0.258-0.26,0.477-0.474,0.66-0.644c-0.01,0-0.01,0-0.01,0c-4.828,4.829-8.354,8.358-10.862,10.858
		c-4.892-6.432-10.711-12.363-18.463-18.313c7.931-7.936,11.072-11.068,11.434-11.441c-0.058,0.07-0.236,0.24-0.495,0.494
		c7.479-7.483-1.826-16.785-9.31-9.305c-6.123,6.123-10.17,10.176-12.674,12.68C124.994,5.039,103.287,1.25,81.984,4.95z
		 M170.385,175.547l-25.336,6.708c-1.91,0.504-3.137-0.46-3.58-0.901c-0.441-0.44-1.409-1.679-0.905-3.574l6.734-25.277
		L170.385,175.547z M181.376,33.164c-1.807,1.799-4.454,4.455-8.167,8.157l0,0C175.888,38.653,179.061,35.489,181.376,33.164z"/>
	<path fill="#FFFFFF" d="M191.382,41.888c0.536-0.549,1.009-1.022,1.402-1.415C192.411,40.839,191.95,41.309,191.382,41.888z"/>
	<path fill="#FFFFFF" d="M192.785,40.473c0.317-0.308,0.571-0.562,0.759-0.75C193.347,39.924,193.093,40.171,192.785,40.473z"/>
	<path fill="#FFFFFF" d="M193.914,39.35C193.989,39.268,193.989,39.268,193.914,39.35L193.914,39.35z"/>
	<path fill="#FFFFFF" d="M193.543,39.723c0.187-0.195,0.312-0.312,0.371-0.375C193.852,39.416,193.717,39.541,193.543,39.723z"/>
	<path fill="#FFFFFF" d="M184.556,29.981C184.625,29.915,184.625,29.915,184.556,29.981L184.556,29.981z"/>
	<path fill="#FFFFFF" d="M184.18,30.36c0.192-0.188,0.313-0.308,0.375-0.379C184.487,30.052,184.358,30.177,184.18,30.36z"/>
	<path fill="#FFFFFF" d="M184.18,30.36c-0.026,0.026-0.063,0.066-0.089,0.099c0-0.009,0-0.009,0-0.009
		C184.118,30.427,184.153,30.387,184.18,30.36z"/>
</g>
<g>
	<path fill="#F18D05" d="M661.265,73.376v45.573c0,2.801-2.268,5.063-5.066,5.063c-2.797,0-5.07-2.265-5.07-5.063V73.376h-13.391
		c-2.447,0-4.461-2.004-4.461-4.46c0-2.448,2.014-4.459,4.461-4.459h36.914c2.447,0,4.461,2.011,4.461,4.459
		c0,2.456-2.014,4.46-4.461,4.46H661.265z"/>
	<path fill="#F18D05" d="M699.37,82.389c14.779,0,17.498,11.374,17.498,17.403c0,3.241,0,6.997-5.34,6.997h-21.604
		c0,6.304,4.459,9.183,10.229,9.183c3.855,0,6.564-1.309,8.658-2.708c0.965-0.613,1.66-0.967,2.799-0.967
		c2.271,0,4.117,1.842,4.117,4.116c0,1.397-0.703,2.536-1.488,3.231c-1.492,1.398-6.123,4.813-14.086,4.813
		c-12.152,0-19.672-6.563-19.672-21.16C680.481,89.906,687.479,82.389,699.37,82.389z M690.187,98.915h17.314
		c0-4.277-2.445-8.485-8.133-8.485C694.292,90.43,690.618,93.319,690.187,98.915z"/>
	<path fill="#F18D05" d="M736.677,93.933c0,6.475,21.525,3.505,21.525,17.934c0,8.224-6.996,12.423-16.008,12.423
		c-7.521,0-13.297-3.414-15.482-6.134c-0.693-0.862-1.049-1.659-1.049-2.709c0-2.274,1.926-4.194,4.201-4.194
		c0.875,0,1.75,0.262,2.707,1.046c2.363,1.932,5.246,3.594,9.623,3.594c3.938,0,6.475-1.056,6.475-3.504
		c0-7.087-21.436-3.412-21.436-18.282c0-7.861,6.563-11.716,14.605-11.716c6.213,0,11.721,2.362,14.164,5.424
		c0.533,0.694,0.877,1.31,0.877,2.617c0,2.273-1.922,4.208-4.197,4.208c-1.219,0-2.012-0.533-2.969-1.228
		c-1.924-1.401-4.289-2.801-7.875-2.801C738.612,90.61,736.677,91.748,736.677,93.933z"/>
	<path fill="#F18D05" d="M772.337,76.265c0-2.537,2.105-4.63,4.643-4.63s4.631,2.093,4.631,4.63v7.351h3.938
		c2.188,0,3.939,1.751,3.939,3.936c0,2.188-1.752,3.938-3.939,3.938h-3.938v21.161c0,2.016,1.75,3.149,3.32,3.149
		c2.275,0,4.121,1.833,4.121,4.106c0,2.275-1.846,4.107-4.121,4.107c-7.781,0-12.594-4.982-12.594-11.89V91.487h-2.002
		c-2.195,0-3.936-1.752-3.936-3.938c0-2.185,1.736-3.936,3.936-3.936h2.002V76.265z"/>
	<path fill="#F18D05" d="M835.731,97.607v21.868c0,2.616-2.096,4.54-4.721,4.54c-2.801,0-4.725-1.924-4.725-4.54V99.357
		c0-4.989-2.012-8.396-7.701-8.396c-6.551,0-8.736,3.847-8.736,9.003v19.51c0,2.615-2.016,4.539-4.732,4.539
		c-2.709,0-4.721-1.924-4.721-4.539V87.632c0-2.619,2.104-4.723,4.721-4.723c2.629,0,4.732,2.104,4.732,4.723
		c1.658-2.528,5.332-5.243,11.193-5.243C832.931,82.389,835.731,89.996,835.731,97.607z"/>
	<path fill="#F18D05" d="M865.519,82.389c14.779,0,17.498,11.374,17.498,17.403c0,3.241,0,6.997-5.336,6.997h-21.604
		c0,6.304,4.461,9.183,10.229,9.183c3.855,0,6.564-1.309,8.66-2.708c0.965-0.613,1.66-0.967,2.797-0.967
		c2.275,0,4.119,1.842,4.119,4.116c0,1.397-0.705,2.536-1.488,3.231c-1.492,1.398-6.123,4.813-14.088,4.813
		c-12.15,0-19.672-6.563-19.672-21.16C846.634,89.906,853.63,82.389,865.519,82.389z M856.337,98.915h17.318
		c0-4.277-2.445-8.485-8.137-8.485C860.446,90.43,856.771,93.319,856.337,98.915z"/>
	<path fill="#F18D05" d="M896.972,76.265c0-2.537,2.104-4.63,4.643-4.63s4.631,2.093,4.631,4.63v7.351h3.938
		c2.189,0,3.938,1.751,3.938,3.936c0,2.188-1.748,3.938-3.938,3.938h-3.938v21.161c0,2.016,1.752,3.149,3.324,3.149
		c2.275,0,4.115,1.833,4.115,4.106c0,2.275-1.84,4.107-4.115,4.107c-7.787,0-12.598-4.982-12.598-11.89V91.487h-2.002
		c-2.193,0-3.938-1.752-3.938-3.938c0-2.185,1.74-3.936,3.938-3.936h2.002V76.265L896.972,76.265z"/>
</g>
<g>
	<path fill="#FFFFFF" d="M783.2,158.334c-0.658,0.725-1.119,0.92-1.711,0.92c-1.051,0-1.906-0.854-1.906-1.904
		c0-0.461,0.133-0.789,0.33-1.117c1.84-2.892,5.389-5.19,10.908-5.19c7.623,0,11.83,4.468,11.83,11.171v18.071
		c0,1.118-0.92,2.038-2.039,2.038c-1.115,0-2.035-0.92-2.035-2.038v-2.365c-1.645,3.09-5.457,4.731-9.398,4.731
		c-6.965,0-11.369-3.353-11.369-9.397c0-5.781,4.404-9.267,11.502-9.267h9.268v-1.773c0-4.47-2.959-7.229-7.756-7.229
		C787.339,154.982,785.235,156.035,783.2,158.334z M798.577,170.426v-2.76h-9.268c-4.27,0-7.229,1.773-7.229,5.586
		c0,3.418,2.367,5.586,7.492,5.586C794.173,178.838,798.577,176.012,798.577,170.426z"/>
	<path fill="#FFFFFF" d="M814.745,137.109v37.521c0,2.63,0.854,3.746,2.629,3.746c1.053,0,1.973,0.854,1.973,1.973
		c0,1.116-0.92,1.971-1.973,1.971c-4.402,0-6.834-2.629-6.834-7.688v-37.522c0-1.117,0.986-2.104,2.102-2.104
		C813.825,135.006,814.745,135.99,814.745,137.109z"/>
	<path fill="#FFFFFF" d="M829.14,153.537v2.104c1.248-2.234,4.533-4.6,8.938-4.6c8.543,0,13.732,4.994,13.732,15.771
		s-5.189,15.838-13.732,15.838c-4.404,0-7.559-2.367-8.938-4.601v14.853c0,1.117-0.986,2.104-2.104,2.104s-2.104-0.986-2.104-2.104
		v-39.364c0-1.183,0.984-2.103,2.104-2.103C828.153,151.436,829.14,152.355,829.14,153.537z M838.077,178.838
		c6.047,0,9.463-3.813,9.463-12.025c0-8.215-3.549-11.959-9.596-11.959c-4.863,0-8.938,3.416-8.938,11.959
		C829.007,175.29,832.952,178.838,838.077,178.838z"/>
	<path fill="#FFFFFF" d="M883.425,162.673v17.545c0,1.185-0.92,2.104-2.102,2.104c-1.186,0-2.105-0.92-2.105-2.104v-16.69
		c0-5.192-1.51-8.739-7.887-8.739c-6.506,0-8.74,3.94-8.74,9.198v16.231c0,1.185-0.92,2.104-2.104,2.104s-2.102-0.92-2.102-2.104
		v-43.108c0-1.184,0.918-2.104,2.102-2.104s2.104,0.92,2.104,2.104v18.531c1.25-2.498,4.469-4.6,8.74-4.6
		C881.456,151.041,883.425,157.086,883.425,162.673z"/>
	<path fill="#FFFFFF" d="M894.667,158.334c-0.658,0.725-1.119,0.92-1.711,0.92c-1.049,0-1.904-0.854-1.904-1.904
		c0-0.461,0.131-0.789,0.328-1.117c1.84-2.892,5.391-5.19,10.908-5.19c7.625,0,11.83,4.468,11.83,11.171v18.071
		c0,1.118-0.92,2.038-2.037,2.038s-2.037-0.92-2.037-2.038v-2.365c-1.645,3.09-5.455,4.731-9.396,4.731
		c-6.967,0-11.369-3.353-11.369-9.397c0-5.781,4.402-9.267,11.5-9.267h9.266v-1.773c0-4.47-2.957-7.229-7.754-7.229
		C898.806,154.982,896.702,156.035,894.667,158.334z M910.042,170.426v-2.76h-9.266c-4.271,0-7.229,1.773-7.229,5.586
		c0,3.418,2.365,5.586,7.492,5.586C905.64,178.838,910.042,176.012,910.042,170.426z"/>
</g>
</svg>
