<svg version="1.1" id="Layer_1" xmlns="http://www.w3.org/2000/svg" xmlns:xlink="http://www.w3.org/1999/xlink" x="0px" y="0px"
	 width="96px" height="96px" viewBox="0 0 96 96" enable-background="new 0 0 96 96" xml:space="preserve">
<g>
	
		<linearGradient id="SVGID_1_" gradientUnits="userSpaceOnUse" x1="-885.5376" y1="1114.5449" x2="-885.5376" y2="1004.0974" gradientTransform="matrix(0.7071 -0.7071 0.7071 0.7071 -75.5995 -1327.9351)">
		<stop  offset="0" style="stop-color:#1A6DFF"/>
		<stop  offset="1" style="stop-color:#C822FF"/>
	</linearGradient>
	<path fill="url(#SVGID_1_)" d="M62.657,62.648c8.092-8.092,8.092-21.255,0-29.346c-8.089-8.085-21.253-8.085-29.343,0
		c-8.092,8.09-8.092,21.257,0,29.346C41.404,70.738,54.565,70.738,62.657,62.648z M35.982,35.975c6.618-6.622,17.388-6.622,24.01,0
		c6.615,6.616,6.615,17.386-0.005,24.008c-6.616,6.614-17.385,6.614-24.005,0C29.364,53.36,29.364,42.59,35.982,35.975z"/>
	<g>
		
			<linearGradient id="SVGID_2_" gradientUnits="userSpaceOnUse" x1="45.7974" y1="833.4775" x2="45.7974" y2="745.5264" gradientTransform="matrix(1 0 0 1 -16.7197 -740.4775)">
			<stop  offset="0" style="stop-color:#C822FF"/>
			<stop  offset="1" style="stop-color:#1A6DFF"/>
		</linearGradient>
		<path fill="url(#SVGID_2_)" d="M55.434,90.718l-0.643-3.722c-9.014,1.566-18.197-0.044-26.102-4.463
			c-9.994-5.811-14.468-13.819-15.261-15.253c-8.357-14.9-6.25-33.269,5.275-45.92l4.001,4.007c0.937,0.934,2.267,1.284,3.563,0.94
			c0.652-0.176,1.232-0.52,1.695-0.982c0.465-0.463,0.812-1.052,0.985-1.708l3.099-11.698c0.509-1.92-0.012-3.897-1.398-5.284
			c-1.385-1.384-3.361-1.908-5.281-1.392L13.672,8.339c-1.31,0.34-2.343,1.376-2.693,2.679c-0.348,1.296,0.002,2.629,0.939,3.562
			l4.114,4.121C3.417,32.432,1.016,52.388,9.927,68.684c-2.205,2.201-3.716,3.719-4.69,4.694c1.354-1.357,3.339-3.336,4.69-4.694
			l0,0c-1.148,1.153-3.035,3.039-5.935,5.939c-3.454,3.454,0.859,7.771,4.315,4.33c0.08-0.082,0.18-0.185,0.306-0.311
			c-0.117,0.122-0.222,0.225-0.306,0.311c0.002-0.005,0.002-0.005,0.002-0.005c2.232-2.231,3.86-3.859,5.017-5.021
			c2.257,2.979,4.942,5.713,8.519,8.454c-3.659,3.659-5.105,5.108-5.277,5.281c0.029-0.033,0.109-0.109,0.228-0.23
			c-3.449,3.457,0.845,7.745,4.296,4.295c2.827-2.826,4.694-4.695,5.855-5.854C35.586,90.672,45.605,92.42,55.434,90.718z
			 M14.638,11.978l11.694-3.096c0.878-0.232,1.446,0.217,1.649,0.414c0.205,0.204,0.654,0.771,0.421,1.648l-3.11,11.669
			L14.638,11.978z M9.56,77.691c0.834-0.83,2.056-2.058,3.77-3.771l0,0C12.093,75.16,10.633,76.623,9.56,77.691z"/>
		
			<linearGradient id="SVGID_3_" gradientUnits="userSpaceOnUse" x1="21.3379" y1="814.793" x2="21.3379" y2="814.1387" gradientTransform="matrix(1 0 0 1 -16.7197 -740.4775)">
			<stop  offset="0" style="stop-color:#C822FF"/>
			<stop  offset="1" style="stop-color:#1A6DFF"/>
		</linearGradient>
		<path fill="url(#SVGID_3_)" d="M4.943,73.663c-0.25,0.257-0.469,0.474-0.649,0.654C4.467,74.146,4.677,73.928,4.943,73.663z"/>
		
			<linearGradient id="SVGID_4_" gradientUnits="userSpaceOnUse" x1="20.8394" y1="815.1426" x2="20.8394" y2="814.7949" gradientTransform="matrix(1 0 0 1 -16.7197 -740.4775)">
			<stop  offset="0" style="stop-color:#C822FF"/>
			<stop  offset="1" style="stop-color:#1A6DFF"/>
		</linearGradient>
		<path fill="url(#SVGID_4_)" d="M4.293,74.317c-0.145,0.143-0.262,0.26-0.348,0.348C4.036,74.572,4.153,74.456,4.293,74.317z"/>
		
			<linearGradient id="SVGID_5_" gradientUnits="userSpaceOnUse" x1="20.479" y1="815.3389" x2="20.479" y2="815.3125" gradientTransform="matrix(1 0 0 1 -16.7197 -740.4775)">
			<stop  offset="0" style="stop-color:#C822FF"/>
			<stop  offset="1" style="stop-color:#1A6DFF"/>
		</linearGradient>
		<path fill="url(#SVGID_5_)" d="M3.771,74.837C3.738,74.872,3.738,74.872,3.771,74.837L3.771,74.837z"/>
		
			<linearGradient id="SVGID_6_" gradientUnits="userSpaceOnUse" x1="20.5781" y1="815.3125" x2="20.5781" y2="815.1406" gradientTransform="matrix(1 0 0 1 -16.7197 -740.4775)">
			<stop  offset="0" style="stop-color:#C822FF"/>
			<stop  offset="1" style="stop-color:#1A6DFF"/>
		</linearGradient>
		<path fill="url(#SVGID_6_)" d="M3.945,74.665c-0.088,0.088-0.142,0.143-0.174,0.172C3.805,74.808,3.864,74.749,3.945,74.665z"/>
		
			<linearGradient id="SVGID_7_" gradientUnits="userSpaceOnUse" x1="24.8022" y1="819.6592" x2="24.8022" y2="819.6374" gradientTransform="matrix(1 0 0 1 -16.7197 -740.4775)">
			<stop  offset="0" style="stop-color:#C822FF"/>
			<stop  offset="1" style="stop-color:#1A6DFF"/>
		</linearGradient>
		<path fill="url(#SVGID_7_)" d="M8.095,79.16C8.062,79.192,8.062,79.195,8.095,79.16L8.095,79.16z"/>
		
			<linearGradient id="SVGID_8_" gradientUnits="userSpaceOnUse" x1="24.8994" y1="819.6396" x2="24.8994" y2="819.4639" gradientTransform="matrix(1 0 0 1 -16.7197 -740.4775)">
			<stop  offset="0" style="stop-color:#C822FF"/>
			<stop  offset="1" style="stop-color:#1A6DFF"/>
		</linearGradient>
		<path fill="url(#SVGID_8_)" d="M8.265,78.984c-0.084,0.092-0.143,0.146-0.17,0.176C8.125,79.129,8.185,79.068,8.265,78.984z"/>
		
			<linearGradient id="SVGID_9_" gradientUnits="userSpaceOnUse" x1="25.0063" y1="819.4619" x2="25.0063" y2="819.4183" gradientTransform="matrix(1 0 0 1 -16.7197 -740.4775)">
			<stop  offset="0" style="stop-color:#C822FF"/>
			<stop  offset="1" style="stop-color:#1A6DFF"/>
		</linearGradient>
		<path fill="url(#SVGID_9_)" d="M8.265,78.984c0.017-0.013,0.031-0.029,0.044-0.044l0,0C8.296,78.957,8.279,78.977,8.265,78.984z"
			/>
	</g>
	<g>
		
			<linearGradient id="SVGID_10_" gradientUnits="userSpaceOnUse" x1="-1511.686" y1="-1187.3486" x2="-1511.686" y2="-1275.3047" gradientTransform="matrix(-1 0 0 -1 -1444.7627 -1184.3486)">
			<stop  offset="0" style="stop-color:#1A6DFF"/>
			<stop  offset="1" style="stop-color:#C822FF"/>
		</linearGradient>
		<path fill="url(#SVGID_10_)" d="M40.568,5.281L41.213,9c9.011-1.566,18.194,0.045,26.102,4.466
			c9.997,5.81,14.468,13.818,15.263,15.254c8.358,14.899,6.245,33.272-5.275,45.916L73.3,70.637
			c-0.939-0.94-2.268-1.292-3.563-0.942c-0.651,0.176-1.23,0.52-1.694,0.98c-0.469,0.47-0.813,1.052-0.987,1.715l-3.098,11.689
			c-0.507,1.928,0.011,3.906,1.398,5.29c1.385,1.383,3.36,1.906,5.282,1.395l11.694-3.101c1.31-0.34,2.341-1.375,2.69-2.679
			c0.348-1.295-0.004-2.628-0.941-3.563l-4.113-4.111c12.614-13.738,15.016-33.698,6.104-49.997c2.201-2.202,3.714-3.713,4.69-4.69
			c-1.354,1.356-3.339,3.338-4.69,4.69l0,0c1.151-1.148,3.037-3.034,5.938-5.933c3.451-3.456-0.863-7.773-4.319-4.329
			c-0.079,0.08-0.181,0.18-0.308,0.305c0.121-0.121,0.224-0.221,0.308-0.3c-0.002,0-0.002,0-0.005,0
			c-2.227,2.232-3.853,3.858-5.013,5.015c-2.256-2.972-4.942-5.706-8.521-8.453c3.661-3.657,5.107-5.105,5.279-5.277
			c-0.029,0.033-0.109,0.107-0.23,0.228c3.454-3.455-0.841-7.749-4.295-4.294c-2.824,2.824-4.696,4.695-5.855,5.854
			C60.418,5.326,50.396,3.575,40.568,5.281z M81.363,84.024l-11.689,3.092c-0.88,0.228-1.446-0.217-1.653-0.414
			c-0.205-0.207-0.654-0.775-0.417-1.653l3.105-11.671L81.363,84.024z"/>
		
			<linearGradient id="SVGID_11_" gradientUnits="userSpaceOnUse" x1="-1536.1431" y1="-1206.0278" x2="-1536.1431" y2="-1206.6813" gradientTransform="matrix(-1 0 0 -1 -1444.7627 -1184.3486)">
			<stop  offset="0" style="stop-color:#1A6DFF"/>
			<stop  offset="1" style="stop-color:#C822FF"/>
		</linearGradient>
		<path fill="url(#SVGID_11_)" d="M91.055,22.333c0.25-0.251,0.471-0.468,0.651-0.652C91.536,21.852,91.32,22.065,91.055,22.333z"/>
		
			<linearGradient id="SVGID_12_" gradientUnits="userSpaceOnUse" x1="-1536.6436" y1="-1205.6816" x2="-1536.6436" y2="-1206.0277" gradientTransform="matrix(-1 0 0 -1 -1444.7627 -1184.3486)">
			<stop  offset="0" style="stop-color:#1A6DFF"/>
			<stop  offset="1" style="stop-color:#C822FF"/>
		</linearGradient>
		<path fill="url(#SVGID_12_)" d="M91.706,21.68c0.144-0.144,0.262-0.259,0.35-0.347C91.964,21.426,91.847,21.539,91.706,21.68z"/>
		
			<linearGradient id="SVGID_13_" gradientUnits="userSpaceOnUse" x1="-1537.002" y1="-1205.4849" x2="-1537.002" y2="-1205.5111" gradientTransform="matrix(-1 0 0 -1 -1444.7627 -1184.3486)">
			<stop  offset="0" style="stop-color:#1A6DFF"/>
			<stop  offset="1" style="stop-color:#C822FF"/>
		</linearGradient>
		<path fill="url(#SVGID_13_)" d="M92.226,21.162C92.261,21.125,92.264,21.125,92.226,21.162L92.226,21.162z"/>
		
			<linearGradient id="SVGID_14_" gradientUnits="userSpaceOnUse" x1="-1536.9033" y1="-1205.5103" x2="-1536.9033" y2="-1205.6816" gradientTransform="matrix(-1 0 0 -1 -1444.7627 -1184.3486)">
			<stop  offset="0" style="stop-color:#1A6DFF"/>
			<stop  offset="1" style="stop-color:#C822FF"/>
		</linearGradient>
		<path fill="url(#SVGID_14_)" d="M92.056,21.333c0.089-0.088,0.143-0.144,0.17-0.171C92.194,21.192,92.133,21.25,92.056,21.333z"/>
		
			<linearGradient id="SVGID_15_" gradientUnits="userSpaceOnUse" x1="-1532.6821" y1="-1201.1611" x2="-1532.6821" y2="-1201.1837" gradientTransform="matrix(-1 0 0 -1 -1444.7627 -1184.3486)">
			<stop  offset="0" style="stop-color:#1A6DFF"/>
			<stop  offset="1" style="stop-color:#C822FF"/>
		</linearGradient>
		<path fill="url(#SVGID_15_)" d="M87.906,16.837C87.942,16.804,87.942,16.804,87.906,16.837L87.906,16.837z"/>
	</g>
</g>
</svg>
