<svg version="1.1" id="Layer_1" xmlns="http://www.w3.org/2000/svg" xmlns:xlink="http://www.w3.org/1999/xlink" x="0px" y="0px"
	 width="323.553px" height="52.414px" viewBox="0 0 323.553 52.414" enable-background="new 0 0 323.553 52.414"
	 xml:space="preserve">
<linearGradient id="SVGID_1_" gradientUnits="userSpaceOnUse" x1="-572.0291" y1="-160.6099" x2="-572.0291" y2="-109.1405" gradientTransform="matrix(0.7071 -0.7071 -0.7071 -0.7071 337.3231 -472.2918)">
	<stop  offset="0" style="stop-color:#1A6DFF"/>
	<stop  offset="1" style="stop-color:#C822FF"/>
</linearGradient>
<path fill="url(#SVGID_1_)" d="M35.376,34.724c3.771-3.77,3.771-9.904,0-13.674c-3.769-3.768-9.904-3.768-13.674,0
	c-3.77,3.77-3.77,9.905,0,13.674C25.472,38.494,31.606,38.494,35.376,34.724z M22.946,22.295c3.084-3.086,8.102-3.086,11.188,0
	c3.083,3.083,3.083,8.101-0.002,11.187c-3.083,3.083-8.101,3.083-11.186,0C19.862,30.396,19.862,25.378,22.946,22.295z"/>
<g>
	
		<linearGradient id="SVGID_2_" gradientUnits="userSpaceOnUse" x1="28.0881" y1="27.6001" x2="28.0881" y2="68.5854" gradientTransform="matrix(1 0 0 -1 -8.3599 76.4678)">
		<stop  offset="0" style="stop-color:#C822FF"/>
		<stop  offset="1" style="stop-color:#1A6DFF"/>
	</linearGradient>
	<path fill="url(#SVGID_2_)" d="M32.01,47.804l-0.3-1.733c-4.2,0.729-8.479-0.021-12.163-2.081
		c-4.657-2.707-6.742-6.439-7.111-7.107c-3.895-6.943-2.912-15.503,2.458-21.398l1.864,1.867c0.437,0.435,1.057,0.598,1.66,0.438
		c0.304-0.082,0.574-0.242,0.79-0.458c0.217-0.216,0.378-0.49,0.459-0.796l1.445-5.451c0.237-0.895-0.006-1.816-0.652-2.462
		c-0.645-0.645-1.566-0.889-2.461-0.649l-5.45,1.443c-0.61,0.158-1.092,0.641-1.255,1.248c-0.162,0.604,0.001,1.225,0.438,1.66
		l1.917,1.92c-5.878,6.399-6.997,15.698-2.845,23.292c-1.027,1.026-1.731,1.733-2.186,2.187c0.631-0.632,1.556-1.554,2.186-2.187
		l0,0c-0.535,0.537-1.414,1.416-2.766,2.768c-1.609,1.609,0.401,3.621,2.011,2.017c0.037-0.038,0.084-0.086,0.143-0.144
		c-0.055,0.056-0.104,0.104-0.143,0.144c0.001-0.002,0.001-0.002,0.001-0.002c1.04-1.04,1.799-1.798,2.338-2.339
		c1.052,1.387,2.303,2.661,3.97,3.939c-1.705,1.705-2.379,2.381-2.459,2.461c0.013-0.016,0.05-0.051,0.106-0.108
		c-1.607,1.612,0.394,3.61,2.002,2.002c1.317-1.317,2.188-2.188,2.729-2.728C22.761,47.783,27.43,48.597,32.01,47.804z
		 M12.999,11.113l5.449-1.443c0.41-0.108,0.674,0.101,0.769,0.193c0.096,0.095,0.305,0.359,0.196,0.768l-1.449,5.438L12.999,11.113z
		 M10.633,41.735c0.389-0.388,0.958-0.96,1.757-1.758l0,0C11.814,40.554,11.133,41.237,10.633,41.735z"/>
	
		<linearGradient id="SVGID_3_" gradientUnits="userSpaceOnUse" x1="16.6907" y1="36.3062" x2="16.6907" y2="36.6099" gradientTransform="matrix(1 0 0 -1 -8.3599 76.4678)">
		<stop  offset="0" style="stop-color:#C822FF"/>
		<stop  offset="1" style="stop-color:#1A6DFF"/>
	</linearGradient>
	<path fill="url(#SVGID_3_)" d="M8.482,39.858c-0.117,0.118-0.219,0.22-0.303,0.304C8.26,40.082,8.358,39.981,8.482,39.858z"/>
	
		<linearGradient id="SVGID_4_" gradientUnits="userSpaceOnUse" x1="16.4583" y1="36.144" x2="16.4583" y2="36.3062" gradientTransform="matrix(1 0 0 -1 -8.3599 76.4678)">
		<stop  offset="0" style="stop-color:#C822FF"/>
		<stop  offset="1" style="stop-color:#1A6DFF"/>
	</linearGradient>
	<path fill="url(#SVGID_4_)" d="M8.179,40.162c-0.067,0.067-0.122,0.121-0.162,0.162C8.059,40.281,8.114,40.226,8.179,40.162z"/>
	
		<linearGradient id="SVGID_5_" gradientUnits="userSpaceOnUse" x1="16.2898" y1="36.0513" x2="16.2898" y2="36.064" gradientTransform="matrix(1 0 0 -1 -8.3599 76.4678)">
		<stop  offset="0" style="stop-color:#C822FF"/>
		<stop  offset="1" style="stop-color:#1A6DFF"/>
	</linearGradient>
	<path fill="url(#SVGID_5_)" d="M7.936,40.404C7.92,40.421,7.92,40.421,7.936,40.404L7.936,40.404z"/>
	
		<linearGradient id="SVGID_6_" gradientUnits="userSpaceOnUse" x1="16.3367" y1="36.064" x2="16.3367" y2="36.144" gradientTransform="matrix(1 0 0 -1 -8.3599 76.4678)">
		<stop  offset="0" style="stop-color:#C822FF"/>
		<stop  offset="1" style="stop-color:#1A6DFF"/>
	</linearGradient>
	<path fill="url(#SVGID_6_)" d="M8.017,40.324c-0.041,0.041-0.067,0.067-0.081,0.08C7.951,40.39,7.979,40.363,8.017,40.324z"/>
	
		<linearGradient id="SVGID_7_" gradientUnits="userSpaceOnUse" x1="18.3044" y1="34.0376" x2="18.3044" y2="34.0485" gradientTransform="matrix(1 0 0 -1 -8.3599 76.4678)">
		<stop  offset="0" style="stop-color:#C822FF"/>
		<stop  offset="1" style="stop-color:#1A6DFF"/>
	</linearGradient>
	<path fill="url(#SVGID_7_)" d="M9.95,42.419C9.935,42.434,9.935,42.436,9.95,42.419L9.95,42.419z"/>
	
		<linearGradient id="SVGID_8_" gradientUnits="userSpaceOnUse" x1="18.3499" y1="34.0483" x2="18.3499" y2="34.1304" gradientTransform="matrix(1 0 0 -1 -8.3599 76.4678)">
		<stop  offset="0" style="stop-color:#C822FF"/>
		<stop  offset="1" style="stop-color:#1A6DFF"/>
	</linearGradient>
	<path fill="url(#SVGID_8_)" d="M10.03,42.337c-0.04,0.043-0.067,0.068-0.08,0.082C9.964,42.404,9.992,42.376,10.03,42.337z"/>
	
		<linearGradient id="SVGID_9_" gradientUnits="userSpaceOnUse" x1="18.3997" y1="34.1304" x2="18.3997" y2="34.1498" gradientTransform="matrix(1 0 0 -1 -8.3599 76.4678)">
		<stop  offset="0" style="stop-color:#C822FF"/>
		<stop  offset="1" style="stop-color:#1A6DFF"/>
	</linearGradient>
	<path fill="url(#SVGID_9_)" d="M10.03,42.337c0.007-0.006,0.014-0.014,0.02-0.02l0,0C10.044,42.324,10.036,42.333,10.03,42.337z"/>
</g>
<g>
	
		<linearGradient id="SVGID_10_" gradientUnits="userSpaceOnUse" x1="-975.7664" y1="1312.3315" x2="-975.7664" y2="1353.3188" gradientTransform="matrix(-1 0 0 1 -938.4028 -1305.4033)">
		<stop  offset="0" style="stop-color:#1A6DFF"/>
		<stop  offset="1" style="stop-color:#C822FF"/>
	</linearGradient>
	<path fill="url(#SVGID_10_)" d="M25.082,7.992l0.301,1.733c4.199-0.73,8.479,0.021,12.163,2.081
		c4.658,2.707,6.742,6.439,7.112,7.108c3.895,6.943,2.911,15.505-2.458,21.396l-1.865-1.863c-0.437-0.438-1.056-0.602-1.66-0.439
		c-0.304,0.082-0.573,0.242-0.79,0.457c-0.218,0.218-0.379,0.49-0.46,0.798l-1.443,5.448c-0.237,0.898,0.005,1.82,0.651,2.465
		c0.646,0.645,1.566,0.889,2.462,0.65l5.449-1.445c0.611-0.159,1.091-0.641,1.254-1.248c0.162-0.604-0.002-1.225-0.438-1.661
		l-1.917-1.916c5.878-6.401,6.997-15.702,2.844-23.297c1.026-1.026,1.731-1.73,2.186-2.186c-0.631,0.632-1.556,1.556-2.186,2.186
		l0,0c0.536-0.535,1.415-1.414,2.767-2.765c1.608-1.61-0.402-3.622-2.013-2.017c-0.037,0.037-0.084,0.084-0.143,0.142
		c0.056-0.056,0.104-0.103,0.143-0.14c-0.001,0-0.001,0-0.002,0c-1.038,1.04-1.796,1.798-2.336,2.337
		c-1.051-1.385-2.303-2.659-3.97-3.939c1.706-1.704,2.38-2.379,2.46-2.459c-0.014,0.015-0.051,0.05-0.108,0.106
		c1.61-1.61-0.391-3.611-2.001-2.001c-1.316,1.316-2.188,2.188-2.728,2.728C34.332,8.013,29.662,7.197,25.082,7.992z M44.093,44.685
		l-5.447,1.441c-0.41,0.107-0.674-0.1-0.771-0.193c-0.095-0.096-0.304-0.361-0.194-0.77l1.447-5.438L44.093,44.685z M46.459,14.061
		c-0.389,0.388-0.959,0.958-1.757,1.756l0,0C45.278,15.242,45.959,14.561,46.459,14.061z"/>
	
		<linearGradient id="SVGID_11_" gradientUnits="userSpaceOnUse" x1="-987.1633" y1="1321.0366" x2="-987.1633" y2="1321.3413" gradientTransform="matrix(-1 0 0 1 -938.4028 -1305.4033)">
		<stop  offset="0" style="stop-color:#1A6DFF"/>
		<stop  offset="1" style="stop-color:#C822FF"/>
	</linearGradient>
	<path fill="url(#SVGID_11_)" d="M48.609,15.938c0.117-0.117,0.219-0.218,0.303-0.304C48.833,15.714,48.733,15.813,48.609,15.938z"
		/>
	
		<linearGradient id="SVGID_12_" gradientUnits="userSpaceOnUse" x1="-987.3962" y1="1320.8755" x2="-987.3962" y2="1321.0366" gradientTransform="matrix(-1 0 0 1 -938.4028 -1305.4033)">
		<stop  offset="0" style="stop-color:#1A6DFF"/>
		<stop  offset="1" style="stop-color:#C822FF"/>
	</linearGradient>
	<path fill="url(#SVGID_12_)" d="M48.912,15.634c0.068-0.067,0.122-0.121,0.163-0.162C49.032,15.515,48.978,15.568,48.912,15.634z"
		/>
	
		<linearGradient id="SVGID_13_" gradientUnits="userSpaceOnUse" x1="-987.5642" y1="1320.7837" x2="-987.5642" y2="1320.7959" gradientTransform="matrix(-1 0 0 1 -938.4028 -1305.4033)">
		<stop  offset="0" style="stop-color:#1A6DFF"/>
		<stop  offset="1" style="stop-color:#C822FF"/>
	</linearGradient>
	<path fill="url(#SVGID_13_)" d="M49.155,15.392C49.171,15.375,49.172,15.375,49.155,15.392L49.155,15.392z"/>
	
		<linearGradient id="SVGID_14_" gradientUnits="userSpaceOnUse" x1="-987.5178" y1="1320.7954" x2="-987.5178" y2="1320.8755" gradientTransform="matrix(-1 0 0 1 -938.4028 -1305.4033)">
		<stop  offset="0" style="stop-color:#1A6DFF"/>
		<stop  offset="1" style="stop-color:#C822FF"/>
	</linearGradient>
	<path fill="url(#SVGID_14_)" d="M49.075,15.472c0.041-0.041,0.067-0.067,0.08-0.08C49.14,15.406,49.112,15.433,49.075,15.472z"/>
	
		<linearGradient id="SVGID_15_" gradientUnits="userSpaceOnUse" x1="-985.551" y1="1318.769" x2="-985.551" y2="1318.7794" gradientTransform="matrix(-1 0 0 1 -938.4028 -1305.4033)">
		<stop  offset="0" style="stop-color:#1A6DFF"/>
		<stop  offset="1" style="stop-color:#C822FF"/>
	</linearGradient>
	<path fill="url(#SVGID_15_)" d="M47.142,13.377C47.158,13.362,47.158,13.362,47.142,13.377L47.142,13.377z"/>
	
		<linearGradient id="SVGID_16_" gradientUnits="userSpaceOnUse" x1="-985.5046" y1="1318.7798" x2="-985.5046" y2="1318.8618" gradientTransform="matrix(-1 0 0 1 -938.4028 -1305.4033)">
		<stop  offset="0" style="stop-color:#1A6DFF"/>
		<stop  offset="1" style="stop-color:#C822FF"/>
	</linearGradient>
	<path fill="url(#SVGID_16_)" d="M47.061,13.459c0.041-0.041,0.066-0.066,0.081-0.082C47.128,13.393,47.1,13.42,47.061,13.459z"/>
	
		<linearGradient id="SVGID_17_" gradientUnits="userSpaceOnUse" x1="-985.4539" y1="1318.8618" x2="-985.4539" y2="1318.8833" gradientTransform="matrix(-1 0 0 1 -938.4028 -1305.4033)">
		<stop  offset="0" style="stop-color:#1A6DFF"/>
		<stop  offset="1" style="stop-color:#C822FF"/>
	</linearGradient>
	<path fill="url(#SVGID_17_)" d="M47.061,13.459c-0.005,0.006-0.014,0.014-0.021,0.021c0-0.002,0-0.002,0-0.002
		C47.048,13.473,47.055,13.465,47.061,13.459z"/>
</g>
<g>
	<path fill="#231F20" d="M64.8,12.349c0-1.332,0.644-1.837,1.745-1.837c1.103,0,1.745,0.505,1.745,1.837
		c0,1.102-0.643,1.745-1.745,1.745C65.443,14.094,64.8,13.451,64.8,12.349z M68.015,38.528c0,0.827-0.644,1.47-1.471,1.47
		s-1.47-0.643-1.47-1.47V19.881c0-0.827,0.643-1.47,1.47-1.47s1.471,0.643,1.471,1.47V38.528z"/>
	<path fill="#231F20" d="M88.086,21.122V8.399c0-0.827,0.644-1.47,1.471-1.47c0.826,0,1.47,0.643,1.47,1.47v22.78
		c0,6.063-3.767,9.048-9.002,9.048c-5.925,0-9.416-3.536-9.416-11.067c0-7.533,3.307-11.024,9.231-11.024
		C84.78,18.136,87.03,19.652,88.086,21.122z M88.086,24.842c0,0-1.745-4.042-6.063-4.042c-4.181,0-6.477,2.71-6.477,8.36
		c0,5.74,2.25,8.404,6.477,8.404c3.537,0,6.063-2.021,6.063-6.385V24.842z"/>
	<path fill="#231F20" d="M99.341,23.234c-0.459,0.505-0.78,0.643-1.193,0.643c-0.735,0-1.332-0.597-1.332-1.332
		c0-0.322,0.092-0.551,0.229-0.781c1.286-2.021,3.767-3.628,7.624-3.628c5.328,0,8.269,3.123,8.269,7.808v12.63
		c0,0.781-0.644,1.424-1.424,1.424c-0.781,0-1.425-0.643-1.425-1.424v-1.652c-1.147,2.158-3.812,3.307-6.567,3.307
		c-4.869,0-7.946-2.342-7.946-6.566c0-4.043,3.077-6.477,8.038-6.477h6.476v-1.241c0-3.123-2.066-5.052-5.42-5.052
		C102.235,20.892,100.765,21.627,99.341,23.234z M110.089,31.686v-1.931h-6.476c-2.985,0-5.052,1.24-5.052,3.904
		c0,2.389,1.652,3.904,5.235,3.904C107.012,37.564,110.089,35.589,110.089,31.686z"/>
	<path fill="#231F20" d="M121.39,19.881v1.47c0.873-1.562,3.169-3.215,6.247-3.215c5.971,0,9.599,3.491,9.599,11.024
		c0,7.531-3.628,11.067-9.599,11.067c-3.078,0-5.282-1.653-6.247-3.215v10.38c0,0.781-0.689,1.47-1.471,1.47
		c-0.78,0-1.47-0.688-1.47-1.47V19.881c0-0.827,0.689-1.47,1.47-1.47C120.701,18.411,121.39,19.055,121.39,19.881z M127.636,37.564
		c4.225,0,6.613-2.664,6.613-8.404c0-5.742-2.479-8.36-6.706-8.36c-3.397,0-6.246,2.389-6.246,8.36
		C121.298,35.083,124.054,37.564,127.636,37.564z"/>
	<path fill="#231F20" d="M138.524,37.839c0-1.516,0.827-2.205,2.159-2.205s2.158,0.689,2.158,2.205c0,1.517-0.826,2.158-2.158,2.158
		S138.524,39.355,138.524,37.839z"/>
	<path fill="#231F20" d="M155.426,18.136c7.35,0,8.772,5.833,8.772,8.956c0,1.332,0,2.939-1.837,2.939H148.95
		c0,4.549,2.618,7.487,6.937,7.487c2.663,0,4.225-1.011,5.511-1.976c0.275-0.185,0.459-0.275,0.827-0.275
		c0.734,0,1.332,0.598,1.332,1.332c0,0.505-0.229,0.779-0.506,1.057c-0.688,0.688-3.076,2.571-7.164,2.571
		c-6.109,0-9.922-3.353-9.922-11.067C145.965,22.086,149.456,18.136,155.426,18.136z M155.426,20.8
		c-3.995,0-6.199,2.572-6.476,6.661h12.355C161.305,24.153,160.157,20.8,155.426,20.8z"/>
	<path fill="#231F20" d="M175.224,31.271l-5.742,8.13c-0.275,0.413-0.781,0.597-1.194,0.597c-0.827,0-1.47-0.643-1.47-1.47
		c0-0.321,0.092-0.644,0.276-0.872l6.292-8.681l-6.108-8.222c-0.138-0.229-0.275-0.459-0.275-0.873c0-0.827,0.644-1.47,1.471-1.47
		c0.505,0,0.918,0.229,1.193,0.597l5.559,7.624l5.557-7.624c0.275-0.368,0.689-0.597,1.195-0.597c0.826,0,1.469,0.643,1.469,1.47
		c0,0.414-0.139,0.643-0.275,0.873l-6.108,8.222l6.293,8.681c0.184,0.229,0.274,0.551,0.274,0.872c0,0.827-0.643,1.47-1.469,1.47
		c-0.414,0-0.92-0.184-1.195-0.597L175.224,31.271z"/>
	<path fill="#231F20" d="M195.755,18.136c4.088,0,6.338,2.159,7.072,3.169c0.23,0.322,0.322,0.551,0.322,0.873
		c0,0.781-0.599,1.332-1.332,1.332c-0.459,0-0.781-0.184-1.103-0.551c-0.688-0.781-1.93-2.159-4.961-2.159
		c-4.225,0-6.477,2.71-6.477,8.36c0,5.74,2.252,8.404,6.477,8.404c2.664,0,4.271-1.193,5.328-1.977
		c0.32-0.229,0.551-0.32,0.873-0.32c0.734,0,1.332,0.598,1.332,1.332c0,0.413-0.139,0.734-0.598,1.148
		c-1.01,0.826-3.215,2.479-6.937,2.479c-5.924,0-9.461-3.536-9.461-11.068C186.292,21.626,189.832,18.136,195.755,18.136z"/>
	<path fill="#231F20" d="M224.968,26.266v12.263c0,0.827-0.643,1.471-1.469,1.471c-0.828,0-1.471-0.644-1.471-1.471V26.862
		c0-3.628-1.057-6.108-5.512-6.108c-4.547,0-6.107,2.756-6.107,6.431v11.344c0,0.827-0.643,1.471-1.471,1.471
		c-0.826,0-1.469-0.644-1.469-1.471V8.399c0-0.827,0.643-1.47,1.469-1.47c0.828,0,1.471,0.643,1.471,1.47v12.952
		c0.873-1.745,3.123-3.215,6.107-3.215C223.591,18.136,224.968,22.361,224.968,26.266z"/>
	<path fill="#231F20" d="M232.826,23.234c-0.461,0.505-0.781,0.643-1.195,0.643c-0.733,0-1.332-0.597-1.332-1.332
		c0-0.322,0.093-0.551,0.23-0.781c1.285-2.021,3.766-3.628,7.623-3.628c5.328,0,8.268,3.123,8.268,7.808v12.63
		c0,0.781-0.643,1.424-1.424,1.424s-1.424-0.643-1.424-1.424v-1.652c-1.148,2.158-3.813,3.307-6.568,3.307
		c-4.866,0-7.944-2.342-7.944-6.566c0-4.043,3.078-6.477,8.039-6.477h6.475v-1.241c0-3.123-2.066-5.052-5.42-5.052
		C235.718,20.892,234.25,21.627,232.826,23.234z M243.572,31.686v-1.931h-6.475c-2.986,0-5.054,1.24-5.054,3.904
		c0,2.389,1.652,3.904,5.236,3.904C240.496,37.564,243.572,35.589,243.572,31.686z"/>
	<path fill="#231F20" d="M269.433,26.266v12.263c0,0.827-0.644,1.471-1.47,1.471c-0.827,0-1.471-0.644-1.471-1.471V26.862
		c0-3.628-1.057-6.108-5.512-6.108c-4.547,0-6.107,2.756-6.107,6.431v11.344c0,0.827-0.643,1.471-1.471,1.471
		c-0.826,0-1.469-0.644-1.469-1.471V19.881c0-0.827,0.643-1.47,1.469-1.47c0.828,0,1.471,0.643,1.471,1.47v1.47
		c0.873-1.745,3.123-3.215,6.107-3.215C268.056,18.136,269.433,22.361,269.433,26.266z"/>
	<path fill="#231F20" d="M289.277,40.044v-2.617c-1.103,1.423-3.215,2.801-6.199,2.801c-5.971,0-9.508-3.49-9.508-11.021
		c0-7.533,3.537-11.069,9.508-11.069c5.234,0,9.187,3.031,9.187,9.094v12.813c0,6.246-4.271,8.817-9.416,8.817
		c-3.582,0-6.154-1.331-7.67-3.169c-0.14-0.184-0.275-0.459-0.275-0.826c0-0.781,0.643-1.424,1.424-1.424
		c0.367,0,0.688,0.092,1.103,0.506c1.057,1.057,2.524,2.157,5.42,2.157C286.613,46.106,289.277,44.224,289.277,40.044z
		 M289.277,27.23c0-4.364-2.756-6.431-6.199-6.431c-4.227,0-6.567,2.664-6.567,8.406c0,5.648,2.342,8.358,6.567,8.358
		c4.316,0,6.199-3.722,6.199-3.722V27.23z"/>
	<path fill="#231F20" d="M305.769,18.136c7.348,0,8.771,5.833,8.771,8.956c0,1.332,0,2.939-1.838,2.939h-13.41
		c0,4.549,2.617,7.487,6.937,7.487c2.664,0,4.225-1.011,5.512-1.976c0.275-0.185,0.459-0.275,0.826-0.275
		c0.734,0,1.332,0.598,1.332,1.332c0,0.505-0.229,0.779-0.506,1.057c-0.689,0.688-3.076,2.571-7.164,2.571
		c-6.109,0-9.922-3.353-9.922-11.067C296.306,22.086,299.796,18.136,305.769,18.136z M305.769,20.8
		c-3.996,0-6.201,2.572-6.478,6.661h12.355C311.648,24.153,310.501,20.8,305.769,20.8z"/>
</g>
</svg>
