<svg version="1.1" id="Layer_1" xmlns="http://www.w3.org/2000/svg" xmlns:xlink="http://www.w3.org/1999/xlink" x="0px" y="0px"
	 width="100%" height="100%" viewBox="13.7 385.478 563.546 77.16" enable-background="new 13.7 385.478 563.546 77.16"
	 xml:space="preserve">
<g>
	<path fill="#FFFFFF" d="M119.205,395.598c0-2.441,1.184-3.369,3.202-3.369c2.018,0,3.201,0.927,3.201,3.369
		c0,2.024-1.184,3.201-3.201,3.201C120.389,398.799,119.205,397.62,119.205,395.598z M125.105,443.623
		c0,1.514-1.18,2.695-2.695,2.695c-1.519,0-2.696-1.182-2.696-2.695v-34.208c0-1.517,1.18-2.697,2.696-2.697
		c1.516,0,2.695,1.181,2.695,2.697V443.623z"/>
	<path fill="#FFFFFF" d="M161.919,411.69v-23.338c0-1.518,1.181-2.697,2.697-2.697c1.516,0,2.695,1.18,2.695,2.697v41.786
		c0,11.122-6.907,16.597-16.515,16.597c-10.867,0-17.273-6.485-17.273-20.304c0-13.817,6.067-20.22,16.936-20.22
		C155.853,406.214,159.984,408.993,161.919,411.69z M161.919,418.517c0,0-3.199-7.415-11.12-7.415
		c-7.668,0-11.882,4.97-11.882,15.334c0,10.532,4.129,15.417,11.882,15.417c6.485,0,11.12-3.707,11.12-11.708V418.517z"/>
	<path fill="#FFFFFF" d="M182.557,415.565c-0.841,0.928-1.434,1.18-2.191,1.18c-1.347,0-2.441-1.097-2.441-2.441
		c0-0.589,0.167-1.013,0.421-1.434c2.36-3.707,6.91-6.654,13.986-6.654c9.775,0,15.166,5.729,15.166,14.321v23.172
		c0,1.43-1.18,2.609-2.609,2.609c-1.433,0-2.612-1.18-2.612-2.609v-3.035c-2.108,3.957-6.993,6.065-12.049,6.065
		c-8.931,0-14.575-4.296-14.575-12.047c0-7.415,5.643-11.88,14.744-11.88h11.882v-2.275c0-5.728-3.794-9.268-9.944-9.268
		C187.866,411.268,185.169,412.618,182.557,415.565z M202.274,431.066v-3.54h-11.882c-5.477,0-9.269,2.275-9.269,7.166
		c0,4.381,3.034,7.16,9.604,7.16C196.629,441.851,202.274,438.23,202.274,431.066z"/>
	<path fill="#FFFFFF" d="M222.995,409.415v2.697c1.601-2.868,5.814-5.898,11.459-5.898c10.956,0,17.606,6.402,17.606,20.22
		c0,13.818-6.65,20.304-17.606,20.304c-5.643,0-9.69-3.032-11.459-5.896v19.042c0,1.432-1.266,2.695-2.697,2.695
		c-1.429,0-2.693-1.264-2.693-2.695v-50.468c0-1.517,1.267-2.697,2.693-2.697C221.732,406.72,222.995,407.898,222.995,409.415z
		 M234.452,441.851c7.753,0,12.136-4.883,12.136-15.417c0-10.531-4.554-15.333-12.305-15.333c-6.233,0-11.457,4.38-11.457,15.333
		C222.828,437.305,227.88,441.851,234.452,441.851z"/>
	<path fill="#FFFFFF" d="M254.416,442.358c0-2.783,1.518-4.046,3.963-4.046c2.441,0,3.958,1.267,3.958,4.046
		c0,2.78-1.517,3.958-3.958,3.958C255.934,446.318,254.416,445.137,254.416,442.358z"/>
	<path fill="#FFFFFF" d="M285.423,406.214c13.477,0,16.089,10.7,16.089,16.426c0,2.447,0,5.396-3.37,5.396h-24.601
		c0,8.338,4.8,13.733,12.719,13.733c4.889,0,7.757-1.855,10.113-3.624c0.504-0.339,0.843-0.502,1.515-0.502
		c1.347,0,2.444,1.093,2.444,2.441c0,0.925-0.421,1.43-0.925,1.938c-1.266,1.267-5.646,4.716-13.147,4.716
		c-11.206,0-18.199-6.15-18.199-20.304C268.064,413.459,274.467,406.214,285.423,406.214z M285.423,411.101
		c-7.332,0-11.376,4.717-11.882,12.216h22.663C296.208,417.249,294.1,411.101,285.423,411.101z"/>
	<path fill="#FFFFFF" d="M321.73,430.308l-10.531,14.912c-0.504,0.758-1.434,1.097-2.191,1.097c-1.514,0-2.693-1.182-2.693-2.695
		c0-0.589,0.167-1.182,0.504-1.603l11.54-15.922l-11.207-15.079c-0.25-0.422-0.504-0.843-0.504-1.601
		c0-1.517,1.182-2.697,2.695-2.697c0.929,0,1.688,0.421,2.189,1.097l10.196,13.986l10.194-13.986
		c0.506-0.674,1.266-1.097,2.189-1.097c1.516,0,2.699,1.181,2.699,2.697c0,0.758-0.254,1.179-0.508,1.601l-11.207,15.079
		l11.545,15.922c0.337,0.421,0.503,1.014,0.503,1.603c0,1.514-1.182,2.695-2.695,2.695c-0.76,0-1.688-0.339-2.188-1.097
		L321.73,430.308z"/>
	<path fill="#FFFFFF" d="M359.387,406.214c7.497,0,11.624,3.959,12.979,5.813c0.421,0.589,0.587,1.012,0.587,1.601
		c0,1.43-1.099,2.441-2.443,2.441c-0.845,0-1.432-0.337-2.024-1.012c-1.266-1.43-3.537-3.957-9.098-3.957
		c-7.753,0-11.882,4.969-11.882,15.333c0,10.534,4.129,15.417,11.882,15.417c4.885,0,7.836-2.188,9.775-3.622
		c0.589-0.422,1.012-0.589,1.601-0.589c1.345,0,2.439,1.097,2.439,2.443c0,0.758-0.252,1.347-1.095,2.106
		c-1.856,1.516-5.9,4.552-12.723,4.552c-10.867,0-17.358-6.487-17.358-20.305C342.027,412.62,348.518,406.214,359.387,406.214z"/>
	<path fill="#FFFFFF" d="M412.97,421.127v22.496c0,1.516-1.179,2.695-2.697,2.695c-1.516,0-2.695-1.18-2.695-2.695v-21.401
		c0-6.656-1.94-11.206-10.111-11.206c-8.34,0-11.206,5.054-11.206,11.795v20.813c0,1.514-1.182,2.695-2.695,2.695
		c-1.519,0-2.699-1.182-2.699-2.695v-55.271c0-1.518,1.181-2.697,2.699-2.697c1.514,0,2.695,1.18,2.695,2.697v23.76
		c1.601-3.201,5.73-5.898,11.206-5.898C410.441,406.214,412.97,413.965,412.97,421.127z"/>
	<path fill="#FFFFFF" d="M427.372,415.565c-0.843,0.928-1.43,1.18-2.188,1.18c-1.347,0-2.443-1.097-2.443-2.441
		c0-0.589,0.167-1.013,0.421-1.434c2.359-3.707,6.909-6.654,13.99-6.654c9.773,0,15.164,5.729,15.164,14.321v23.172
		c0,1.43-1.182,2.609-2.612,2.609c-1.432,0-2.613-1.18-2.613-2.609v-3.035c-2.106,3.957-6.993,6.065-12.051,6.065
		c-8.93,0-14.575-4.296-14.575-12.047c0-7.415,5.646-11.88,14.748-11.88h11.878v-2.275c0-5.728-3.791-9.268-9.938-9.268
		C432.678,411.268,429.983,412.618,427.372,415.565z M447.086,431.066v-3.54h-11.878c-5.479,0-9.268,2.275-9.268,7.166
		c0,4.381,3.03,7.16,9.605,7.16C441.44,441.851,447.086,438.23,447.086,431.066z"/>
	<path fill="#FFFFFF" d="M494.52,421.127v22.496c0,1.516-1.181,2.695-2.698,2.695c-1.515,0-2.695-1.18-2.695-2.695v-21.401
		c0-6.656-1.941-11.206-10.112-11.206c-8.34,0-11.206,5.054-11.206,11.795v20.813c0,1.514-1.182,2.695-2.695,2.695
		c-1.518,0-2.699-1.182-2.699-2.695v-34.208c0-1.517,1.182-2.697,2.699-2.697c1.514,0,2.695,1.181,2.695,2.697v2.697
		c1.601-3.201,5.729-5.898,11.206-5.898C491.99,406.214,494.52,413.965,494.52,421.127z"/>
	<path fill="#FFFFFF" d="M530.91,446.399v-4.801c-2.026,2.613-5.896,5.141-11.376,5.141c-10.95,0-17.439-6.4-17.439-20.22
		c0-13.816,6.489-20.304,17.439-20.304c9.607,0,16.851,5.56,16.851,16.682v23.502c0,11.46-7.837,16.177-17.273,16.177
		c-6.572,0-11.289-2.443-14.067-5.81c-0.254-0.339-0.506-0.845-0.506-1.517c0-1.433,1.181-2.612,2.612-2.612
		c0.675,0,1.266,0.168,2.023,0.928c1.939,1.938,4.637,3.955,9.941,3.955C526.026,457.521,530.91,454.067,530.91,446.399z
		 M530.91,422.897c0-8.006-5.053-11.796-11.376-11.796c-7.751,0-12.051,4.885-12.051,15.418c0,10.366,4.3,15.333,12.051,15.333
		c7.924,0,11.376-6.823,11.376-6.823V422.897z"/>
	<path fill="#FFFFFF" d="M561.155,406.214c13.479,0,16.092,10.7,16.092,16.426c0,2.447,0,5.396-3.369,5.396h-24.604
		c0,8.338,4.802,13.733,12.721,13.733c4.888,0,7.756-1.855,10.111-3.624c0.504-0.339,0.847-0.502,1.516-0.502
		c1.347,0,2.443,1.093,2.443,2.441c0,0.925-0.421,1.43-0.925,1.938c-1.267,1.267-5.645,4.716-13.147,4.716
		c-11.207,0-18.2-6.15-18.2-20.304C543.796,413.459,550.198,406.214,561.155,406.214z M561.155,411.101
		c-7.329,0-11.375,4.717-11.881,12.216h22.664C571.94,417.249,569.831,411.101,561.155,411.101z"/>
</g>
<path fill="#FFFFFF" d="M65.085,436.615c6.938-6.937,6.938-18.222,0-25.158c-6.934-6.933-18.222-6.933-25.157,0
	c-6.937,6.937-6.937,18.224,0,25.158C46.864,443.551,58.15,443.551,65.085,436.615z M42.217,413.748
	c5.674-5.678,14.906-5.678,20.583,0c5.673,5.672,5.673,14.904-0.003,20.582c-5.673,5.672-14.904,5.672-20.58,0
	C36.542,428.652,36.542,419.42,42.217,413.748z"/>
<g>
	<path fill="#FFFFFF" d="M58.893,460.68l-0.552-3.188c-7.728,1.342-15.601-0.038-22.378-3.828
		c-8.568-4.98-12.404-11.847-13.083-13.076c-7.166-12.773-5.357-28.522,4.522-39.368l3.429,3.435
		c0.805,0.801,1.945,1.101,3.055,0.806c0.56-0.15,1.056-0.445,1.453-0.843c0.399-0.397,0.695-0.901,0.845-1.464l2.658-10.029
		c0.437-1.646-0.011-3.341-1.199-4.529c-1.187-1.187-2.881-1.636-4.528-1.194l-10.026,2.655c-1.122,0.291-2.01,1.179-2.31,2.296
		c-0.298,1.111,0.002,2.254,0.807,3.054l3.526,3.533c-10.814,11.772-12.873,28.881-5.234,42.853
		c-1.89,1.888-3.185,3.188-4.021,4.023c1.161-1.162,2.862-2.858,4.021-4.023l0,0c-0.984,0.988-2.602,2.605-5.089,5.093
		c-2.96,2.96,0.738,6.662,3.7,3.711c0.068-0.07,0.154-0.158,0.263-0.265c-0.101,0.103-0.191,0.191-0.263,0.265
		c0.002-0.004,0.002-0.004,0.002-0.004c1.913-1.913,3.31-3.308,4.301-4.303c1.936,2.552,4.237,4.896,7.305,7.247
		c-3.137,3.137-4.377,4.38-4.524,4.527c0.024-0.029,0.092-0.094,0.195-0.198c-2.957,2.966,0.725,6.642,3.684,3.683
		c2.423-2.423,4.025-4.025,5.021-5.019C41.876,460.641,50.466,462.139,58.893,460.68z M23.916,393.175l10.024-2.655
		c0.755-0.199,1.24,0.186,1.415,0.355c0.177,0.175,0.562,0.661,0.36,1.413l-2.665,10.005L23.916,393.175z M19.563,449.514
		c0.716-0.714,1.763-1.766,3.232-3.234l0,0C21.736,447.341,20.483,448.598,19.563,449.514z"/>
	<path fill="#FFFFFF" d="M15.606,446.061c-0.216,0.217-0.403,0.404-0.558,0.56C15.197,446.473,15.377,446.287,15.606,446.061z"/>
	<path fill="#FFFFFF" d="M15.048,446.62c-0.123,0.123-0.225,0.223-0.298,0.298C14.827,446.839,14.928,446.737,15.048,446.62z"/>
	<path fill="#FFFFFF" d="M14.601,447.065C14.572,447.097,14.572,447.097,14.601,447.065L14.601,447.065z"/>
	<path fill="#FFFFFF" d="M14.75,446.918c-0.076,0.075-0.124,0.123-0.149,0.147C14.628,447.039,14.68,446.989,14.75,446.918z"/>
	<path fill="#FFFFFF" d="M18.306,450.772C18.279,450.8,18.279,450.804,18.306,450.772L18.306,450.772z"/>
	<path fill="#FFFFFF" d="M18.453,450.621c-0.073,0.079-0.123,0.125-0.147,0.151C18.332,450.745,18.383,450.693,18.453,450.621z"/>
	<path fill="#FFFFFF" d="M18.453,450.621c0.013-0.011,0.025-0.025,0.037-0.036l0,0C18.479,450.598,18.464,450.614,18.453,450.621z"
		/>
</g>
<g>
	<path fill="#FFFFFF" d="M46.147,387.433l0.554,3.188c7.726-1.343,15.6,0.039,22.378,3.829c8.569,4.98,12.403,11.847,13.084,13.078
		c7.167,12.773,5.356,28.526-4.521,39.365l-3.432-3.428c-0.804-0.807-1.942-1.107-3.054-0.808c-0.56,0.15-1.055,0.444-1.454,0.841
		c-0.4,0.4-0.697,0.901-0.846,1.468L66.2,454.989c-0.436,1.652,0.009,3.349,1.198,4.535c1.188,1.187,2.881,1.636,4.529,1.196
		l10.025-2.659c1.124-0.292,2.007-1.179,2.307-2.296c0.298-1.111-0.004-2.254-0.806-3.056l-3.527-3.525
		c10.814-11.776,12.874-28.889,5.232-42.862c1.888-1.888,3.186-3.183,4.022-4.021c-1.161,1.162-2.863,2.862-4.022,4.021l0,0
		c0.986-0.984,2.604-2.602,5.091-5.087c2.959-2.962-0.739-6.664-3.703-3.711c-0.068,0.067-0.154,0.154-0.263,0.261
		c0.103-0.103,0.191-0.189,0.263-0.258c-0.002,0-0.002,0-0.004,0c-1.909,1.914-3.304,3.309-4.298,4.3
		c-1.934-2.548-4.237-4.892-7.304-7.247c3.139-3.135,4.379-4.377,4.525-4.524c-0.025,0.028-0.094,0.092-0.198,0.195
		c2.962-2.962-0.72-6.644-3.682-3.682c-2.421,2.421-4.025,4.025-5.019,5.019C63.165,387.471,54.573,385.97,46.147,387.433z
		 M81.123,454.941l-10.021,2.651c-0.754,0.196-1.24-0.185-1.419-0.355c-0.175-0.177-0.559-0.664-0.356-1.417l2.662-10.005
		L81.123,454.941z M85.477,398.599c-0.716,0.714-1.765,1.763-3.233,3.23l0,0C83.304,400.771,84.557,399.519,85.477,398.599z"/>
	<path fill="#FFFFFF" d="M89.432,402.052c0.215-0.215,0.403-0.401,0.558-0.56C89.844,401.64,89.66,401.822,89.432,402.052z"/>
	<path fill="#FFFFFF" d="M89.99,401.492c0.125-0.123,0.225-0.223,0.3-0.298C90.21,401.273,90.111,401.371,89.99,401.492z"/>
	<path fill="#FFFFFF" d="M90.437,401.047C90.466,401.016,90.468,401.016,90.437,401.047L90.437,401.047z"/>
	<path fill="#FFFFFF" d="M90.289,401.194c0.075-0.075,0.123-0.123,0.147-0.147C90.408,401.073,90.358,401.123,90.289,401.194z"/>
	<path fill="#FFFFFF" d="M86.733,397.34C86.762,397.313,86.762,397.313,86.733,397.34L86.733,397.34z"/>
	<path fill="#FFFFFF" d="M86.584,397.491c0.075-0.075,0.121-0.122,0.148-0.151C86.707,397.369,86.656,397.419,86.584,397.491z"/>
	<path fill="#FFFFFF" d="M86.584,397.491c-0.01,0.011-0.026,0.025-0.039,0.038c0-0.003,0-0.003,0-0.003
		C86.56,397.517,86.573,397.502,86.584,397.491z"/>
</g>
</svg>
