<svg version="1.1" id="Layer_1" xmlns="http://www.w3.org/2000/svg" xmlns:xlink="http://www.w3.org/1999/xlink" x="0px" y="0px"
	 width="463.54px" height="149.795px" viewBox="0.001 346.051 463.54 149.795"
	 enable-background="new 0.001 346.051 463.54 149.795" xml:space="preserve">
<g>
	<path d="M205.287,366.403c0-4.672,2.253-6.446,6.122-6.446s6.121,1.77,6.121,6.446c0,3.862-2.252,6.117-6.121,6.117
		C207.543,372.521,205.287,370.265,205.287,366.403z M216.565,458.249c0,2.901-2.255,5.157-5.156,5.157s-5.158-2.256-5.158-5.157
		v-65.418c0-2.901,2.256-5.157,5.158-5.157s5.156,2.256,5.156,5.157V458.249z"/>
	<path d="M286.98,397.175v-44.63c0-2.901,2.256-5.157,5.157-5.157c2.901,0,5.158,2.255,5.158,5.157v79.926
		c0,21.264-13.212,31.738-31.578,31.738c-20.786,0-33.034-12.405-33.034-38.833c0-26.427,11.6-38.676,32.385-38.676
		C275.385,386.707,283.279,392.018,286.98,397.175z M286.98,410.229c0,0-6.12-14.176-21.264-14.176
		c-14.665,0-22.72,9.504-22.72,29.33c0,20.146,7.895,29.486,22.72,29.486c12.406,0,21.264-7.085,21.264-22.392V410.229
		L286.98,410.229z"/>
	<path d="M326.469,404.587c-1.606,1.77-2.737,2.255-4.187,2.255c-2.58,0-4.672-2.091-4.672-4.671c0-1.125,0.321-1.928,0.807-2.737
		c4.511-7.092,13.208-12.728,26.745-12.728c18.69,0,29.002,10.953,29.002,27.395v44.315c0,2.737-2.256,4.992-4.993,4.992
		c-2.738,0-4.993-2.255-4.993-4.992v-5.804c-4.033,7.577-13.373,11.603-23.041,11.603c-17.081,0-27.877-8.216-27.877-23.04
		c0-14.184,10.796-22.72,28.194-22.72h22.724v-4.354c0-10.954-7.252-17.727-19.016-17.727
		C336.619,396.371,331.462,398.955,326.469,404.587z M364.174,434.244v-6.763h-22.723c-10.469,0-17.724,4.347-17.724,13.694
		c0,8.379,5.8,13.693,18.369,13.693C353.382,454.865,364.174,447.935,364.174,434.244z"/>
	<path d="M403.827,392.831v5.156c3.062-5.484,11.114-11.281,21.91-11.281c20.946,0,33.676,12.249,33.676,38.676
		s-12.733,38.833-33.676,38.833c-10.796,0-18.527-5.797-21.91-11.281v36.421c0,2.737-2.423,5.156-5.16,5.156s-5.15-2.419-5.15-5.156
		v-96.524c0-2.901,2.413-5.157,5.15-5.157S403.827,389.926,403.827,392.831z M425.738,454.865c14.825,0,23.208-9.34,23.208-29.485
		c0-20.147-8.708-29.33-23.529-29.33c-11.924,0-21.91,8.38-21.91,29.33C403.503,446.172,413.171,454.865,425.738,454.865z"/>
	
		<linearGradient id="SVGID_1_" gradientUnits="userSpaceOnUse" x1="-297.0554" y1="549.3281" x2="-297.0554" y2="602.3221" gradientTransform="matrix(2.4092 -2.4092 -2.4092 -2.4092 2179.9463 1091.382)">
		<stop  offset="0" style="stop-color:#1A6DFF"/>
		<stop  offset="1" style="stop-color:#C822FF"/>
	</linearGradient>
	<path fill="url(#SVGID_1_)" d="M102.104,444.89c13.222-13.223,13.222-34.748,0-47.969c-13.222-13.215-34.744-13.215-47.969,0
		c-13.223,13.222-13.223,34.747,0,47.969C67.36,458.111,88.878,458.111,102.104,444.89z M58.498,401.287
		c10.819-10.822,28.422-10.822,39.246,0c10.818,10.816,10.818,28.419-0.004,39.245c-10.82,10.816-28.422,10.816-39.242,0
		C47.678,429.706,47.678,412.104,58.498,401.287z"/>
	<g>
		
			<linearGradient id="SVGID_2_" gradientUnits="userSpaceOnUse" x1="16.4089" y1="805.0664" x2="16.4089" y2="847.2646" gradientTransform="matrix(3.4072 0 0 -3.4072 -8.6967 3237.5322)">
			<stop  offset="0" style="stop-color:#C822FF"/>
			<stop  offset="1" style="stop-color:#1A6DFF"/>
		</linearGradient>
		<path fill="url(#SVGID_2_)" d="M90.297,490.774l-1.051-6.077c-14.731,2.563-29.748-0.07-42.672-7.303
			c-16.337-9.497-23.65-22.589-24.948-24.936c-13.664-24.359-10.217-54.387,8.62-75.069l6.543,6.549
			c1.533,1.522,3.705,2.098,5.823,1.536c1.068-0.288,2.018-0.85,2.771-1.606c0.763-0.76,1.329-1.721,1.614-2.792l5.066-19.125
			c0.834-3.139-0.02-6.372-2.286-8.634c-2.263-2.262-5.495-3.119-8.637-2.283l-19.119,5.066c-2.142,0.556-3.828,2.25-4.401,4.381
			c-0.569,2.118,0.007,4.293,1.54,5.823l6.727,6.733c-20.624,22.452-24.543,55.074-9.979,81.712
			c-3.601,3.604-6.071,6.081-7.667,7.67c2.212-2.216,5.458-5.451,7.667-7.667l0,0c-1.877,1.884-4.963,4.967-9.702,9.705
			c-5.648,5.649,1.409,12.707,7.055,7.071c0.13-0.137,0.294-0.301,0.499-0.502c-0.194,0.198-0.362,0.365-0.499,0.502
			c0.004-0.007,0.007-0.007,0.007-0.007c3.641-3.647,6.302-6.308,8.196-8.202c3.688,4.862,8.078,9.334,13.928,13.818
			c-5.983,5.987-8.35,8.353-8.63,8.634c0.047-0.054,0.177-0.178,0.375-0.378c-5.646,5.652,1.375,12.667,7.02,7.021
			c4.623-4.621,7.677-7.673,9.568-9.561C57.848,490.704,74.226,493.559,90.297,490.774z M23.6,362.063l19.115-5.066
			c1.439-0.378,2.367,0.351,2.697,0.679c0.335,0.335,1.065,1.262,0.687,2.694l-5.081,19.079L23.6,362.063z M15.3,469.486
			c1.362-1.358,3.364-3.365,6.162-6.164l0,0C19.447,465.344,17.054,467.739,15.3,469.486z"/>
		
			<linearGradient id="SVGID_3_" gradientUnits="userSpaceOnUse" x1="4.6736" y1="814.0273" x2="4.6736" y2="814.3408" gradientTransform="matrix(3.4072 0 0 -3.4072 -8.6967 3237.5322)">
			<stop  offset="0" style="stop-color:#C822FF"/>
			<stop  offset="1" style="stop-color:#1A6DFF"/>
		</linearGradient>
		<path fill="url(#SVGID_3_)" d="M7.757,462.904c-0.408,0.412-0.766,0.767-1.061,1.063C6.977,463.688,7.325,463.336,7.757,462.904z"
			/>
		
			<linearGradient id="SVGID_4_" gradientUnits="userSpaceOnUse" x1="4.4343" y1="813.8604" x2="4.4343" y2="814.0273" gradientTransform="matrix(3.4072 0 0 -3.4072 -8.6967 3237.5322)">
			<stop  offset="0" style="stop-color:#C822FF"/>
			<stop  offset="1" style="stop-color:#1A6DFF"/>
		</linearGradient>
		<path fill="url(#SVGID_4_)" d="M6.697,463.968c-0.237,0.234-0.428,0.426-0.569,0.569C6.275,464.387,6.466,464.192,6.697,463.968z"
			/>
		
			<linearGradient id="SVGID_5_" gradientUnits="userSpaceOnUse" x1="4.2615" y1="813.7646" x2="4.2615" y2="813.7773" gradientTransform="matrix(3.4072 0 0 -3.4072 -8.6967 3237.5322)">
			<stop  offset="0" style="stop-color:#C822FF"/>
			<stop  offset="1" style="stop-color:#1A6DFF"/>
		</linearGradient>
		<path fill="url(#SVGID_5_)" d="M5.844,464.818C5.79,464.879,5.786,464.879,5.844,464.818L5.844,464.818z"/>
		
			<linearGradient id="SVGID_6_" gradientUnits="userSpaceOnUse" x1="4.3093" y1="813.7783" x2="4.3093" y2="813.8604" gradientTransform="matrix(3.4072 0 0 -3.4072 -8.6967 3237.5322)">
			<stop  offset="0" style="stop-color:#C822FF"/>
			<stop  offset="1" style="stop-color:#1A6DFF"/>
		</linearGradient>
		<path fill="url(#SVGID_6_)" d="M6.128,464.537c-0.147,0.144-0.238,0.234-0.284,0.281C5.893,464.769,5.994,464.674,6.128,464.537z"
			/>
		
			<linearGradient id="SVGID_7_" gradientUnits="userSpaceOnUse" x1="6.3342" y1="811.6924" x2="6.3342" y2="811.7051" gradientTransform="matrix(3.4072 0 0 -3.4072 -8.6967 3237.5322)">
			<stop  offset="0" style="stop-color:#C822FF"/>
			<stop  offset="1" style="stop-color:#1A6DFF"/>
		</linearGradient>
		<path fill="url(#SVGID_7_)" d="M12.908,471.887C12.851,471.937,12.851,471.942,12.908,471.887L12.908,471.887z"/>
		
			<linearGradient id="SVGID_8_" gradientUnits="userSpaceOnUse" x1="6.3821" y1="811.7051" x2="6.3821" y2="811.7891" gradientTransform="matrix(3.4072 0 0 -3.4072 -8.6967 3237.5322)">
			<stop  offset="0" style="stop-color:#C822FF"/>
			<stop  offset="1" style="stop-color:#1A6DFF"/>
		</linearGradient>
		<path fill="url(#SVGID_8_)" d="M13.189,471.599c-0.144,0.15-0.234,0.24-0.281,0.288C12.958,471.832,13.052,471.735,13.189,471.599
			z"/>
		
			<linearGradient id="SVGID_9_" gradientUnits="userSpaceOnUse" x1="6.4338" y1="811.7881" x2="6.4338" y2="811.8066" gradientTransform="matrix(3.4072 0 0 -3.4072 -8.6967 3237.5322)">
			<stop  offset="0" style="stop-color:#C822FF"/>
			<stop  offset="1" style="stop-color:#1A6DFF"/>
		</linearGradient>
		<path fill="url(#SVGID_9_)" d="M13.189,471.599c0.023-0.021,0.047-0.047,0.07-0.067l0,0
			C13.236,471.552,13.209,471.585,13.189,471.599z"/>
	</g>
	<g>
		
			<linearGradient id="SVGID_10_" gradientUnits="userSpaceOnUse" x1="-863.7781" y1="1330.9893" x2="-863.7781" y2="1373.1914" gradientTransform="matrix(-3.4072 0 0 3.4072 -2834.0002 -4187.5752)">
			<stop  offset="0" style="stop-color:#1A6DFF"/>
			<stop  offset="1" style="stop-color:#C822FF"/>
		</linearGradient>
		<path fill="url(#SVGID_10_)" d="M65.988,351.116l1.054,6.077c14.731-2.563,29.747,0.07,42.668,7.302
			c16.338,9.498,23.65,22.589,24.948,24.935c13.665,24.359,10.214,54.395-8.62,75.063l-6.542-6.536
			c-1.533-1.536-3.704-2.112-5.823-1.543c-1.067,0.288-2.014,0.851-2.771,1.604c-0.763,0.767-1.329,1.72-1.613,2.797l-5.066,19.119
			c-0.833,3.149,0.02,6.379,2.286,8.642c2.263,2.262,5.495,3.118,8.638,2.288l19.119-5.073c2.142-0.562,3.828-2.249,4.4-4.38
			c0.569-2.119-0.006-4.295-1.539-5.83l-6.727-6.72c20.625-22.459,24.543-55.088,9.979-81.73c3.601-3.601,6.071-6.07,7.667-7.667
			c-2.212,2.215-5.455,5.458-7.667,7.667l0,0c1.877-1.877,4.963-4.959,9.702-9.698c5.648-5.649-1.409-12.707-7.055-7.071
			c-0.131,0.13-0.294,0.294-0.499,0.495c0.198-0.197,0.362-0.358,0.499-0.488c-0.004,0-0.004,0-0.007,0
			c-3.641,3.647-6.302,6.308-8.196,8.195c-3.687-4.855-8.078-9.327-13.928-13.818c5.984-5.983,8.35-8.35,8.628-8.631
			c-0.047,0.054-0.178,0.177-0.375,0.372c5.646-5.649-1.375-12.667-7.021-7.021c-4.621,4.622-7.676,7.681-9.567,9.568
			C98.436,351.187,82.058,348.325,65.988,351.116z M132.684,479.834l-19.115,5.061c-1.438,0.378-2.366-0.348-2.697-0.68
			c-0.334-0.334-1.064-1.269-0.686-2.7l5.08-19.072L132.684,479.834z M140.98,372.403c-1.362,1.359-3.363,3.36-6.161,6.158l0,0
			C136.837,376.546,139.23,374.157,140.98,372.403z"/>
		
			<linearGradient id="SVGID_11_" gradientUnits="userSpaceOnUse" x1="-875.5134" y1="1339.9521" x2="-875.5134" y2="1340.2655" gradientTransform="matrix(-3.4072 0 0 3.4072 -2834.0002 -4187.5752)">
			<stop  offset="0" style="stop-color:#1A6DFF"/>
			<stop  offset="1" style="stop-color:#C822FF"/>
		</linearGradient>
		<path fill="url(#SVGID_11_)" d="M148.527,378.986c0.408-0.412,0.767-0.767,1.061-1.064
			C149.306,378.2,148.958,378.548,148.527,378.986z"/>
		
			<linearGradient id="SVGID_12_" gradientUnits="userSpaceOnUse" x1="-875.7527" y1="1339.7842" x2="-875.7527" y2="1339.9512" gradientTransform="matrix(-3.4072 0 0 3.4072 -2834.0002 -4187.5752)">
			<stop  offset="0" style="stop-color:#1A6DFF"/>
			<stop  offset="1" style="stop-color:#C822FF"/>
		</linearGradient>
		<path fill="url(#SVGID_12_)" d="M149.588,377.922c0.238-0.234,0.428-0.425,0.569-0.569
			C150.009,377.504,149.819,377.691,149.588,377.922z"/>
		
			<linearGradient id="SVGID_13_" gradientUnits="userSpaceOnUse" x1="-875.9255" y1="1339.6895" x2="-875.9255" y2="1339.7017" gradientTransform="matrix(-3.4072 0 0 3.4072 -2834.0002 -4187.5752)">
			<stop  offset="0" style="stop-color:#1A6DFF"/>
			<stop  offset="1" style="stop-color:#C822FF"/>
		</linearGradient>
		<path fill="url(#SVGID_13_)" d="M150.441,377.072C150.494,377.012,150.498,377.012,150.441,377.072L150.441,377.072z"/>
		
			<linearGradient id="SVGID_14_" gradientUnits="userSpaceOnUse" x1="-875.8782" y1="1339.7021" x2="-875.8782" y2="1339.7852" gradientTransform="matrix(-3.4072 0 0 3.4072 -2834.0002 -4187.5752)">
			<stop  offset="0" style="stop-color:#1A6DFF"/>
			<stop  offset="1" style="stop-color:#C822FF"/>
		</linearGradient>
		<path fill="url(#SVGID_14_)" d="M150.156,377.353c0.144-0.144,0.238-0.234,0.285-0.281
			C150.39,377.122,150.291,377.216,150.156,377.353z"/>
		
			<linearGradient id="SVGID_15_" gradientUnits="userSpaceOnUse" x1="-873.8523" y1="1337.6182" x2="-873.8523" y2="1337.6289" gradientTransform="matrix(-3.4072 0 0 3.4072 -2834.0002 -4187.5752)">
			<stop  offset="0" style="stop-color:#1A6DFF"/>
			<stop  offset="1" style="stop-color:#C822FF"/>
		</linearGradient>
		<path fill="url(#SVGID_15_)" d="M143.376,370.004C143.433,369.954,143.433,369.954,143.376,370.004L143.376,370.004z"/>
		
			<linearGradient id="SVGID_16_" gradientUnits="userSpaceOnUse" x1="-873.8049" y1="1337.6279" x2="-873.8049" y2="1337.7129" gradientTransform="matrix(-3.4072 0 0 3.4072 -2834.0002 -4187.5752)">
			<stop  offset="0" style="stop-color:#1A6DFF"/>
			<stop  offset="1" style="stop-color:#C822FF"/>
		</linearGradient>
		<path fill="url(#SVGID_16_)" d="M143.095,370.292c0.144-0.144,0.234-0.234,0.281-0.288
			C143.326,370.058,143.229,370.155,143.095,370.292z"/>
		
			<linearGradient id="SVGID_17_" gradientUnits="userSpaceOnUse" x1="-873.7532" y1="1337.7139" x2="-873.7532" y2="1337.7343" gradientTransform="matrix(-3.4072 0 0 3.4072 -2834.0002 -4187.5752)">
			<stop  offset="0" style="stop-color:#1A6DFF"/>
			<stop  offset="1" style="stop-color:#C822FF"/>
		</linearGradient>
		<path fill="url(#SVGID_17_)" d="M143.095,370.292c-0.02,0.02-0.047,0.047-0.07,0.07c0-0.007,0-0.007,0-0.007
			C143.048,370.339,143.075,370.312,143.095,370.292z"/>
	</g>
</g>
</svg>
