<svg version="1.1" id="Layer_1" xmlns="http://www.w3.org/2000/svg" xmlns:xlink="http://www.w3.org/1999/xlink" style="fill:rgba(255,255,255,1)" x="0px" y="0px" height="13px" viewBox="0.104 0.002 36.984 37.686" enable-background="new 0.104 0.002 36.984 37.686" xml:space="preserve">
                    <path d="M32.701,11.381c-1.57-1.569-3.396-2.718-5.339-3.458c1.132-3.33,5.146-4.542,5.146-4.542S23.143-1.48,12.8,0.459
                C9.352,1.008,6.046,3.126,3.628,5.92c-5.249,6.061-4.554,15.184,1.556,20.389c0.939,0.804,3.036,2.054,3.075,2.117
                c-1.376,3.496-5.776,4.453-5.776,4.453s5.814,3.637,13.623,4.58c2.071,0.256,4.271,0.319,6.548,0.077
                c3.615-0.294,7.217-2.208,9.957-4.899C38.541,26.793,38.592,17.275,32.701,11.381z M30.025,30.314
                c-2.213,2.169-5.519,3.547-8.066,3.738c-1.801,0.179-3.73,0.204-5.583-0.025c-2.727-0.332-4.695-1.084-6.625-1.812
                c0.978-0.944,1.955-2.245,2.354-3.368c0.257-0.664,0.231-1.404-0.077-2.055c-2.071-4.262-1.17-9.365,2.238-12.682
                c2.47-2.412,5.866-3.547,9.314-3.126c2.534,0.306,4.837,1.416,6.638,3.215C34.591,18.589,34.437,26.015,30.025,30.314z"></path>
                  </svg>
