<svg width="24px" height="24px" viewBox="0 0 24 24" version="1.1" xmlns="http://www.w3.org/2000/svg" xmlns:xlink="http://www.w3.org/1999/xlink">
    <title>instagram</title>
    <desc></desc>
    <g id="Page-1" stroke="none" stroke-width="1" fill="none" fill-rule="evenodd">
        <g id="Homepage3" transform="translate(-1266.000000, -2787.000000)" fill="#FFFFFF" fill-rule="nonzero">
            <g id="Footer" transform="translate(0.000000, 2709.000000)">
                <g id="Social" transform="translate(1124.000000, 25.000000)">
                    <g id="instagram" transform="translate(142.000000, 53.000000)">
                        <path d="M12,2.15510204 L16.8489796,2.25306122 C17.6170577,2.25182421 18.3794785,2.38441912 19.1020408,2.64489796 C19.6179963,2.83526855 20.0860749,3.13617621 20.4734694,3.52653061 C20.8626031,3.91491135 21.1633274,4.38270476 21.355102,4.89795918 C21.6136711,5.62102638 21.7462077,6.38311181 21.7469388,7.15102041 C21.7959184,8.4244898 21.844898,8.81632653 21.844898,12 C21.844898,15.1836735 21.844898,15.5755102 21.7469388,16.8489796 C21.7462077,17.6168882 21.6136711,18.3789736 21.355102,19.1020408 C20.952431,20.163389 20.1144094,21.0014106 19.0530612,21.4040816 C18.329994,21.6626507 17.5679086,21.7951873 16.8,21.7959184 L11.9510204,21.8938776 L7.10204082,21.7959184 C6.33413222,21.7951873 5.57204679,21.6626507 4.84897959,21.4040816 C3.82481853,20.9785348 3.0255351,20.1437276 2.64489796,19.1020408 C2.38632887,18.3789736 2.25379227,17.6168882 2.25306122,16.8489796 C2.20408163,15.5755102 2.15510204,15.1836735 2.15510204,12 C2.15510204,8.81632653 2.15510204,8.4244898 2.25306122,7.15102041 C2.25379227,6.38311181 2.38632887,5.62102638 2.64489796,4.89795918 C2.83667258,4.38270476 3.13739692,3.91491135 3.52653061,3.52653061 C3.91392509,3.13617621 4.38200368,2.83526855 4.89795918,2.64489796 C5.62052151,2.38441912 6.38294228,2.25182421 7.15102041,2.25306122 L12,2.15510204 Z M12,0 L7.05306122,0.0979591837 C6.04985843,0.108085108 5.05583604,0.290322546 4.11428571,0.636734694 C2.51015362,1.26999189 1.24749564,2.55043379 0.636734694,4.16326531 C0.27905891,5.08643565 0.0803299676,6.06351961 0.0489795918,7.05306122 C0,8.32653061 0,8.71836735 0,12 C0,15.2816327 0,15.6734694 0.0489795918,16.9469388 C0.0646547329,17.9336613 0.246806348,18.9106564 0.587755102,19.8367347 C1.20952219,21.4594495 2.49157086,22.7414982 4.11428571,23.3632653 C5.04036404,23.7042141 6.01735907,23.8863657 7.00408163,23.9020408 L11.9510204,24 L16.8979592,23.9020408 C17.8846817,23.8863657 18.8616768,23.7042141 19.7877551,23.3632653 C21.41047,22.7414982 22.6925186,21.4594495 23.3142857,19.8367347 C23.6552345,18.9106564 23.8373861,17.9336613 23.8530612,16.9469388 C23.9020408,15.6734694 23.9510204,15.2816327 23.9510204,12 C23.9510204,8.71836735 23.9510204,8.32653061 23.8530612,7.05306122 C23.8373861,6.06633866 23.6552345,5.08934363 23.3142857,4.16326531 C22.6925186,2.54055045 21.41047,1.25850178 19.7877551,0.636734694 C18.8771612,0.301155041 17.9171699,0.119087726 16.9469388,0.0979591837 L12,0 Z M12,5.82857143 C8.59161412,5.82857143 5.82857143,8.59161412 5.82857143,12 C5.82857143,15.4083859 8.59161412,18.1714286 12,18.1714286 C15.4083859,18.1714286 18.1714286,15.4083859 18.1714286,12 C18.1714286,8.59161412 15.4083859,5.82857143 12,5.82857143 Z M12,16.0163265 C9.78184411,16.0163265 7.98367347,14.2181559 7.98367347,12 C7.98367347,9.78184411 9.78184411,7.98367347 12,7.98367347 C14.2181559,7.98367347 16.0163265,9.78184411 16.0163265,12 C16.0163265,14.2181559 14.2181559,16.0163265 12,16.0163265 Z M19.8367347,5.63265306 C19.8367347,6.41712283 19.2007963,7.05306122 18.4163265,7.05306122 C17.6318568,7.05306122 16.9959184,6.41712283 16.9959184,5.63265306 C16.9959184,4.84818329 17.6318568,4.2122449 18.4163265,4.2122449 C19.2007963,4.2122449 19.8367347,4.84818329 19.8367347,5.63265306 Z" id="Shape"></path>
                    </g>
                </g>
            </g>
        </g>
    </g>
</svg>