<?xml version="1.0" encoding="utf-8"?>
<!-- Generator: Adobe Illustrator 15.0.0, SVG Export Plug-In . SVG Version: 6.00 Build 0)  -->
<!DOCTYPE svg PUBLIC "-//W3C//DTD SVG 1.1//EN" "http://www.w3.org/Graphics/SVG/1.1/DTD/svg11.dtd">
<svg version="1.1" id="Layer_1" xmlns="http://www.w3.org/2000/svg" xmlns:xlink="http://www.w3.org/1999/xlink" x="0px" y="0px"
	 width="600px" height="600px" viewBox="0 0 600 600" enable-background="new 0 0 600 600" xml:space="preserve">
<g transform="translate(0,-952.36218)">
	<path fill="#FFFFFF" d="M49.968,990.362c-6.615,0-11.996,5.382-11.996,12c0,6.617,5.38,12,11.996,12
		c6.615,0,12.004-5.382,12.004-12C61.972,995.744,56.583,990.362,49.968,990.362L49.968,990.362z M49.968,991.282
		c6.117,0,11.084,4.96,11.084,11.08c0,2.737-0.999,5.235-2.644,7.169c-0.936-3.262-3.412-5.265-6.189-5.962
		c1.297-0.802,2.166-2.274,2.166-3.939c0-2.521-1.976-4.572-4.417-4.572c-2.441,0-4.407,2.052-4.407,4.572
		c0,1.665,0.869,3.138,2.166,3.939c-2.778,0.697-5.251,2.7-6.189,5.971c-1.647-1.935-2.645-4.438-2.645-7.179
		C38.892,996.243,43.851,991.283,49.968,991.282L49.968,991.282z M49.968,995.979c1.925,0,3.497,1.607,3.497,3.651
		c0,2.032-1.573,3.662-3.497,3.662c-1.925,0-3.487-1.629-3.487-3.662C46.48,997.586,48.042,995.979,49.968,995.979z
		 M49.968,1004.212c4.186,0.079,6.982,3.221,7.693,6.124c-1.992,1.924-4.706,3.105-7.693,3.105c-2.987,0-5.691-1.181-7.684-3.105
		C43.187,1006.216,46.558,1004.214,49.968,1004.212z"/>
</g>
<g>
	<path fill="#FFFFFF" d="M56.156,151.25c0-0.971-0.791-1.761-1.763-1.761h-0.08l-0.001-3.011c0-2.469-2.01-4.478-4.482-4.478
		c-2.47,0.001-4.479,2.012-4.477,4.482l0.001,3.021c-0.398,0.043-0.767,0.219-1.054,0.506c-0.333,0.333-0.516,0.775-0.516,1.246
		l0.003,4.982c0,0.971,0.79,1.761,1.761,1.761h0.001l8.847-0.004c0.471,0,0.913-0.184,1.246-0.517s0.516-0.775,0.516-1.247
		L56.156,151.25z M49.833,142.681c2.093,0,3.797,1.703,3.799,3.797l0.002,3.295h-0.845l-0.002-3.294
		c0-1.628-1.326-2.953-2.954-2.953h-0.002c-0.788,0-1.529,0.309-2.087,0.867c-0.559,0.559-0.866,1.3-0.865,2.089l0.001,3.292h-0.844
		l-0.002-3.291C46.033,144.387,47.736,142.682,49.833,142.681z M52.106,146.479l0.001,3.012l-4.547,0.002l-0.001-3.012
		c-0.001-1.253,1.019-2.274,2.272-2.274l0.001-0.341v0.341C51.085,144.207,52.105,145.226,52.106,146.479z M55.162,156.998
		c-0.204,0.204-0.475,0.317-0.764,0.317l-8.848,0.004v0.341v-0.341c-0.596,0-1.081-0.484-1.082-1.081l-0.002-4.982
		c0-0.289,0.112-0.561,0.316-0.765c0.204-0.205,0.476-0.317,0.764-0.317l8.848-0.004c0.596,0,1.081,0.485,1.082,1.081l0.002,4.982
		C55.479,156.521,55.366,156.793,55.162,156.998z"/>
	<path fill="#FFFFFF" d="M50.309,154.768l0.001,1.845h-0.673l-0.001-1.846c-0.37-0.137-0.635-0.49-0.635-0.907
		c0-0.537,0.434-0.972,0.97-0.972c0.536,0,0.971,0.435,0.971,0.971C50.943,154.277,50.679,154.63,50.309,154.768z"/>
</g>
<g>
	<g>
		<path fill="#FFFFFF" d="M57.312,195.409l-7.158-3.368c-0.115-0.055-0.248-0.055-0.362,0l-7.158,3.368
			c-0.146,0.07-0.239,0.217-0.24,0.379c0,9.391,6.843,12.212,7.58,12.212c0.737,0,7.58-2.821,7.58-12.212
			C57.551,195.626,57.458,195.479,57.312,195.409z M50.001,207.157c-0.063,0-6.636-2.105-6.767-11.104l6.737-3.166l6.737,3.166
			C56.579,205.052,50.01,207.149,50.001,207.157z"/>
	</g>
	<g transform="translate(0,-952.3622)">
		<path fill="#FFFFFF" d="M49.455,1148.362c-0.144,0.009-0.228,0.1-0.277,0.206l-0.219,0.771c-0.14,0.047-0.272,0.105-0.402,0.17
			l-0.706-0.393c-0.108-0.061-0.256-0.04-0.344,0.049l-0.732,0.732c-0.085,0.088-0.104,0.232-0.044,0.339l0.388,0.701
			c-0.065,0.13-0.123,0.267-0.169,0.405l-0.772,0.224c-0.117,0.034-0.205,0.15-0.206,0.272v1.04
			c-0.001,0.124,0.087,0.242,0.206,0.277l0.772,0.218c0.047,0.142,0.104,0.276,0.169,0.406l-0.388,0.701
			c-0.06,0.107-0.041,0.252,0.044,0.34l0.732,0.732c0.087,0.088,0.235,0.109,0.344,0.049l0.701-0.389
			c0.13,0.065,0.266,0.118,0.406,0.165l0.219,0.772c0.033,0.12,0.152,0.211,0.277,0.21h1.036c0.125,0,0.244-0.09,0.277-0.21
			l0.219-0.772c0.14-0.047,0.276-0.1,0.406-0.165l0.701,0.389c0.108,0.061,0.256,0.039,0.344-0.049l0.732-0.732
			c0.085-0.088,0.104-0.232,0.044-0.34l-0.388-0.701c0.065-0.13,0.122-0.265,0.169-0.406l0.772-0.218
			c0.119-0.035,0.207-0.153,0.206-0.277v-1.04c0-0.122-0.088-0.238-0.206-0.272l-0.772-0.224c-0.047-0.139-0.104-0.275-0.169-0.405
			l0.388-0.701c0.06-0.106,0.041-0.251-0.044-0.339l-0.732-0.732c-0.087-0.089-0.235-0.109-0.344-0.049l-0.705,0.393
			c-0.13-0.064-0.263-0.123-0.402-0.17l-0.219-0.771c-0.035-0.119-0.154-0.207-0.277-0.206H49.455L49.455,1148.362z
			 M49.669,1148.933h0.606l0.197,0.692c0.027,0.094,0.106,0.171,0.201,0.196c0.21,0.059,0.411,0.143,0.598,0.25
			c0.085,0.048,0.196,0.048,0.282,0l0.629-0.354l0.429,0.43l-0.353,0.633c-0.047,0.087-0.045,0.197,0.005,0.282
			c0.106,0.188,0.188,0.388,0.245,0.599c0.027,0.094,0.106,0.17,0.201,0.195l0.692,0.201v0.603l-0.692,0.201
			c-0.095,0.026-0.174,0.105-0.201,0.2c-0.058,0.211-0.139,0.406-0.245,0.595c-0.05,0.084-0.052,0.194-0.005,0.28l0.353,0.635
			L52.182,1155l-0.629-0.352c-0.085-0.049-0.196-0.049-0.282,0c-0.187,0.106-0.387,0.191-0.598,0.25
			c-0.095,0.025-0.174,0.102-0.201,0.196l-0.197,0.696h-0.606l-0.197-0.696c-0.027-0.095-0.106-0.171-0.201-0.196
			c-0.211-0.059-0.411-0.144-0.598-0.25c-0.085-0.049-0.196-0.049-0.281,0L47.763,1155l-0.429-0.428l0.353-0.635
			c0.047-0.086,0.045-0.196-0.004-0.28c-0.107-0.188-0.188-0.384-0.246-0.595c-0.026-0.095-0.105-0.174-0.201-0.2l-0.692-0.201
			v-0.603l0.692-0.201c0.094-0.025,0.173-0.102,0.201-0.195c0.058-0.211,0.139-0.411,0.246-0.599
			c0.05-0.085,0.051-0.195,0.004-0.282l-0.353-0.633l0.429-0.43l0.629,0.354c0.085,0.048,0.196,0.048,0.281,0
			c0.188-0.107,0.387-0.191,0.598-0.25c0.095-0.025,0.173-0.104,0.201-0.196L49.669,1148.933L49.669,1148.933z M49.972,1150.791
			c-0.865,0-1.571,0.707-1.571,1.571c0,0.864,0.707,1.571,1.571,1.571c0.864,0,1.572-0.707,1.572-1.571
			C51.544,1151.498,50.837,1150.791,49.972,1150.791L49.972,1150.791z M49.972,1151.362c0.556,0,1,0.444,1,1c0,0.556-0.444,1-1,1
			c-0.555,0-1-0.444-1-1C48.972,1151.806,49.417,1151.362,49.972,1151.362L49.972,1151.362z"/>
	</g>
</g>
<g>
	<path fill="#FFFFFF" d="M50.717,245.652v5.524c0,1.105-1.441,1.105-1.441,0v-5.524C49.275,244.595,50.717,244.595,50.717,245.652z
		 M45.479,242h9.033c1.922,0,3.459,1.586,3.459,3.508v9.032c0,1.922-1.538,3.46-3.459,3.46h-9.033c-1.922,0-3.507-1.538-3.507-3.46
		v-9.032C41.972,243.586,43.558,242,45.479,242z M54.735,242.916h-9.478c-1.311,0-2.369,1.059-2.369,2.369v9.478
		c0,1.261,1.059,2.369,2.369,2.369h9.478c1.26,0,2.37-1.108,2.37-2.369v-9.478C57.104,243.975,55.995,242.916,54.735,242.916z
		 M46.825,246.612c0.288-0.433-0.24-0.96-0.673-0.624c-1.057,1.057-1.538,2.402-1.538,3.796c0,2.979,2.402,5.381,5.381,5.381
		s5.382-2.402,5.382-5.381c0-1.394-0.529-2.739-1.586-3.796c-0.336-0.289-1.105,0.144-0.529,0.769
		c0.769,0.864,1.202,1.922,1.202,3.075c-0.096,5.813-8.889,5.766-8.937,0C45.479,248.63,45.96,247.526,46.825,246.612z"/>
</g>
<g>
	<path fill="#FFFFFF" d="M149.396,38c-6.615,0-11.996,5.382-11.996,12c0,6.617,5.38,12,11.996,12c6.615,0,12.004-5.382,12.004-12
		S156.01,38,149.396,38L149.396,38z"/>
	<path fill="#FFFFFF" d="M149.396,38.92c6.117,0,11.084,4.96,11.084,11.08c0,2.737-0.999,5.235-2.644,7.169
		c-0.936-3.262-3.412-5.265-6.189-5.962c1.297-0.802,2.166-2.274,2.166-3.939c0-2.521-1.976-4.572-4.417-4.572
		s-4.407,2.052-4.407,4.572c0,1.665,0.869,3.138,2.166,3.939c-2.778,0.697-5.251,2.7-6.189,5.971
		c-1.647-1.935-2.645-4.438-2.645-7.179C138.319,43.88,143.278,38.92,149.396,38.92L149.396,38.92z"/>
	<path fill="#FFFFFF" d="M149.396,43.617c1.925,0,3.497,1.607,3.497,3.652c0,2.032-1.573,3.661-3.497,3.661
		c-1.925,0-3.487-1.629-3.487-3.661C145.908,45.224,147.47,43.617,149.396,43.617z"/>
	<path fill="#FFFFFF" d="M149.396,51.85c4.186,0.079,6.982,3.221,7.693,6.124c-1.992,1.924-4.706,3.105-7.693,3.105
		s-5.691-1.181-7.684-3.105C142.614,53.854,145.986,51.852,149.396,51.85z"/>
</g>
<path fill="#FFFFFF" d="M154.019,149.822h-0.439l-0.001-3.501c-0.001-2.384-1.942-4.323-4.326-4.321
	c-2.384,0.001-4.322,1.941-4.321,4.326l0.002,3.501h-0.155c-0.82,0-1.484,0.666-1.484,1.485l0.003,5.204
	c0,0.82,0.666,1.484,1.485,1.484l9.241-0.004c0.82-0.001,1.484-0.666,1.484-1.486l-0.003-5.204
	C155.503,150.486,154.838,149.821,154.019,149.822z M149.737,154.818l0.001,1.845h-0.673l-0.001-1.845
	c-0.37-0.137-0.635-0.49-0.635-0.907c0-0.536,0.435-0.972,0.971-0.972s0.971,0.435,0.971,0.971
	C150.371,154.328,150.106,154.681,149.737,154.818z M151.986,149.823l-5.46,0.003l-0.002-3.501c-0.001-1.505,1.224-2.73,2.729-2.731
	s2.731,1.223,2.731,2.729L151.986,149.823z"/>
<g>
	<path fill="#FFFFFF" d="M156.739,195.409l-7.158-3.368c-0.115-0.055-0.248-0.055-0.362,0l-7.158,3.368
		c-0.146,0.07-0.239,0.217-0.24,0.379c0,9.391,6.843,12.212,7.58,12.212c0.737,0,7.58-2.821,7.58-12.212
		C156.979,195.626,156.886,195.479,156.739,195.409z"/>
	<g transform="translate(0,-952.3622)">
		<path fill="#FFFFFF" d="M148.882,1148.362c-0.144,0.009-0.228,0.1-0.277,0.206l-0.219,0.771c-0.14,0.047-0.272,0.105-0.402,0.17
			l-0.706-0.393c-0.108-0.061-0.256-0.04-0.344,0.049l-0.732,0.732c-0.085,0.088-0.104,0.232-0.044,0.339l0.388,0.701
			c-0.065,0.13-0.123,0.267-0.169,0.405l-0.772,0.224c-0.117,0.034-0.205,0.15-0.206,0.272v1.04
			c-0.001,0.124,0.087,0.242,0.206,0.277l0.772,0.218c0.047,0.142,0.104,0.276,0.169,0.406l-0.388,0.701
			c-0.06,0.107-0.041,0.252,0.044,0.34l0.732,0.732c0.087,0.088,0.235,0.109,0.344,0.049l0.701-0.389
			c0.13,0.065,0.266,0.118,0.406,0.165l0.219,0.772c0.033,0.12,0.152,0.211,0.277,0.21h1.036c0.125,0,0.244-0.09,0.277-0.21
			l0.219-0.772c0.14-0.047,0.276-0.1,0.406-0.165l0.701,0.389c0.108,0.061,0.256,0.039,0.344-0.049l0.732-0.732
			c0.085-0.088,0.104-0.232,0.044-0.34l-0.388-0.701c0.065-0.13,0.122-0.265,0.169-0.406l0.772-0.218
			c0.119-0.035,0.207-0.153,0.206-0.277v-1.04c0-0.122-0.088-0.238-0.206-0.272l-0.772-0.224c-0.047-0.139-0.104-0.275-0.169-0.405
			l0.388-0.701c0.06-0.106,0.041-0.251-0.044-0.339l-0.732-0.732c-0.087-0.089-0.235-0.109-0.344-0.049l-0.705,0.393
			c-0.13-0.064-0.263-0.123-0.402-0.17l-0.219-0.771c-0.035-0.119-0.154-0.207-0.277-0.206H148.882L148.882,1148.362z
			 M149.097,1148.933h0.606l0.197,0.692c0.027,0.094,0.106,0.171,0.201,0.196c0.21,0.059,0.411,0.143,0.598,0.25
			c0.085,0.048,0.196,0.048,0.282,0l0.629-0.354l0.429,0.43l-0.353,0.633c-0.047,0.087-0.045,0.197,0.005,0.282
			c0.106,0.188,0.188,0.388,0.245,0.599c0.027,0.094,0.106,0.17,0.201,0.195l0.692,0.201v0.603l-0.692,0.201
			c-0.095,0.026-0.174,0.105-0.201,0.2c-0.058,0.211-0.139,0.406-0.245,0.595c-0.05,0.084-0.052,0.194-0.005,0.28l0.353,0.635
			l-0.429,0.428l-0.629-0.352c-0.085-0.049-0.196-0.049-0.282,0c-0.187,0.105-0.387,0.191-0.598,0.25
			c-0.095,0.025-0.174,0.102-0.201,0.196l-0.197,0.696h-0.606l-0.197-0.696c-0.027-0.095-0.106-0.171-0.201-0.196
			c-0.211-0.059-0.411-0.145-0.598-0.25c-0.085-0.049-0.196-0.049-0.281,0l-0.63,0.353l-0.429-0.428l0.353-0.635
			c0.047-0.086,0.045-0.196-0.004-0.28c-0.107-0.188-0.188-0.384-0.246-0.595c-0.026-0.095-0.105-0.174-0.201-0.2l-0.692-0.201
			v-0.603l0.692-0.201c0.094-0.025,0.173-0.102,0.201-0.195c0.058-0.211,0.139-0.411,0.246-0.599
			c0.05-0.085,0.051-0.195,0.004-0.282l-0.353-0.633l0.429-0.43l0.629,0.354c0.085,0.048,0.196,0.048,0.281,0
			c0.188-0.107,0.387-0.191,0.598-0.25c0.095-0.025,0.173-0.104,0.201-0.196L149.097,1148.933L149.097,1148.933z M149.4,1150.791
			c-0.865,0-1.571,0.707-1.571,1.571c0,0.864,0.707,1.571,1.571,1.571c0.864,0,1.572-0.707,1.572-1.571
			C150.972,1151.498,150.265,1150.791,149.4,1150.791L149.4,1150.791z M149.4,1151.362c0.556,0,1,0.444,1,1c0,0.556-0.444,1-1,1
			c-0.555,0-1-0.444-1-1C148.4,1151.806,148.845,1151.362,149.4,1151.362L149.4,1151.362z"/>
	</g>
</g>
<path fill="#FFFFFF" d="M153.94,242h-9.033c-1.922,0-3.507,1.586-3.507,3.508v9.032c0,1.922,1.585,3.46,3.507,3.46h9.033
	c1.922,0,3.459-1.538,3.459-3.46v-9.032C157.4,243.586,155.862,242,153.94,242z M148.703,245.651c0-1.057,1.441-1.057,1.441,0v5.525
	c0,1.105-1.441,1.105-1.441,0V245.651z M149.424,255.165c-2.979,0-5.381-2.402-5.381-5.381c0-1.394,0.48-2.739,1.538-3.796
	c0.433-0.337,0.961,0.192,0.673,0.624c-0.865,0.913-1.346,2.019-1.298,3.22c0.048,5.766,8.841,5.813,8.938,0
	c0-1.153-0.433-2.21-1.201-3.075c-0.577-0.625,0.192-1.057,0.528-0.769c1.057,1.057,1.586,2.402,1.586,3.796
	C154.806,252.763,152.403,255.165,149.424,255.165z"/>
<g>
	<path fill="#FFFFFF" d="M49.972,101.258c2.54,0,4.629-2.065,4.629-4.629c0-2.54-2.065-4.629-4.629-4.629
		c-2.54,0-4.629,2.065-4.629,4.629S47.432,101.258,49.972,101.258z M49.972,92.854c2.089,0,3.774,1.686,3.774,3.774
		c0,2.089-1.686,3.774-3.774,3.774c-2.088,0-3.774-1.685-3.774-3.774C46.198,94.54,47.883,92.854,49.972,92.854z"/>
	<path fill="#FFFFFF" d="M53.557,101.496l-0.19-0.047l-0.166,0.095c-0.973,0.641-2.089,0.973-3.252,0.973
		c-1.163,0-2.279-0.332-3.252-0.973l-0.167-0.095l-0.189,0.047c-3.205,0.807-4.914,2.896-4.914,6.03V108h16.665l0.404-0.024
		l0.023-0.451C58.518,104.392,56.809,102.303,53.557,101.496z M42.281,107.146c0.143-2.469,1.52-4.083,4.13-4.795
		c1.068,0.665,2.303,1.021,3.561,1.021c1.258,0,2.493-0.356,3.561-1.021c2.611,0.712,4.012,2.327,4.13,4.795H42.281L42.281,107.146z
		"/>
</g>
<g>
	<path fill="#FFFFFF" d="M149.4,101.157c2.53,0,4.578-2.048,4.578-4.578c0-2.53-2.048-4.579-4.578-4.579
		c-2.53,0-4.578,2.048-4.578,4.579C144.822,99.11,146.87,101.157,149.4,101.157z"/>
	<path fill="#FFFFFF" d="M153.014,101.615l-0.145-0.024l-0.12,0.072c-0.988,0.65-2.169,1.012-3.35,1.012s-2.361-0.361-3.35-1.012
		l-0.12-0.072l-0.145,0.024c-3.229,0.819-4.94,2.892-4.94,6.024V108h16.796l0.313-0.024v-0.361
		C157.955,104.506,156.244,102.434,153.014,101.615z"/>
</g>
<g>
	<g>
		<path fill="#FFFFFF" d="M145.471,296.332c-0.143-0.398-0.799-0.398-0.941,0l-2.5,7c-0.093,0.26,0.043,0.546,0.303,0.641
			c0.261,0.092,0.546-0.043,0.639-0.305l0.595-1.668h2.867l0.596,1.668c0.073,0.205,0.265,0.332,0.47,0.332
			c0.056,0,0.112-0.009,0.168-0.027c0.26-0.095,0.395-0.381,0.303-0.641L145.471,296.332z M143.924,301l1.076-3.013l1.076,3.013
			H143.924z M159.5,289h-19c-1.378,0-2.5,1.122-2.5,2.5v17c0,1.378,1.122,2.5,2.5,2.5h19c1.378,0,2.5-1.122,2.5-2.5v-17
			C162,290.122,160.878,289,159.5,289z M144.5,291c0.276,0,0.5,0.224,0.5,0.5s-0.224,0.5-0.5,0.5s-0.5-0.224-0.5-0.5
			S144.224,291,144.5,291z M142.5,291c0.276,0,0.5,0.224,0.5,0.5s-0.224,0.5-0.5,0.5c-0.275,0-0.5-0.224-0.5-0.5
			S142.224,291,142.5,291z M140.5,291c0.276,0,0.5,0.224,0.5,0.5s-0.224,0.5-0.5,0.5s-0.5-0.224-0.5-0.5S140.224,291,140.5,291z
			 M140.5,310.001c-0.827,0-1.5-0.674-1.5-1.501V294h9.136l5.176,16.001H140.5z M152.537,303.188
			c0.199,0.49,0.724,1.172,1.335,1.865c-0.271,0.285-0.556,0.547-0.854,0.785L151.452,301h4.948
			c-0.236,0.79-0.916,2.096-1.865,3.293c-0.511-0.584-0.927-1.124-1.073-1.48c-0.104-0.256-0.396-0.381-0.651-0.275
			C152.555,302.641,152.432,302.934,152.537,303.188z M161,308.5c0,0.827-0.673,1.501-1.5,1.501h-5.136l-1.016-3.142
			c0.417-0.303,0.814-0.674,1.196-1.071c0.96,1.012,1.928,1.907,2.118,2.081c0.096,0.088,0.217,0.131,0.338,0.131
			c0.135,0,0.271-0.055,0.369-0.162c0.188-0.204,0.172-0.521-0.03-0.707c-0.468-0.429-1.331-1.253-2.129-2.097
			c1.138-1.402,1.984-3.013,2.216-4.035h1.074c0.276,0,0.5-0.224,0.5-0.501c0-0.276-0.224-0.499-0.5-0.499H155v-0.5
			c0-0.277-0.224-0.5-0.5-0.5s-0.5,0.223-0.5,0.5v0.5h-2.872l-1.941-6H161V308.5z"/>
	</g>
</g>
<g>
	<path fill="#FFFFFF" d="M59.5,289h-19c-1.379,0-2.5,1.122-2.5,2.5v17c0,1.378,1.121,2.5,2.5,2.5h19c1.379,0,2.5-1.122,2.5-2.5v-17
		C62,290.122,60.879,289,59.5,289z M40.5,290h19c0.827,0,1.5,0.673,1.5,1.5v1.5H39v-1.5C39,290.673,39.673,290,40.5,290z M39,308.5
		V294h9.136l5.176,16H40.5C39.673,310,39,309.327,39,308.5z M56.401,301c-0.236,0.789-0.917,2.098-1.866,3.294
		c-0.511-0.584-0.928-1.125-1.073-1.481c-0.103-0.254-0.396-0.379-0.651-0.274s-0.378,0.396-0.274,0.651
		c0.199,0.49,0.724,1.174,1.335,1.865c-0.271,0.285-0.556,0.549-0.855,0.786L51.451,301H56.401z M59.5,310h-5.137l-1.016-3.141
		c0.417-0.303,0.815-0.672,1.197-1.071c0.96,1.012,1.928,1.907,2.118,2.08C56.758,307.957,56.879,308,57,308
		c0.135,0,0.271-0.055,0.368-0.161c0.188-0.205,0.172-0.521-0.031-0.707c-0.468-0.429-1.33-1.253-2.128-2.096
		c1.139-1.404,1.985-3.015,2.217-4.036H58.5c0.276,0,0.5-0.225,0.5-0.5c0-0.276-0.224-0.5-0.5-0.5H55v-0.5
		c0-0.276-0.224-0.5-0.5-0.5s-0.5,0.224-0.5,0.5v0.5h-2.872l-1.941-6H61v14.5C61,309.327,60.327,310,59.5,310z"/>
	<circle fill="#FFFFFF" cx="40.5" cy="291.5" r="0.5"/>
	<circle fill="#FFFFFF" cx="42.5" cy="291.5" r="0.5"/>
	<circle fill="#FFFFFF" cx="44.5" cy="291.5" r="0.5"/>
	<path fill="#FFFFFF" d="M47.97,303.332l-2.5-7c-0.142-0.398-0.798-0.398-0.941,0l-2.5,7c-0.093,0.261,0.043,0.546,0.303,0.641
		c0.261,0.092,0.546-0.043,0.639-0.305L43.567,302h2.867l0.596,1.668c0.073,0.205,0.265,0.332,0.47,0.332
		c0.056,0,0.112-0.009,0.167-0.027C47.927,303.878,48.063,303.593,47.97,303.332z M43.924,301L45,297.987L46.076,301H43.924z"/>
</g>
</svg>
