<svg width="100%" height="100%" viewBox="0 0 100 100" version="1.1" xmlns="http://www.w3.org/2000/svg" xmlns:xlink="http://www.w3.org/1999/xlink">
      <title>telegram-icon</title>
      <defs>
        <linearGradient x1="66.67%" y1="16.67%" x2="41.67%" y2="75%" id="linearGradient-1">
            <stop stop-color="#FFFFFF" offset="0%"></stop>
            <stop stop-color="#FFFFFF" offset="100%"></stop>
        </linearGradient>
    </defs>
    <g id="Page-1" stroke="none" stroke-width="1" fill="none" fill-rule="evenodd">
        <g id="telegram-icon" fill="url(#linearGradient-1)">
            <path d="M35.0937328,56.7613828 L39.3434757,71.1567017 C39.8919848,72.7152701 39.6217393,73.3333333 41.2121212,73.3333333 L41.3450634,73.1527945 L41.3333333,73.3333333 C42.6060607,73.3333333 43.168394,72.7353752 43.8787879,72.0258447 L49.4547341,66.455848 L61.6751739,75.3825009 C63.9870113,76.6436793 65.6555477,75.9907029 66.231402,73.2603795 L74.4779403,34.8385279 C75.3222416,31.4917599 73.1876095,29.9738228 70.9759788,30.9665623 L22.55244,49.4275903 C19.24708,50.7383891 19.2663507,52.5616284 21.9499421,53.374028 L34.3765139,57.2087576 L35.0937328,56.7613828 Z M50,100 C22.3857625,100 0,77.6142375 0,50 C0,22.3857625 22.3857625,0 50,0 C77.6142375,0 100,22.3857625 100,50 C100,77.6142375 77.6142375,100 50,100 Z" id="Combined-Shape"></path>
        </g>
    </g>
</svg>