<svg width="24px" height="21px" viewBox="0 0 24 21" version="1.1" xmlns="http://www.w3.org/2000/svg" xmlns:xlink="http://www.w3.org/1999/xlink">
    <title>twitter</title>
    <desc></desc>
    <g id="Page-1" stroke="none" stroke-width="1" fill="none" fill-rule="evenodd">
        <g id="Homepage3" transform="translate(-1189.000000, -2788.000000)" fill="#FFFFFF" fill-rule="nonzero">
            <g id="Footer" transform="translate(0.000000, 2709.000000)">
                <g id="Social" transform="translate(1124.000000, 25.000000)">
                    <g id="twitter" transform="translate(65.000000, 54.000000)">
                        <path d="M24,2.79183673 C23.0942583,3.18431195 22.1380453,3.44809484 21.1591837,3.5755102 C22.1993437,2.96755064 22.9696815,1.9871207 23.3142857,0.832653061 C22.3624444,1.41254579 21.3190415,1.82659454 20.2285714,2.05714286 C19.2938719,1.04923708 17.9786546,0.480494442 16.6040816,0.489795918 C15.2735963,0.458450184 13.9921443,0.992388515 13.077551,1.95918367 C12.1513223,2.87727434 11.638533,4.13272403 11.6571429,5.43673469 C11.6602369,5.83295269 11.7095499,6.22745662 11.8040816,6.6122449 C7.86047474,6.40826238 4.18292899,4.56060654 1.66530612,1.51836735 C1.25447081,2.25203504 1.03546179,3.07753059 1.02857143,3.91836735 C0.982687872,5.58337848 1.82109879,7.14841219 3.23265306,8.03265306 C2.43831015,8.02497783 1.66045189,7.80514832 0.979591837,7.39591837 L0.979591837,7.49387755 C0.959392645,8.63291297 1.34088015,9.74269479 2.05714286,10.6285714 C2.77809247,11.5012834 3.7842794,12.0911171 4.89795918,12.2938776 C4.46610217,12.4040143 4.02101048,12.4534689 3.5755102,12.4408163 L2.64489796,12.3428571 C2.94716501,13.3178785 3.54651678,14.1740953 4.35918367,14.7918367 C5.17519975,15.4171187 6.17201756,15.760849 7.2,15.7714286 C5.52631652,17.2318052 3.39596097,18.0631635 1.1755102,18.122449 L0,18.0734694 C5.18040141,21.0810342 11.6655808,20.6551418 16.4081633,16.9959184 C17.4864476,16.0553003 18.4263577,14.9669833 19.2,13.7632653 C20.7275262,11.470943 21.545292,8.77913045 21.5510204,6.0244898 L21.5510204,5.3877551 C22.5158088,4.67562799 23.3452337,3.79643752 24,2.79183673 Z" id="Path"></path>
                    </g>
                </g>
            </g>
        </g>
    </g>
</svg>