<svg width="12px" height="24px" viewBox="0 0 12 24" version="1.1" xmlns="http://www.w3.org/2000/svg" xmlns:xlink="http://www.w3.org/1999/xlink">
    <title>facebook</title>
    <desc></desc>
    <g id="Page-1" stroke="none" stroke-width="1" fill="none" fill-rule="evenodd">
        <g id="Homepage3" transform="translate(-1124.000000, -2787.000000)" fill="#FFFFFF" fill-rule="nonzero">
            <g id="Footer" transform="translate(0.000000, 2709.000000)">
                <g id="Social" transform="translate(1124.000000, 25.000000)">
                    <g id="facebook" transform="translate(0.000000, 53.000000)">
                        <path d="M7.34693878,24 L7.34693878,13.0285714 L11.4612245,13.0285714 L11.755102,9.0122449 L7.34693878,9.0122449 L7.34693878,6.0244898 C7.34693878,4.70204082 7.68979592,4.01632653 9.06122449,4.01632653 L11.6081633,4.01632653 L11.755102,0.195918367 L11.3632653,0.195918367 C10.519247,0.0771489324 9.66857994,0.0117130039 8.81632653,-4.59632332e-15 C6.85714286,-4.59632332e-15 5.3877551,0.53877551 4.40816327,1.56734694 C3.41984484,2.62799544 2.89156475,4.03674233 2.93877551,5.48571429 L2.93877551,9.0122449 L0,9.0122449 L0,13.0285714 L2.93877551,13.0285714 L2.93877551,24 L7.34693878,24 Z" id="Path"></path>
                    </g>
                </g>
            </g>
        </g>
    </g>
</svg>