<svg width="83px" height="64px" viewBox="0 0 83 64" version="1.1" xmlns="http://www.w3.org/2000/svg" xmlns:xlink="http://www.w3.org/1999/xlink">    
    <title>Group 10</title>
    <desc></desc>
    <defs>
        <linearGradient x1="-2.22044605e-14%" y1="50%" x2="100%" y2="50%" id="linearGradient-1">
            <stop stop-color="#F43B47" offset="0%"></stop>
            <stop stop-color="#453A94" offset="100%"></stop>
        </linearGradient>
    </defs>
    <g id="Page-1" stroke="none" stroke-width="1" fill="none" fill-rule="evenodd">
        <g id="Homepage3" transform="translate(-679.000000, -716.000000)" fill="url(#linearGradient-1)" fill-rule="nonzero">
            <g id="Contract-Type" transform="translate(0.000000, 520.000000)">
                <g id="Group-16" transform="translate(150.000000, 196.000000)">
                    <g id="Group-5" transform="translate(390.000000, 0.000000)">
                        <g id="Group-10" transform="translate(139.000000, 0.000000)">
                            <path d="M82.2857143,10.6544046 C82.2857143,11.6928018 81.4439287,12.5345947 80.405525,12.5345947 C79.3671278,12.5345947 78.8953783,11.6246318 78.5253422,10.6544046 L78.5253422,6.42397897 L51.9744146,32.9747383 C51.2939191,33.6552293 50.3492133,34.0715154 49.3108133,34.0715154 C48.3484535,34.0715154 47.3814784,33.7089957 46.6472119,32.9747383 L26.4307374,12.7585179 C25.6964745,12.0242651 25.6964791,10.8291749 26.4307374,10.0949166 C27.1649948,9.3606592 28.3401353,9.36101851 29.0747529,10.0949166 L49.3108133,30.3111369 L75.8617408,3.76037851 L71.6313125,3.76037851 C70.5929143,3.76037851 69.7511232,2.9185856 69.7511232,1.88018926 C69.7511232,0.841792 70.5929143,-5.68434189e-14 71.6313125,-5.68434189e-14 L80.405525,-5.68434189e-14 C81.4439287,-5.68434189e-14 82.2857143,0.841792 82.2857143,1.88018926 L82.2857143,10.6544046 Z" id="Path"></path>
                            <path d="M56.4056759,42.6421211 C56.4056759,41.6037239 55.5638848,40.7619319 54.5254857,40.7619319 C53.4870866,40.7619319 52.2752622,41.671893 52.6452974,42.6421211 L52.6452974,46.8725495 L35.7750455,30.0024594 C35.094549,29.3219703 34.1498441,28.9056823 33.1114441,28.9056823 C32.1490844,28.9056823 31.1821074,29.2682002 30.4478428,30.0024594 L0.550695051,59.8993545 C-0.18356744,60.633611 -0.183562594,61.8286967 0.550695051,62.5629595 C1.28495288,63.2972142 2.46021185,63.296971 3.19471105,62.5629595 L33.1114441,32.6660608 L49.981696,49.5361463 L45.7512704,49.5361463 C44.7128732,49.5361463 43.8710812,50.3779374 43.8710812,51.4163346 C43.8710812,52.4547319 44.7128732,53.296523 45.7512704,53.296523 L54.5254857,53.296523 C55.5638848,53.296523 56.4056759,52.4547319 56.4056759,51.4163346 L56.4056759,42.6421211 Z" id="Path"></path>
                        </g>
                    </g>
                </g>
            </g>
        </g>
    </g>
</svg>