<?xml version="1.0" encoding="UTF-8"?>
<svg width="37px" height="64px" viewBox="0 0 37 64" version="1.1" xmlns="http://www.w3.org/2000/svg" xmlns:xlink="http://www.w3.org/1999/xlink">
    <title>Shape</title>
    <desc></desc>
    <g id="Page-1" stroke="none" stroke-width="1" fill="none" fill-rule="evenodd">
        <g id="Homepage3" transform="translate(-749.000000, -1310.000000)" fill="#FFFFFF" fill-rule="nonzero">
            <g id="Choose-Bitfex" transform="translate(0.000000, 920.000000)">
                <g id="Group-9-Copy" transform="translate(749.000000, 385.000000)">
                    <path d="M31.0292812,67.0036869 L26.7525181,67.0036869 C26.1155534,64.5082955 22.9307298,62.4121668 19.1999365,62.1127198 L19.1999365,56.6228587 L24.9326189,56.6228587 C26.5705282,56.6228587 27.8444576,55.2254396 27.8444576,53.4287578 C27.8444576,52.0313386 27.025503,50.8335507 25.8425685,50.4342881 C26.2975433,46.3418463 27.9354526,42.7484827 30.4833115,40.1532756 C34.8510695,35.8612024 37.0349485,29.7724475 36.4889788,23.2844299 C35.8520141,13.8019426 29.0273921,6.21595283 20.4738659,5.11798062 C9.28148587,3.8203771 0,13.40268 0,25.1809273 C0,30.8704197 2.18387903,36.2604651 6.00566733,40.05346 C8.82651108,42.8482983 10.4644203,46.5414776 10.8284002,50.4342881 C9.64546571,50.8335507 8.82651108,52.0313386 8.82651108,53.4287578 C8.82651108,55.2254396 10.1004405,56.6228587 11.7383498,56.6228587 L17.4710322,56.6228587 L17.4710322,62.1127198 C13.7402389,62.4121668 10.6464103,64.5082955 9.91845059,67.0036869 L5.64168749,67.0036869 C5.18671269,67.0036869 4.7317379,67.4029495 4.7317379,68.0018434 C4.7317379,68.5009217 5.09571773,69 5.64168749,69 C14.4681986,69 25.8425685,69 31.0292812,69 C31.484256,69 31.9392308,68.6007374 31.9392308,68.0018434 C31.9392308,67.4029495 31.575251,67.0036869 31.0292812,67.0036869 Z M7.27959676,38.5562251 C3.8217883,35.1624929 1.81989919,30.1717101 1.81989919,25.0811117 C1.81989919,14.6004679 10.1004405,5.81669021 20.291876,7.01447807 C28.0264475,7.91281897 34.2141048,14.8000992 34.9420645,23.3842455 C35.3970393,29.1735535 33.4861451,34.7632302 29.4823669,38.6560408 C26.4795332,41.5506948 24.659634,45.6431367 24.2046592,50.2346568 L19.2909314,50.2346568 L19.2909314,41.4508791 L24.2046592,36.0608338 C25.4785887,36.859359 27.025503,36.559912 28.0264475,35.4619398 C29.300377,34.0645207 29.300377,31.8685762 28.0264475,30.4711571 C26.8435131,29.1735535 24.659634,29.1735535 23.4766996,30.4711571 C22.475755,31.5691293 22.2027701,33.2659954 22.9307298,34.6634146 L19.2909314,38.6560408 L19.2909314,25.58019 L22.0207802,22.5857203 C23.3857046,23.4840612 25.1146088,23.1846142 26.2065484,21.9868264 C27.5714727,20.4895915 27.5714727,18.0940158 26.2065484,16.6965966 C24.841624,15.1993618 22.6577449,15.1993618 21.3838155,16.6965966 C20.291876,17.8943845 20.0188911,19.6910663 20.8378457,21.2881168 L17.8350121,24.5820334 C17.6530222,24.7816647 17.5620272,24.981296 17.5620272,25.280743 L17.5620272,30.8704197 L13.6492439,26.5783465 C14.3772036,25.0811117 14.1042187,23.4840612 13.1032742,22.386089 C11.8293447,20.9886698 9.82745563,20.9886698 8.5535262,22.386089 C7.27959676,23.7835082 7.27959676,25.9794526 8.5535262,27.3768717 C9.55447075,28.474844 11.1013851,28.7742909 12.3753145,27.9757657 L17.5620272,33.665258 L17.5620272,50.3344725 L12.7392943,50.3344725 C12.2843195,45.842768 10.3734254,41.7503261 7.27959676,38.5562251 Z M24.659634,31.8685762 C25.2056038,31.2696823 26.1155534,31.2696823 26.7525181,31.8685762 C27.2984879,32.4674702 27.2984879,33.4656267 26.7525181,34.1643363 C26.7525181,34.1643363 26.7525181,34.1643363 26.7525181,34.1643363 C26.2065484,34.7632302 25.2965988,34.7632302 24.659634,34.1643363 C24.1136643,33.4656267 24.1136643,32.4674702 24.659634,31.8685762 Z M22.475755,17.9942002 C23.1127197,17.2954906 24.2046592,17.2954906 24.841624,17.9942002 C25.4785887,18.6929097 25.4785887,19.8906976 24.841624,20.5894072 C24.841624,20.5894072 24.841624,20.5894072 24.841624,20.5894072 C24.2046592,21.2881168 23.1127197,21.2881168 22.475755,20.5894072 C21.8387903,19.8906976 21.8387903,18.6929097 22.475755,17.9942002 Z M9.73646067,25.8796369 C9.19049091,25.280743 9.19049091,24.1827708 9.73646067,23.5838768 C10.2824304,22.9849829 11.283375,22.9849829 11.8293447,23.5838768 C12.3753145,24.1827708 12.3753145,25.1809273 11.8293447,25.8796369 C11.19238,26.4785309 10.2824304,26.4785309 9.73646067,25.8796369 Z M10.6464103,53.4287578 C10.6464103,52.7300482 11.19238,52.1311543 11.8293447,52.1311543 L25.0236139,52.1311543 C25.0236139,52.1311543 25.0236139,52.1311543 25.0236139,52.1311543 C25.6605786,52.1311543 26.2065484,52.7300482 26.2065484,53.4287578 C26.2065484,54.1274674 25.6605786,54.7263613 25.0236139,54.7263613 L11.8293447,54.7263613 C11.19238,54.7263613 10.6464103,54.1274674 10.6464103,53.4287578 Z M11.8293447,67.0036869 C12.6482994,65.5064521 15.2871532,64.1090329 18.3809818,64.1090329 C21.4748105,64.1090329 24.0226693,65.5064521 24.9326189,67.0036869 L11.8293447,67.0036869 Z" id="Shape"></path>
                </g>
            </g>
        </g>
    </g>
</svg>