<svg width="24px" height="24px" viewBox="0 0 24 24" version="1.1" xmlns="http://www.w3.org/2000/svg" xmlns:xlink="http://www.w3.org/1999/xlink">
    <title>linkedin</title>
    <desc></desc>
    <g id="Page-1" stroke="none" stroke-width="1" fill="none" fill-rule="evenodd">
        <g id="Homepage3" transform="translate(-1124.000000, -2841.000000)" fill="#FFFFFF" fill-rule="nonzero">
            <g id="Footer" transform="translate(0.000000, 2709.000000)">
                <g id="Social" transform="translate(1124.000000, 25.000000)">
                    <g id="linkedin" transform="translate(0.000000, 107.000000)">
                        <path d="M21.3061224,0.489795918 L1.71428571,0.489795918 C1.26419511,0.476552188 0.827924942,0.646139419 0.504944501,0.959891848 C0.181964059,1.27364428 -0.000194803504,1.70481667 0,2.15510204 L0,21.844898 C-0.000194803504,22.2951833 0.181964059,22.7263557 0.504944501,23.0401082 C0.827924942,23.3538606 1.26419511,23.5234478 1.71428571,23.5102041 L21.3061224,23.5102041 C21.7562131,23.5234478 22.1924832,23.3538606 22.5154637,23.0401082 C22.8384441,22.7263557 23.020603,22.2951833 23.0204082,21.844898 L23.0204082,2.15510204 C23.020603,1.70481667 22.8384441,1.27364428 22.5154637,0.959891848 C22.1924832,0.646139419 21.7562131,0.476552188 21.3061224,0.489795918 Z M6.80816327,20.1306122 L3.42857143,20.1306122 L3.42857143,9.11020408 L6.85714286,9.11020408 L6.80816327,20.1306122 Z M5.14285714,7.64081633 C4.06082988,7.64081633 3.18367347,6.76365992 3.18367347,5.68163265 C3.18367347,4.59960539 4.06082988,3.72244898 5.14285714,3.72244898 C6.22488441,3.72244898 7.10204082,4.59960539 7.10204082,5.68163265 C7.10204082,6.76365992 6.22488441,7.64081633 5.14285714,7.64081633 Z M19.6408163,20.1306122 L16.2122449,20.1306122 L16.2122449,14.7428571 C16.2122449,13.4693878 16.2122449,11.8530612 14.4489796,11.8530612 C12.6857143,11.8530612 12.3918367,13.2244898 12.3918367,14.6938776 L12.3918367,20.1306122 L8.96326531,20.1306122 L8.96326531,9.11020408 L12.244898,9.11020408 L12.244898,10.6285714 L12.2938776,10.6285714 C12.9626778,9.48848137 14.2058942,8.81036332 15.5265306,8.86530612 C19.0040816,8.86530612 19.6408163,11.1673469 19.6408163,14.1061224 L19.6408163,20.0816327 L19.6408163,20.1306122 Z" id="Shape"></path>
                    </g>
                </g>
            </g>
        </g>
    </g>
</svg>