<svg width="77px" height="64px" viewBox="0 0 77 64" version="1.1" xmlns="http://www.w3.org/2000/svg" xmlns:xlink="http://www.w3.org/1999/xlink">
    <title>Group</title>
    <desc></desc>
    <defs>
        <linearGradient x1="-2.22044605e-14%" y1="50%" x2="100%" y2="50%" id="linearGradient-1">
            <stop stop-color="#F43B47" offset="0%"></stop>
            <stop stop-color="#453A94" offset="100%"></stop>
        </linearGradient>
    </defs>
    <g id="Page-1" stroke="none" stroke-width="1" fill="none" fill-rule="evenodd">
        <g id="Homepage3" transform="translate(-292.000000, -716.000000)" fill="url(#linearGradient-1)" fill-rule="nonzero">
            <g id="Contract-Type" transform="translate(0.000000, 520.000000)">
                <g id="Group-16" transform="translate(150.000000, 196.000000)">
                    <g id="Group-6">
                        <g id="Group" transform="translate(142.000000, 0.000000)">
                            <ellipse id="Oval" cx="13.0865672" cy="25.9820896" rx="12.7044776" ry="5.6358209"></ellipse>
                            <path d="M13.0865672,37.2537313 C7.1641791,37.2537313 2.29253731,35.438806 0.859701493,33.0507463 C0.573134328,33.5283582 0.382089552,33.9104478 0.382089552,34.4835821 C0.382089552,37.5402985 6.01791045,40.119403 13.0865672,40.119403 C20.1552239,40.119403 25.7910448,37.6358209 25.7910448,34.4835821 C25.7910448,34.0059701 25.6,33.5283582 25.3134328,33.0507463 C23.880597,35.438806 18.9134328,37.2537313 13.0865672,37.2537313 Z" id="Path"></path>
                            <path d="M13.0865672,45.6597015 C7.1641791,45.6597015 2.29253731,43.8447761 0.859701493,41.4567164 C0.573134328,41.9343284 0.382089552,42.3164179 0.382089552,42.8895522 C0.382089552,45.9462687 6.01791045,48.5253731 13.0865672,48.5253731 C20.1552239,48.5253731 25.7910448,46.041791 25.7910448,42.8895522 C25.7910448,42.4119403 25.6,41.9343284 25.3134328,41.4567164 C23.880597,43.8447761 18.9134328,45.6597015 13.0865672,45.6597015 Z" id="Path"></path>
                            <ellipse id="Oval" cx="64.2865672" cy="21.8746269" rx="12.7044776" ry="5.6358209"></ellipse>
                            <path d="M64.2865672,33.0507463 C58.3641791,33.0507463 53.4925373,31.2358209 52.0597015,28.8477612 C51.7731343,29.3253731 51.5820896,29.7074627 51.5820896,30.280597 C51.5820896,33.3373134 57.2179104,35.9164179 64.2865672,35.9164179 C71.3552239,35.9164179 76.9910448,33.4328358 76.9910448,30.280597 C76.9910448,29.8029851 76.8,29.3253731 76.5134328,28.8477612 C75.080597,31.3313433 70.2089552,33.0507463 64.2865672,33.0507463 Z" id="Path"></path>
                            <path d="M64.2865672,41.5522388 C58.3641791,41.5522388 53.4925373,39.7373134 52.0597015,37.3492537 C51.7731343,37.8268657 51.5820896,38.2089552 51.5820896,38.7820896 C51.5820896,41.838806 57.2179104,44.4179104 64.2865672,44.4179104 C71.3552239,44.4179104 76.9910448,41.9343284 76.9910448,38.7820896 C76.9910448,38.3044776 76.8,37.8268657 76.5134328,37.3492537 C75.080597,39.7373134 70.2089552,41.5522388 64.2865672,41.5522388 Z" id="Path"></path>
                            <path d="M64.1910448,13.4686567 C52.919403,1.81492537 34.1970149,1.6238806 22.638806,12.8955224 L19.9641791,10.1253731 C33.1462687,-2.67462687 54.2567164,-2.3880597 67.0567164,10.7940299 L64.1910448,13.4686567 Z" id="Path"></path>
                            <polyline id="Path" points="26.841791 17.2895522 15.1880597 16.5253731 15.9522388 4.96716418"></polyline>
                            <path d="M32.3820896,63.5223881 C23.6895522,63.5223881 14.9970149,60.1791045 8.50149254,53.3970149 L11.2716418,50.7223881 C22.5432836,62.3761194 41.2656716,62.5671642 52.8238806,51.3910448 L55.4985075,54.161194 C49.0985075,60.3701493 40.7880597,63.5223881 32.3820896,63.5223881 Z" id="Path"></path>
                            <polyline id="Path" points="48.6208955 46.9970149 60.2746269 47.6656716 59.5104478 59.319403"></polyline>
                        </g>
                    </g>
                </g>
            </g>
        </g>
    </g>
</svg>