<svg width="87px" height="64px" viewBox="0 0 87 64" version="1.1" xmlns="http://www.w3.org/2000/svg" xmlns:xlink="http://www.w3.org/1999/xlink">
    <title></title>
    <desc></desc>
    <defs>
        <linearGradient x1="-2.22044605e-14%" y1="50%" x2="100%" y2="50%" id="linearGradient-1">
            <stop stop-color="#F43B47" offset="0%"></stop>
            <stop stop-color="#453A94" offset="100%"></stop>
        </linearGradient>
    </defs>
    <g id="Page-1" stroke="none" stroke-width="1" fill="none" fill-rule="evenodd">
        <g id="Homepage3" transform="translate(-1067.000000, -716.000000)" fill="url(#linearGradient-1)" fill-rule="nonzero">
            <g id="Contract-Type" transform="translate(0.000000, 520.000000)">
                <g id="Group-16" transform="translate(150.000000, 196.000000)">
                    <g id="Group-4" transform="translate(780.000000, 0.000000)">
                        <g id="noun_Initial-public-offer_1381274" transform="translate(137.000000, 0.000000)">
                            <path d="M56,57.1428571 L59.4285714,57.1428571 L59.4285714,43.4285714 L56,43.4285714 L56,57.1428571 Z M48,57.1428571 L48,37.7142857 L44.5714286,37.7142857 L44.5714286,57.1428571 L48,57.1428571 Z M70.8571429,57.1428571 L70.8571429,30.2857143 L67.4285714,30.2857143 L67.4285714,57.1428571 L70.8571429,57.1428571 Z M14.9782857,36.9645714 C14.136,36.3622857 13.1131429,36 12,36 C9.16114286,36 6.85714286,38.304 6.85714286,41.1428571 C6.85714286,43.9817143 9.16114286,46.2857143 12,46.2857143 C14.8388571,46.2857143 17.1428571,43.9817143 17.1428571,41.1428571 C17.1428571,40.6674286 17.0571429,40.2148571 16.936,39.7782857 L31.8742857,29.32 C32.7165714,29.9222857 33.7417143,30.2868571 34.856,30.2868571 C36.368,30.2868571 37.7154286,29.6205714 38.6571429,28.5805714 L52.5782857,34.3668571 C52.6217143,37.168 54.9005714,39.4308571 57.7131429,39.4308571 C60.552,39.4308571 62.856,37.1268571 62.856,34.288 C62.856,33.4057143 62.6125714,32.5885714 62.2205714,31.8617143 L78.0537143,12.616 C78.8251429,12.9531429 79.6742857,13.144 80.5702857,13.144 C84.0411429,13.144 86.856,10.3302857 86.856,6.85942857 C86.856,3.38857143 84.0411429,0.573714286 80.5702857,0.573714286 C77.0994286,0.573714286 74.2857143,3.38628571 74.2857143,6.85714286 C74.2857143,8.18742857 74.7017143,9.41942857 75.4068571,10.4354286 L59.6902857,29.5394286 C59.0811429,29.2857143 58.4148571,29.1428571 57.7142857,29.1428571 C56.0765714,29.1428571 54.6354286,29.9234286 53.6925714,31.1165714 L39.9725714,25.4125714 C39.9771429,25.3211429 40,25.2354286 40,25.1428571 C40,22.304 37.696,20 34.8571429,20 C32.0182857,20 29.7142857,22.304 29.7142857,25.1428571 C29.7142857,25.6171429 29.7988571,26.0685714 29.92,26.504 L14.9782857,36.9645714 Z M80.5714286,2.85714286 C82.7805714,2.85714286 84.5714286,4.648 84.5714286,6.85714286 C84.5714286,9.06628571 82.7805714,10.8571429 80.5714286,10.8571429 C78.3622857,10.8571429 76.5714286,9.06628571 76.5714286,6.85714286 C76.5714286,4.648 78.3622857,2.85714286 80.5714286,2.85714286 Z M78.8571429,57.1428571 L82.2857143,57.1428571 L82.2857143,17.1428571 L78.8571429,17.1428571 L78.8571429,57.1428571 Z M3.42857143,0 L0,0 L0,64 L85.7142857,64 L85.7142857,60.5714286 L3.42857143,60.5714286 L3.42857143,0 Z M33.1428571,57.1428571 L36.5714286,57.1428571 L36.5714286,34.2857143 L33.1428571,34.2857143 L33.1428571,57.1428571 Z M10.2857143,57.1428571 L13.7142857,57.1428571 L13.7142857,49.7142857 L10.2857143,49.7142857 L10.2857143,57.1428571 Z M25.1428571,57.1428571 L25.1428571,41.1428571 L21.7142857,41.1428571 L21.7142857,57.1428571 L25.1428571,57.1428571 Z" id="Shape"></path>
                        </g>
                    </g>
                </g>
            </g>
        </g>
    </g>
</svg>