<svg width="100%" height="100%" viewBox="0 0 166 78" version="1.1" xmlns="http://www.w3.org/2000/svg" xmlns:xlink="http://www.w3.org/1999/xlink">
     <title>Group</title>
    <desc></desc>
    <g id="Page-1" stroke="none" stroke-width="1" fill="none" fill-rule="evenodd">
        <g id="Group" fill="#FFFFFF" fill-rule="nonzero">
            <g id="facebook" transform="translate(0.000000, 0.000000)">
                <path d="M7.34693878,24 L7.34693878,13.0285714 L11.4612245,13.0285714 L11.755102,9.0122449 L7.34693878,9.0122449 L7.34693878,6.0244898 C7.34693878,4.70204082 7.68979592,4.01632653 9.06122449,4.01632653 L11.6081633,4.01632653 L11.755102,0.195918367 L11.3632653,0.195918367 C10.519247,0.0771489324 9.66857994,0.0117130039 8.81632653,-4.59632332e-15 C6.85714286,-4.59632332e-15 5.3877551,0.53877551 4.40816327,1.56734694 C3.41984484,2.62799544 2.89156475,4.03674233 2.93877551,5.48571429 L2.93877551,9.0122449 L0,9.0122449 L0,13.0285714 L2.93877551,13.0285714 L2.93877551,24 L7.34693878,24 Z" id="Path"></path>
            </g>
            <g id="twitter" transform="translate(65.000000, 1.000000)">
                <path d="M24,2.79183673 C23.0942583,3.18431195 22.1380453,3.44809484 21.1591837,3.5755102 C22.1993437,2.96755064 22.9696815,1.9871207 23.3142857,0.832653061 C22.3624444,1.41254579 21.3190415,1.82659454 20.2285714,2.05714286 C19.2938719,1.04923708 17.9786546,0.480494442 16.6040816,0.489795918 C15.2735963,0.458450184 13.9921443,0.992388515 13.077551,1.95918367 C12.1513223,2.87727434 11.638533,4.13272403 11.6571429,5.43673469 C11.6602369,5.83295269 11.7095499,6.22745662 11.8040816,6.6122449 C7.86047474,6.40826238 4.18292899,4.56060654 1.66530612,1.51836735 C1.25447081,2.25203504 1.03546179,3.07753059 1.02857143,3.91836735 C0.982687872,5.58337848 1.82109879,7.14841219 3.23265306,8.03265306 C2.43831015,8.02497783 1.66045189,7.80514832 0.979591837,7.39591837 L0.979591837,7.49387755 C0.959392645,8.63291297 1.34088015,9.74269479 2.05714286,10.6285714 C2.77809247,11.5012834 3.7842794,12.0911171 4.89795918,12.2938776 C4.46610217,12.4040143 4.02101048,12.4534689 3.5755102,12.4408163 L2.64489796,12.3428571 C2.94716501,13.3178785 3.54651678,14.1740953 4.35918367,14.7918367 C5.17519975,15.4171187 6.17201756,15.760849 7.2,15.7714286 C5.52631652,17.2318052 3.39596097,18.0631635 1.1755102,18.122449 L0,18.0734694 C5.18040141,21.0810342 11.6655808,20.6551418 16.4081633,16.9959184 C17.4864476,16.0553003 18.4263577,14.9669833 19.2,13.7632653 C20.7275262,11.470943 21.545292,8.77913045 21.5510204,6.0244898 L21.5510204,5.3877551 C22.5158088,4.67562799 23.3452337,3.79643752 24,2.79183673 Z" id="Path"></path>
            </g>
            <g id="instagram" transform="translate(142.000000, 0.000000)">
                <path d="M12,2.15510204 L16.8489796,2.25306122 C17.6170577,2.25182421 18.3794785,2.38441912 19.1020408,2.64489796 C19.6179963,2.83526855 20.0860749,3.13617621 20.4734694,3.52653061 C20.8626031,3.91491135 21.1633274,4.38270476 21.355102,4.89795918 C21.6136711,5.62102638 21.7462077,6.38311181 21.7469388,7.15102041 C21.7959184,8.4244898 21.844898,8.81632653 21.844898,12 C21.844898,15.1836735 21.844898,15.5755102 21.7469388,16.8489796 C21.7462077,17.6168882 21.6136711,18.3789736 21.355102,19.1020408 C20.952431,20.163389 20.1144094,21.0014106 19.0530612,21.4040816 C18.329994,21.6626507 17.5679086,21.7951873 16.8,21.7959184 L11.9510204,21.8938776 L7.10204082,21.7959184 C6.33413222,21.7951873 5.57204679,21.6626507 4.84897959,21.4040816 C3.82481853,20.9785348 3.0255351,20.1437276 2.64489796,19.1020408 C2.38632887,18.3789736 2.25379227,17.6168882 2.25306122,16.8489796 C2.20408163,15.5755102 2.15510204,15.1836735 2.15510204,12 C2.15510204,8.81632653 2.15510204,8.4244898 2.25306122,7.15102041 C2.25379227,6.38311181 2.38632887,5.62102638 2.64489796,4.89795918 C2.83667258,4.38270476 3.13739692,3.91491135 3.52653061,3.52653061 C3.91392509,3.13617621 4.38200368,2.83526855 4.89795918,2.64489796 C5.62052151,2.38441912 6.38294228,2.25182421 7.15102041,2.25306122 L12,2.15510204 Z M12,0 L7.05306122,0.0979591837 C6.04985843,0.108085108 5.05583604,0.290322546 4.11428571,0.636734694 C2.51015362,1.26999189 1.24749564,2.55043379 0.636734694,4.16326531 C0.27905891,5.08643565 0.0803299676,6.06351961 0.0489795918,7.05306122 C0,8.32653061 0,8.71836735 0,12 C0,15.2816327 0,15.6734694 0.0489795918,16.9469388 C0.0646547329,17.9336613 0.246806348,18.9106564 0.587755102,19.8367347 C1.20952219,21.4594495 2.49157086,22.7414982 4.11428571,23.3632653 C5.04036404,23.7042141 6.01735907,23.8863657 7.00408163,23.9020408 L11.9510204,24 L16.8979592,23.9020408 C17.8846817,23.8863657 18.8616768,23.7042141 19.7877551,23.3632653 C21.41047,22.7414982 22.6925186,21.4594495 23.3142857,19.8367347 C23.6552345,18.9106564 23.8373861,17.9336613 23.8530612,16.9469388 C23.9020408,15.6734694 23.9510204,15.2816327 23.9510204,12 C23.9510204,8.71836735 23.9510204,8.32653061 23.8530612,7.05306122 C23.8373861,6.06633866 23.6552345,5.08934363 23.3142857,4.16326531 C22.6925186,2.54055045 21.41047,1.25850178 19.7877551,0.636734694 C18.8771612,0.301155041 17.9171699,0.119087726 16.9469388,0.0979591837 L12,0 Z M12,5.82857143 C8.59161412,5.82857143 5.82857143,8.59161412 5.82857143,12 C5.82857143,15.4083859 8.59161412,18.1714286 12,18.1714286 C15.4083859,18.1714286 18.1714286,15.4083859 18.1714286,12 C18.1714286,8.59161412 15.4083859,5.82857143 12,5.82857143 Z M12,16.0163265 C9.78184411,16.0163265 7.98367347,14.2181559 7.98367347,12 C7.98367347,9.78184411 9.78184411,7.98367347 12,7.98367347 C14.2181559,7.98367347 16.0163265,9.78184411 16.0163265,12 C16.0163265,14.2181559 14.2181559,16.0163265 12,16.0163265 Z M19.8367347,5.63265306 C19.8367347,6.41712283 19.2007963,7.05306122 18.4163265,7.05306122 C17.6318568,7.05306122 16.9959184,6.41712283 16.9959184,5.63265306 C16.9959184,4.84818329 17.6318568,4.2122449 18.4163265,4.2122449 C19.2007963,4.2122449 19.8367347,4.84818329 19.8367347,5.63265306 Z" id="Shape"></path>
            </g>
            <g id="linkedin" transform="translate(0.000000, 54.000000)">
                <path d="M21.3061224,0.489795918 L1.71428571,0.489795918 C1.26419511,0.476552188 0.827924942,0.646139419 0.504944501,0.959891848 C0.181964059,1.27364428 -0.000194803504,1.70481667 0,2.15510204 L0,21.844898 C-0.000194803504,22.2951833 0.181964059,22.7263557 0.504944501,23.0401082 C0.827924942,23.3538606 1.26419511,23.5234478 1.71428571,23.5102041 L21.3061224,23.5102041 C21.7562131,23.5234478 22.1924832,23.3538606 22.5154637,23.0401082 C22.8384441,22.7263557 23.020603,22.2951833 23.0204082,21.844898 L23.0204082,2.15510204 C23.020603,1.70481667 22.8384441,1.27364428 22.5154637,0.959891848 C22.1924832,0.646139419 21.7562131,0.476552188 21.3061224,0.489795918 Z M6.80816327,20.1306122 L3.42857143,20.1306122 L3.42857143,9.11020408 L6.85714286,9.11020408 L6.80816327,20.1306122 Z M5.14285714,7.64081633 C4.06082988,7.64081633 3.18367347,6.76365992 3.18367347,5.68163265 C3.18367347,4.59960539 4.06082988,3.72244898 5.14285714,3.72244898 C6.22488441,3.72244898 7.10204082,4.59960539 7.10204082,5.68163265 C7.10204082,6.76365992 6.22488441,7.64081633 5.14285714,7.64081633 Z M19.6408163,20.1306122 L16.2122449,20.1306122 L16.2122449,14.7428571 C16.2122449,13.4693878 16.2122449,11.8530612 14.4489796,11.8530612 C12.6857143,11.8530612 12.3918367,13.2244898 12.3918367,14.6938776 L12.3918367,20.1306122 L8.96326531,20.1306122 L8.96326531,9.11020408 L12.244898,9.11020408 L12.244898,10.6285714 L12.2938776,10.6285714 C12.9626778,9.48848137 14.2058942,8.81036332 15.5265306,8.86530612 C19.0040816,8.86530612 19.6408163,11.1673469 19.6408163,14.1061224 L19.6408163,20.0816327 L19.6408163,20.1306122 Z" id="Shape"></path>
            </g>
            <g id="youtube" transform="translate(61.000000, 55.000000)">
                <path d="M11.0693878,0 C6.85714286,0.0489795918 4.11428571,0.244897959 2.79183673,0.734693878 C1.57918056,1.18386665 0.676062465,2.21600161 0.391836735,3.47755102 C0.146938776,4.50612245 0,6.75918367 0,10.2857143 L0,12.244898 C0.0489795918,15.1836735 0.293877551,17.1428571 0.783673469,18.0734694 C1.27346939,19.0040816 2.49795918,19.8857143 4.26122449,20.2285714 C6.0244898,20.5714286 9.11020408,20.6204082 14.4489796,20.6204082 L17.8285714,20.6204082 C22.0408163,20.5714286 24.7836735,20.3755102 26.1061224,19.8367347 C27.3187786,19.3875619 28.2218967,18.355427 28.5061224,17.0938776 C28.7510204,16.0653061 28.8979592,13.8122449 28.8979592,10.2857143 L28.8979592,8.32653061 C28.8489796,5.3877551 28.6040816,3.42857143 28.1142857,2.49795918 C27.6244898,1.56734694 26.4,0.685714286 24.6367347,0.391836735 C22.8734694,0.0979591837 19.7877551,0 14.4489796,0 L11.0693878,0 Z M10.8244898,4.84897959 L19.8367347,10.2857143 L10.8244898,15.722449 L10.8244898,4.84897959 Z" id="Shape"></path>
            </g>
        </g>
    </g>
</svg>