<svg width="64px" height="64px" viewBox="0 0 64 64" version="1.1" xmlns="http://www.w3.org/2000/svg" xmlns:xlink="http://www.w3.org/1999/xlink">
    <title>Group</title>
    <desc></desc>
    <g id="Page-1" stroke="none" stroke-width="1" fill="none" fill-rule="evenodd">
        <g id="Homepage3" transform="translate(-150.000000, -1181.000000)" fill="#FFFFFF" fill-rule="nonzero">
            <g id="Choose-Bitfex" transform="translate(0.000000, 920.000000)">
                <g id="Group-7" transform="translate(150.000000, 253.000000)">
                    <g id="Group" transform="translate(0.000000, 8.000000)">
                        <path d="M29.1,44.04 L17.955,44.04 C17.4027153,44.04 16.955,43.5922847 16.955,43.04 L16.955,14.54 C16.955,13.9877153 17.4027153,13.54 17.955,13.54 L29.1,13.54 C29.6522847,13.54 30.1,13.9877153 30.1,14.54 L30.1,43.04 C30.1,43.5922847 29.6522847,44.04 29.1,44.04 Z M18.96,42.04 L28.1,42.04 L28.1,15.54 L18.955,15.54 L18.96,42.04 Z" id="Shape"></path>
                        <path d="M23.525,15.46 C22.9727153,15.46 22.525,15.0122847 22.525,14.46 L22.525,1 C22.525,0.44771525 22.9727153,1.01453063e-16 23.525,0 C24.0772847,-1.01453063e-16 24.525,0.44771525 24.525,1 L24.525,14.5 C24.5035188,15.0366039 24.0620335,15.4604298 23.525,15.46 Z" id="Path"></path>
                        <path d="M23.525,53.67 C22.9727153,53.67 22.525,53.2222847 22.525,52.67 L22.525,43.04 C22.525,42.4877153 22.9727153,42.04 23.525,42.04 C24.0772847,42.04 24.525,42.4877153 24.525,43.04 L24.525,52.665 C24.5263304,52.9310817 24.4215612,53.1867221 24.2338804,53.3753412 C24.0461997,53.5639604 23.7910851,53.6700033 23.525,53.67 Z" id="Path"></path>
                        <path d="M63,38.11 L51.86,38.11 C51.3077153,38.11 50.86,37.6622847 50.86,37.11 L50.86,22.34 C50.86,21.7877153 51.3077153,21.34 51.86,21.34 L63,21.34 C63.5522847,21.34 64,21.7877153 64,22.34 L64,37.11 C64,37.6622847 63.5522847,38.11 63,38.11 Z M52.86,36.11 L62,36.11 L62,23.34 L52.86,23.34 L52.86,36.11 Z" id="Shape"></path>
                        <path d="M57.43,23.255 C56.8777153,23.255 56.43,22.8072847 56.43,22.255 L56.43,11.805 C56.43,11.2527153 56.8777153,10.805 57.43,10.805 C57.9822847,10.805 58.43,11.2527153 58.43,11.805 L58.43,22.255 C58.43,22.8072847 57.9822847,23.255 57.43,23.255 Z" id="Path"></path>
                        <path d="M57.43,50.885 C56.8777153,50.885 56.43,50.4372847 56.43,49.885 L56.43,37.11 C56.43,36.5577153 56.8777153,36.11 57.43,36.11 C57.9822847,36.11 58.43,36.5577153 58.43,37.11 L58.43,49.885 C58.43,50.4372847 57.9822847,50.885 57.43,50.885 Z" id="Path"></path>
                        <path d="M46.045,21.715 L34.905,21.715 C34.3527153,21.715 33.905,21.2672847 33.905,20.715 L33.905,8.715 C33.905,8.16271525 34.3527153,7.715 34.905,7.715 L46.045,7.715 C46.5972847,7.715 47.045,8.16271525 47.045,8.715 L47.045,20.715 C47.045,21.2672847 46.5972847,21.715 46.045,21.715 Z M35.905,19.715 L45.045,19.715 L45.045,9.715 L35.905,9.715 L35.905,19.715 Z" id="Shape"></path>
                        <path d="M40.475,9.65 C39.9227153,9.65 39.475,9.20228475 39.475,8.65 L39.475,1 C39.475,0.44771525 39.9227153,1.01453063e-16 40.475,0 C41.0272847,-1.01453063e-16 41.475,0.44771525 41.475,1 L41.475,8.65 C41.475,9.20228475 41.0272847,9.65 40.475,9.65 Z" id="Path"></path>
                        <path d="M40.475,40.06 C39.9227153,40.06 39.475,39.6122847 39.475,39.06 L39.475,20.715 C39.475,20.1627153 39.9227153,19.715 40.475,19.715 C41.0272847,19.715 41.475,20.1627153 41.475,20.715 L41.475,39.06 C41.475,39.6122847 41.0272847,40.06 40.475,40.06 Z" id="Path"></path>
                        <path d="M12.14,54.5 L1,54.5 C0.44771525,54.5 6.9388939e-17,54.0522847 0,53.5 L0,45.25 C-6.9388939e-17,44.6977153 0.44771525,44.25 1,44.25 L12.14,44.25 C12.6922847,44.25 13.14,44.6977153 13.14,45.25 L13.14,53.5 C13.14,54.0522847 12.6922847,54.5 12.14,54.5 Z M2,52.5 L11.14,52.5 L11.14,46.25 L2,46.25 L2,52.5 Z" id="Shape"></path>
                        <path d="M6.57,64 C6.01771525,64 5.57,63.5522847 5.57,63 L5.57,53.5 C5.57,52.9477153 6.01771525,52.5 6.57,52.5 C7.12228475,52.5 7.57,52.9477153 7.57,53.5 L7.57,63 C7.57,63.5522847 7.12228475,64 6.57,64 Z" id="Path"></path>
                        <path d="M6.57,46.25 C6.01771525,46.25 5.57,45.8022847 5.57,45.25 L5.57,18.66 C5.57,18.1077153 6.01771525,17.66 6.57,17.66 C7.12228475,17.66 7.57,18.1077153 7.57,18.66 L7.57,45.25 C7.57,45.8022847 7.12228475,46.25 6.57,46.25 Z" id="Path"></path>
                    </g>
                </g>
            </g>
        </g>
    </g>
</svg>