<svg width="29px" height="21px" viewBox="0 0 29 21" version="1.1" xmlns="http://www.w3.org/2000/svg" xmlns:xlink="http://www.w3.org/1999/xlink">   <title>youtube</title>
    <desc></desc>
    <g id="Page-1" stroke="none" stroke-width="1" fill="none" fill-rule="evenodd">
        <g id="Homepage3" transform="translate(-1185.000000, -2842.000000)" fill="#FFFFFF" fill-rule="nonzero">
            <g id="Footer" transform="translate(0.000000, 2709.000000)">
                <g id="Social" transform="translate(1124.000000, 25.000000)">
                    <g id="youtube" transform="translate(61.000000, 108.000000)">
                        <path d="M11.0693878,0 C6.85714286,0.0489795918 4.11428571,0.244897959 2.79183673,0.734693878 C1.57918056,1.18386665 0.676062465,2.21600161 0.391836735,3.47755102 C0.146938776,4.50612245 0,6.75918367 0,10.2857143 L0,12.244898 C0.0489795918,15.1836735 0.293877551,17.1428571 0.783673469,18.0734694 C1.27346939,19.0040816 2.49795918,19.8857143 4.26122449,20.2285714 C6.0244898,20.5714286 9.11020408,20.6204082 14.4489796,20.6204082 L17.8285714,20.6204082 C22.0408163,20.5714286 24.7836735,20.3755102 26.1061224,19.8367347 C27.3187786,19.3875619 28.2218967,18.355427 28.5061224,17.0938776 C28.7510204,16.0653061 28.8979592,13.8122449 28.8979592,10.2857143 L28.8979592,8.32653061 C28.8489796,5.3877551 28.6040816,3.42857143 28.1142857,2.49795918 C27.6244898,1.56734694 26.4,0.685714286 24.6367347,0.391836735 C22.8734694,0.0979591837 19.7877551,0 14.4489796,0 L11.0693878,0 Z M10.8244898,4.84897959 L19.8367347,10.2857143 L10.8244898,15.722449 L10.8244898,4.84897959 Z" id="Shape"></path>
                    </g>
                </g>
            </g>
        </g>
    </g>
</svg>