<svg width="38px" height="64px" viewBox="0 0 38 64" version="1.1" xmlns="http://www.w3.org/2000/svg" xmlns:xlink="http://www.w3.org/1999/xlink">
    <title>Group</title>
    <desc></desc>
    <g id="Page-1" stroke="none" stroke-width="1" fill="none" fill-rule="evenodd">
        <g id="Homepage3" transform="translate(-752.000000, -1181.000000)">
            <g id="Choose-Bitfex" transform="translate(0.000000, 920.000000)">
                <g id="Group-9" transform="translate(752.000000, 253.000000)">
                    <g id="Group" transform="translate(-0.000000, 8.000000)">
                        <path d="M4.47891123,61.7871155 L25.6047294,61.721661 L25.574184,51.8598428 L4.45127487,51.9282065 L4.47891123,61.7871155 Z M8.0745476,55.1645701 C9.0031893,55.1645701 9.75600214,55.9173829 9.75600214,56.8460246 C9.75600214,57.7746663 9.0031893,58.5274792 8.0745476,58.5274792 C7.14590589,58.5274792 6.39309305,57.7746663 6.39309305,56.8460246 C6.39309155,56.3993181 6.57084316,55.9709709 6.88712146,55.6555113 C7.20339976,55.3400517 7.63220619,55.1634108 8.07891123,55.1645701 L8.0745476,55.1645701 Z" id="Shape"></path>
                        <path d="M26.7960021,29.3914792 C26.7568728,29.3798339 26.7160504,29.3749156 26.6752749,29.3769337 C26.3851175,29.3959315 26.1014833,29.4715343 25.8403658,29.5994792 C23.6048614,30.6169663 22.5446972,33.196381 23.4185476,35.4918428 C24.214184,37.7362065 24.8105476,38.0460246 24.8730931,38.073661 C25.7123658,38.4300246 28.9589112,36.3718428 30.3407294,35.4903883 C31.1014567,35.0045701 31.7487294,34.5929337 32.2680021,34.3165701 C32.1005744,34.1652228 31.9454208,34.0008281 31.8040021,33.8249337 C30.3747476,32.096287 28.6852017,30.6005751 26.7960021,29.3914792 Z" id="Path"></path>
                        <path d="M33.4970931,35.8205701 C32.7575116,36.1922455 32.0436697,36.6130672 31.3603658,37.0802065 C28.2650931,39.0540246 25.766184,40.5129337 24.1312749,39.8089337 C23.1756385,39.4002065 22.3858203,38.2278428 21.6367294,36.1187519 C20.4317275,32.8824342 21.9483025,29.2667208 25.1014567,27.8583883 C25.8063152,27.4904091 26.6226573,27.3971128 27.3923658,27.5965701 C29.2832749,28.2234792 32.6025476,31.8758428 33.2498203,32.601661 C33.3254567,32.6932974 34.4396385,34.0212974 35.6090931,33.3740246 C36.1050931,32.3558428 32.7770931,26.1783883 30.1865476,24.0314792 C28.1720021,22.3645701 20.6447294,24.4169337 18.5269112,25.2969337 C17.9653068,26.3144879 17.6247948,27.4391192 17.5276385,28.5972974 C17.4970449,28.8469843 17.3668565,29.0737147 17.1666366,29.2260023 C16.9664167,29.37829 16.7131562,29.4432116 16.4643658,29.4060246 C16.2160518,29.3724245 15.9912847,29.2414772 15.8395887,29.0420351 C15.6878927,28.8425931 15.6217156,28.591022 15.6556385,28.3427519 C15.7648427,26.7425735 16.3279359,25.2066814 17.2789112,23.9151155 L19.8592749,2.969661 C19.8589187,2.70493539 19.7507239,2.45178072 19.5596385,2.26857009 C19.2990275,2.02659342 18.955233,1.89428462 18.5996385,1.89911555 C16.7872749,1.95002464 16.5720021,3.95584282 16.5516385,4.36457009 L14.9327294,13.5762065 L14.9225476,13.6532974 L14.9152749,13.6751155 L12.1283658,29.5049337 C12.0487039,29.9569079 11.6563968,30.2866911 11.1974567,30.2874792 C11.142377,30.2868492 11.0874273,30.2819864 11.0330931,30.2729337 C10.5188884,30.182051 10.175308,29.6920585 10.2650931,29.177661 L13.0534567,13.3332974 C13.2178203,12.169661 13.6832749,8.82420646 12.8789112,7.897661 C12.7610931,7.76093373 12.6040021,7.59947918 11.9363658,7.58493373 C11.0173706,7.60885563 10.2464864,8.28552069 10.1036385,9.193661 L8.46872941,19.6372974 L7.09709305,28.4358428 C7.02485309,28.8958352 6.62890451,29.2350435 6.16327487,29.2358428 C6.11457887,29.2353412 6.06597673,29.231453 6.01782032,29.2242065 C5.50244656,29.1422264 5.15014181,28.6592698 5.22945669,28.1434792 L6.59963851,19.3914792 C6.91236578,16.7282065 6.45418396,15.3522065 5.91745669,14.9565701 C5.72366495,14.8093388 5.46118935,14.7905091 5.24836578,14.9085701 C4.7042116,15.1980196 4.34828785,15.7481336 4.30727487,16.3631155 C4.11527487,18.1740246 3.09127487,24.1362065 2.27091123,28.8183883 C1.44506846,33.5163333 1.99672164,38.352897 3.85927487,42.7442065 C5.04182032,45.5383883 6.36691123,48.3078428 7.28763851,50.1740246 L21.7865476,50.1289337 C22.7153259,47.8476726 24.3920235,45.9499115 26.5414567,44.7471155 C30.7596385,42.4751155 35.9960021,37.4743883 36.150184,36.2860246 C36.1526092,36.1027855 36.055806,35.9325453 35.8970931,35.8409337 C35.1361396,35.4942864 34.263819,35.4868849 33.4970931,35.8205701 Z" id="Path"></path>
                        <path d="M37.462184,33.4671155 C37.718184,30.7151155 33.8083658,24.5798428 31.3952749,22.5798428 C28.7276385,20.3645701 22.2243658,22.0940246 19.2905476,23.0394792 L21.7414567,3.129661 C21.7879198,2.31554739 21.4877887,1.51977704 20.9152749,0.939115547 C20.2965966,0.300382881 19.4324971,-0.0404858279 18.5443658,0.00384282001 C16.3579637,0.125846486 14.6545571,1.94653053 14.678184,4.13620646 L14.2418203,6.59729737 C13.6428468,5.98116425 12.8076825,5.65260976 11.9494567,5.69547918 L11.9320021,5.69547918 C10.0851363,5.71755466 8.52438735,7.07044972 8.24036578,8.89547918 L7.4665476,13.8409337 C7.33880676,13.6931976 7.19651312,13.5587009 7.04182032,13.4394792 C6.30292714,12.8869272 5.31938417,12.787342 4.48472941,13.1805701 C3.32045539,13.743602 2.53774104,14.877074 2.42363851,16.1652974 C2.27818396,17.5354792 1.55963851,21.913661 0.400365778,28.4925701 C-0.486643356,33.5469564 0.107415706,38.7500247 2.11091123,43.4743883 C3.1465476,45.9209337 4.28545669,48.3427519 5.1785476,50.1754792 L3.5785476,50.1754792 C3.09655363,50.1754792 2.70582032,50.5662125 2.70582032,51.0482065 L2.74072941,62.6540246 C2.74072941,63.1360186 3.13146272,63.5267519 3.61345669,63.5267519 L26.486184,63.4627519 C26.9681779,63.4627519 27.3589112,63.0720186 27.3589112,62.5900246 L27.3152749,50.9812974 C27.3152749,50.7498357 27.2233271,50.5278541 27.059659,50.364186 C26.8959909,50.2005179 26.6740093,50.1085701 26.4425476,50.1085701 L23.8738203,50.1158428 C24.6601177,48.5526215 25.8981723,47.2618622 27.4272749,46.4111155 C30.9836385,44.4925701 38.0643658,38.7645701 38.0294567,36.2772974 C38.0294738,35.5620032 37.7092814,34.8842625 37.1567294,34.4300246 C37.3330756,34.1376423 37.4377446,33.8076859 37.462184,33.4671155 Z M25.6090931,61.721661 L4.47891123,61.7871155 L4.44836578,51.9252974 L25.574184,51.8598428 L25.6090931,61.721661 Z M26.5312749,44.7500246 C24.3818416,45.9528206 22.7051441,47.8505817 21.7763658,50.1318428 L7.27745669,50.1769337 C6.35527487,48.3107519 5.03018396,45.5412974 3.84909305,42.7471155 C1.98653982,38.3558061 1.43488664,33.5192424 2.26072941,28.8212974 C3.08400214,24.1391155 4.10945669,18.1783883 4.29709305,16.3674792 C4.33810603,15.7524973 4.69402979,15.2023833 5.23818396,14.9129337 C5.45100753,14.7948727 5.71348314,14.8137025 5.90727487,14.9609337 C6.44400214,15.3565701 6.90218396,16.7325701 6.58945669,19.3958428 L5.21927487,28.1478428 C5.13995999,28.6636335 5.49226475,29.14659 6.00763851,29.2285701 C6.05579491,29.2358167 6.10439705,29.2397048 6.15309305,29.2402065 C6.6187227,29.2394071 7.01467127,28.9001988 7.08691123,28.4402065 L8.46291123,19.6460246 L10.0978203,9.20093373 C10.2406682,8.29279341 11.0115524,7.61612835 11.9305476,7.59220646 C12.598184,7.60675191 12.7552749,7.76820646 12.8730931,7.90493373 C13.6760021,8.825661 13.2120021,12.1769337 13.0476385,13.3405701 L10.2650931,29.1791155 C10.175308,29.693513 10.5188884,30.1835055 11.0330931,30.2743883 C11.0874273,30.283441 11.142377,30.2883038 11.1974567,30.2889337 C11.6563968,30.2881456 12.0487039,29.9583625 12.1283658,29.5063883 L14.9109112,13.673661 L14.918184,13.6518428 L14.9283658,13.5747519 L16.5516385,4.36457009 C16.5778203,3.96311555 16.7916385,1.95729737 18.6025476,1.90057009 C18.9581421,1.89573916 19.3019366,2.02804797 19.5625476,2.27002464 C19.753633,2.45323527 19.8618278,2.70638993 19.862184,2.97111555 L17.2789112,23.9151155 C16.3292344,25.2075775 15.7676562,26.7439706 15.6600021,28.3442065 C15.6260792,28.5924766 15.6922563,28.8440476 15.8439524,29.0434897 C15.9956484,29.2429318 16.2204154,29.373879 16.4687294,29.4074792 C16.7175198,29.4446661 16.9707803,29.3797445 17.1710002,29.2274569 C17.3712201,29.0751693 17.5014085,28.8484388 17.5320021,28.5987519 C17.6291585,27.4405737 17.9696704,26.3159425 18.5312749,25.2983883 C20.6490931,24.4183883 28.1763658,22.3645701 30.1909112,24.0329337 C32.7800021,26.1798428 36.1080021,32.3558428 35.6134567,33.3754792 C34.4498203,34.0212974 33.3298203,32.6932974 33.254184,32.6031155 C32.6069112,31.8758428 29.2818203,28.2234792 27.3967294,27.5980246 C26.627021,27.3985674 25.8106789,27.4918636 25.1058203,27.8598428 C21.9539883,29.2686676 20.4382607,32.8832419 21.6425476,36.1187519 C22.3887294,38.2278428 23.1814567,39.4002065 24.1370931,39.8089337 C25.7720021,40.5129337 28.2709112,39.0540246 31.366184,37.0802065 C32.0494879,36.6130672 32.7633297,36.1922455 33.5029112,35.8205701 C34.267544,35.4903948 35.1361222,35.4988481 35.894184,35.8438428 C36.0528969,35.9354544 36.1497001,36.1056946 36.1472749,36.2889337 C35.9858203,37.4831155 30.742184,42.473661 26.5312749,44.7500246 Z M32.2709112,34.313661 C31.7516385,34.5885701 31.1072749,35.001661 30.3436385,35.4874792 C28.9618203,36.3689337 25.7152749,38.4271155 24.8760021,38.0707519 C24.8105476,38.041661 24.214184,37.7332974 23.4214567,35.4889337 C22.5503263,33.1947198 23.6100515,30.6182828 25.8432749,29.6009337 C26.1043924,29.4729889 26.3880266,29.397386 26.678184,29.3783883 C26.7189595,29.3763701 26.7597818,29.3812885 26.7989112,29.3929337 C28.6884152,30.6010256 30.3784467,32.0957516 31.8083658,33.8234792 C31.9493798,33.9988152 32.1040441,34.1627205 32.2709112,34.313661 Z" id="Shape" fill="#FFFFFF" fill-rule="nonzero"></path>
                        <circle id="Oval" fill="#FFFFFF" fill-rule="nonzero" cx="8.07891123" cy="56.8460246" r="1.68145455"></circle>
                    </g>
                </g>
            </g>
        </g>
    </g>
</svg>