<svg width="1920" height="372" viewBox="0 0 1920 372" fill="none" xmlns="http://www.w3.org/2000/svg">
<g clip-path="url(#clip0)">
<rect width="1920" height="6340" transform="translate(0 -3034)" fill="#1A232B"/>
<path d="M725.475 80.989C729.894 74.1385 737.49 70 745.642 70H1173.36C1181.51 70 1189.11 74.1385 1193.53 80.989L1379.33 368.989C1389.63 384.959 1378.17 406 1359.16 406H559.835C540.83 406 529.365 384.959 539.668 368.989L725.475 80.989Z" fill="#181C1F"/>
<path fill-rule="evenodd" clip-rule="evenodd" d="M1970 505C1970 491.745 1980.75 481 1994 481L2045.5 481C2058.75 481 2069.5 470.255 2069.5 457V251C2069.5 237.745 2058.75 227 2045.5 227L1353.59 227C1346.76 227 1340.25 229.915 1335.69 235.013L1273.2 304.987C1268.65 310.085 1262.14 313 1255.3 313H663.2C656.364 313 649.853 310.085 645.3 304.987L582.805 235.014C578.252 229.915 571.741 227.001 564.905 227.001L-127 227C-140.255 227 -151 237.746 -151 251L-151 457C-151 470.255 -140.255 481 -127 481L-75 481.001C-61.7452 481.001 -51 491.746 -51 505V2277C-51 2290.25 -40.2548 2301 -27 2301H1946C1959.25 2301 1970 2290.25 1970 2277V505Z" fill="white"/>
</g>
<defs>
<clipPath id="clip0">
<rect width="1920" height="6340" fill="white" transform="translate(0 -3034)"/>
</clipPath>
</defs>
</svg>
